<svg width="500" height="500" viewBox="0 0 500 500" fill="none" xmlns="http://www.w3.org/2000/svg">
<path opacity="0.2" d="M416.21 192.45H378.37C376.028 192.45 374.13 194.348 374.13 196.69V216.39C374.13 218.732 376.028 220.63 378.37 220.63H416.21C418.552 220.63 420.45 218.732 420.45 216.39V196.69C420.45 194.348 418.552 192.45 416.21 192.45Z" fill="#263238"/>
<path d="M374.92 195.55L395.06 205.89C395.693 206.208 396.392 206.374 397.1 206.374C397.808 206.374 398.507 206.208 399.14 205.89L419.8 195.47" stroke="white" stroke-width="0.75" stroke-linecap="round" stroke-linejoin="round"/>
<path opacity="0.2" d="M126.24 190.47C126.089 190.274 125.895 190.116 125.673 190.007C125.451 189.897 125.207 189.84 124.96 189.84H83.62L82 185.05C81.8874 184.743 81.6833 184.477 81.415 184.289C81.1468 184.101 80.8274 184 80.5 184H70C69.5962 184.032 69.2193 184.215 68.9444 184.512C68.6695 184.81 68.5168 185.2 68.5168 185.605C68.5168 186.01 68.6695 186.4 68.9444 186.698C69.2193 186.995 69.5962 187.178 70 187.21H79.31L89.4 217.5C89.5053 217.82 89.7089 218.099 89.9818 218.296C90.2548 218.494 90.5831 218.6 90.92 218.6H91.51C90.9705 219.435 90.6661 220.4 90.6289 221.394C90.5916 222.387 90.8229 223.372 91.2983 224.245C91.7737 225.118 92.4757 225.847 93.3304 226.355C94.1851 226.863 95.1608 227.131 96.155 227.131C97.1492 227.131 98.1249 226.863 98.9796 226.355C99.8343 225.847 100.536 225.118 101.012 224.245C101.487 223.372 101.718 222.387 101.681 221.394C101.644 220.4 101.339 219.435 100.8 218.6H108.51C107.971 219.435 107.666 220.4 107.629 221.394C107.592 222.387 107.823 223.372 108.298 224.245C108.774 225.118 109.476 225.847 110.33 226.355C111.185 226.863 112.161 227.131 113.155 227.131C114.149 227.131 115.125 226.863 115.98 226.355C116.834 225.847 117.536 225.118 118.012 224.245C118.487 223.372 118.718 222.387 118.681 221.394C118.644 220.4 118.339 219.435 117.8 218.6H119.04C119.444 218.568 119.821 218.385 120.096 218.088C120.371 217.79 120.523 217.4 120.523 216.995C120.523 216.59 120.371 216.2 120.096 215.902C119.821 215.605 119.444 215.422 119.04 215.39H92.04L90.28 210.1H120.28C120.633 210.099 120.976 209.982 121.256 209.767C121.536 209.552 121.738 209.251 121.83 208.91L126.4 191.91C126.489 191.674 126.52 191.421 126.492 191.171C126.465 190.921 126.378 190.68 126.24 190.47ZM96.24 223.84C95.7811 223.84 95.3326 223.704 94.9511 223.449C94.5696 223.194 94.2722 222.832 94.0966 222.408C93.921 221.984 93.8751 221.517 93.9646 221.067C94.0541 220.617 94.2751 220.204 94.5995 219.88C94.924 219.555 95.3374 219.334 95.7874 219.245C96.2374 219.155 96.7039 219.201 97.1278 219.377C97.5517 219.552 97.9141 219.85 98.169 220.231C98.4239 220.613 98.56 221.061 98.56 221.52C98.5601 221.829 98.4984 222.135 98.3787 222.42C98.259 222.704 98.0837 222.962 97.8629 223.178C97.6422 223.395 97.3805 223.564 97.0932 223.678C96.8059 223.792 96.4988 223.847 96.19 223.84H96.24ZM113.24 223.84C112.781 223.84 112.333 223.704 111.951 223.449C111.57 223.194 111.272 222.832 111.097 222.408C110.921 221.984 110.875 221.517 110.965 221.067C111.054 220.617 111.275 220.204 111.6 219.88C111.924 219.555 112.337 219.334 112.787 219.245C113.237 219.155 113.704 219.201 114.128 219.377C114.552 219.552 114.914 219.85 115.169 220.231C115.424 220.613 115.56 221.061 115.56 221.52C115.56 221.829 115.498 222.135 115.379 222.42C115.259 222.704 115.084 222.962 114.863 223.178C114.642 223.395 114.38 223.564 114.093 223.678C113.806 223.792 113.499 223.847 113.19 223.84H113.24ZM117.52 206.84H111.58V193.05H117.52V206.84ZM102.43 193.05H108.37V206.84H102.43V193.05ZM99.22 206.84H93.22V193.05H99.22V206.84ZM84.69 193.05H90V206.84H89.28L84.69 193.05ZM120.69 201.17V193.05H122.88L120.69 201.17Z" fill="#263238"/>
<path opacity="0.2" d="M380 114L383.71 112.31L382.92 107.86L378.83 107.54C378.312 106.166 377.623 104.863 376.78 103.66L378.89 100.1L375.7 96.9L372.11 99.04C370.045 97.6361 367.708 96.6821 365.25 96.24L364.25 92.14H359.73L358.73 96.26C357.326 96.5277 355.959 96.9642 354.66 97.56L351.43 94.76L347.73 97.35L349.25 101.35C348.26 102.37 347.39 103.5 346.66 104.72L342.4 104.28L340.85 108.53L344.38 110.92C344.207 111.911 344.12 112.914 344.12 113.92C344.12 114.35 344.12 114.77 344.17 115.19L340.47 117.26L341.64 121.63H345.83C346.451 122.938 347.226 124.167 348.14 125.29L346.29 129L349.75 131.9L353.11 129.5C354.371 130.227 355.713 130.801 357.11 131.21L357.78 135.21L362.29 135.61L363.64 131.77C365.12 131.642 366.578 131.329 367.98 130.84L370.82 133.72L374.74 131.46L373.66 127.57C374.792 126.605 375.799 125.503 376.66 124.29L380.66 125.02L382.6 121L379.48 118.42C379.833 116.973 380.008 115.489 380 114ZM373.31 113.92C373.31 116.153 372.648 118.336 371.407 120.192C370.167 122.049 368.403 123.496 366.34 124.351C364.278 125.205 362.007 125.429 359.817 124.993C357.627 124.557 355.616 123.482 354.037 121.903C352.458 120.324 351.383 118.313 350.947 116.123C350.511 113.933 350.735 111.662 351.589 109.599C352.444 107.537 353.891 105.773 355.748 104.533C357.604 103.292 359.787 102.63 362.02 102.63C363.513 102.623 364.993 102.913 366.373 103.483C367.753 104.052 369.007 104.89 370.061 105.948C371.115 107.005 371.948 108.262 372.513 109.644C373.077 111.026 373.362 112.507 373.35 114L373.31 113.92Z" fill="#263238"/>
<path opacity="0.2" d="M365.91 312.22C365.687 312.636 365.633 313.122 365.76 313.577C365.886 314.031 366.184 314.419 366.59 314.66C367.082 314.958 367.67 315.052 368.23 314.923C368.79 314.794 369.278 314.452 369.59 313.97L374.86 305.84L374.96 305.66L381.74 304.94L381.05 306.29C380.944 306.488 380.913 306.717 380.963 306.935C381.012 307.154 381.139 307.348 381.32 307.48C381.422 307.552 381.539 307.601 381.661 307.625C381.784 307.648 381.91 307.646 382.032 307.618C382.154 307.589 382.268 307.536 382.368 307.46C382.467 307.385 382.55 307.289 382.61 307.18L383.98 304.71L389.08 304.17L388.08 306.05C387.976 306.252 387.952 306.486 388.013 306.705C388.074 306.924 388.216 307.111 388.41 307.23C388.434 307.337 388.491 307.434 388.571 307.508C388.652 307.582 388.753 307.63 388.862 307.645C388.97 307.66 389.081 307.642 389.179 307.593C389.277 307.544 389.357 307.466 389.41 307.37L391.32 303.93L394.7 303.57C395.322 303.507 395.921 303.307 396.456 302.983C396.99 302.66 397.446 302.221 397.79 301.7L398.35 300.86L388 299.78C388 299.78 381.29 299.17 380.24 295.87L385.41 286.21L385.46 286.08L392.63 285.3L394.2 283.22L387.33 281.53L387.8 280.4C387.81 280.376 387.812 280.35 387.804 280.325C387.797 280.301 387.781 280.279 387.76 280.265C387.739 280.251 387.713 280.245 387.687 280.247C387.662 280.25 387.638 280.262 387.62 280.28L386.62 281.28L381.86 275.79L380.5 278.32L383.37 284.53L383.19 284.71L377.6 293C376.55 293.88 374.6 295 372.98 293.16C370.52 290.49 364.05 280.08 364.05 280.08L363.41 281.67C363 282.711 363 283.869 363.41 284.91L364.55 287.91L363 290.8C362.894 290.998 362.863 291.227 362.913 291.445C362.962 291.664 363.089 291.857 363.27 291.99C363.374 292.06 363.492 292.107 363.615 292.13C363.739 292.152 363.866 292.148 363.988 292.119C364.11 292.09 364.225 292.036 364.325 291.961C364.425 291.885 364.509 291.789 364.57 291.68L365.37 290.24L367.05 294.63L365.57 297.51C365.462 297.71 365.431 297.942 365.483 298.163C365.534 298.384 365.665 298.579 365.85 298.71C365.953 298.78 366.07 298.827 366.193 298.849C366.316 298.871 366.442 298.868 366.563 298.839C366.684 298.81 366.798 298.755 366.898 298.68C366.997 298.604 367.08 298.509 367.14 298.4L368 297L370.56 303.67L365.91 312.22Z" fill="#263238"/>
<path opacity="0.2" d="M179.07 88.73H131.65V117.25H179.07V88.73Z" fill="#263238"/>
<path d="M154.64 110.95C159.296 110.95 163.07 107.176 163.07 102.52C163.07 97.8642 159.296 94.09 154.64 94.09C149.984 94.09 146.21 97.8642 146.21 102.52C146.21 107.176 149.984 110.95 154.64 110.95Z" fill="white"/>
<path opacity="0.2" d="M160.76 102.52L151.49 97.17V107.87L160.76 102.52Z" fill="#263238"/>
<path opacity="0.2" d="M121.62 279.64V302C120.696 301.512 119.665 301.261 118.62 301.27C115.72 301.27 113.38 303.08 113.38 305.27C113.38 307.46 115.72 309.32 118.62 309.32C123.5 309.32 123.86 305.98 123.86 305.98V286.34L137.78 284.34V299.34C136.854 298.859 135.824 298.612 134.78 298.62C131.88 298.62 129.54 300.43 129.54 302.67C129.54 304.91 131.88 306.67 134.78 306.67C137.35 306.67 139.49 305.22 139.92 303.33L140 284V277L121.62 279.64Z" fill="#263238"/>
<path opacity="0.2" d="M273.05 76V73.41C273.05 72.983 272.88 72.5735 272.578 72.2715C272.276 71.9696 271.867 71.8 271.44 71.8H268.71C268.283 71.8 267.873 71.9696 267.572 72.2715C267.27 72.5735 267.1 72.983 267.1 73.41V82.78H240.1V73.41C240.1 72.983 239.93 72.5735 239.628 72.2715C239.327 71.9696 238.917 71.8 238.49 71.8H235.58C235.158 71.8078 234.756 71.9809 234.461 72.282C234.165 72.5831 234 72.9881 234 73.41V76H229.71C229.225 76 228.759 76.1928 228.416 76.536C228.073 76.8792 227.88 77.3446 227.88 77.83V90C227.88 90.4863 228.072 90.9528 228.415 91.2975C228.758 91.6423 229.224 91.8373 229.71 91.84H234V94.4C234.002 94.8184 234.168 95.2194 234.461 95.5181C234.754 95.8168 235.152 95.9896 235.57 96H238.48C238.907 96 239.317 95.8304 239.618 95.5284C239.92 95.2265 240.09 94.817 240.09 94.39V87H267.09V94.34C267.083 94.5564 267.12 94.772 267.199 94.9738C267.277 95.1756 267.396 95.3595 267.547 95.5145C267.698 95.6695 267.879 95.7924 268.079 95.8758C268.279 95.9592 268.493 96.0014 268.71 96H271.44C271.867 96 272.276 95.8304 272.578 95.5284C272.88 95.2265 273.05 94.817 273.05 94.39V91.8H277.17C277.649 91.7975 278.109 91.608 278.451 91.2718C278.793 90.9356 278.99 90.4793 279 90V77.81C278.995 77.3281 278.8 76.8678 278.457 76.5289C278.114 76.19 277.652 76 277.17 76H273.05Z" fill="#263238"/>
<path opacity="0.2" d="M253.59 328.49C314.96 328.49 364.71 278.74 364.71 217.37C364.71 156 314.96 106.25 253.59 106.25C192.22 106.25 142.47 156 142.47 217.37C142.47 278.74 192.22 328.49 253.59 328.49Z" fill="#263238"/>
<path d="M253.59 319.77C310.144 319.77 355.99 273.924 355.99 217.37C355.99 160.816 310.144 114.97 253.59 114.97C197.036 114.97 151.19 160.816 151.19 217.37C151.19 273.924 197.036 319.77 253.59 319.77Z" fill="#9D4EDD" stroke="#263238" stroke-miterlimit="10"/>
<g opacity="0.2">
<path d="M253.59 220.72C253.143 220.723 252.701 220.636 252.288 220.464C251.876 220.292 251.503 220.039 251.19 219.72L186.78 153.57C186.192 152.928 185.877 152.082 185.902 151.211C185.927 150.34 186.29 149.514 186.915 148.907C187.539 148.299 188.375 147.959 189.246 147.958C190.117 147.956 190.954 148.294 191.58 148.9L256 215C256.461 215.472 256.772 216.069 256.894 216.717C257.017 217.365 256.946 218.034 256.689 218.642C256.433 219.249 256.003 219.768 255.454 220.132C254.904 220.496 254.259 220.691 253.6 220.69L253.59 220.72Z" fill="#263238"/>
</g>
<path opacity="0.2" d="M224.7 240.05C223.979 240.053 223.277 239.824 222.696 239.397C222.116 238.969 221.69 238.366 221.48 237.676C221.27 236.987 221.288 236.248 221.531 235.569C221.774 234.891 222.23 234.309 222.83 233.91L251.73 214.58C252.469 214.112 253.361 213.952 254.216 214.133C255.072 214.314 255.822 214.823 256.308 215.55C256.793 216.277 256.976 217.165 256.815 218.025C256.655 218.884 256.165 219.647 255.45 220.15L226.56 239.48C226.01 239.849 225.363 240.048 224.7 240.05Z" fill="#263238"/>
<path d="M257.74 217.37C257.742 216.549 257.5 215.745 257.045 215.062C256.591 214.378 255.943 213.844 255.185 213.529C254.427 213.213 253.592 213.13 252.787 213.289C251.981 213.448 251.24 213.842 250.659 214.422C250.078 215.002 249.681 215.741 249.52 216.547C249.36 217.352 249.441 218.187 249.755 218.946C250.069 219.705 250.601 220.353 251.283 220.81C251.966 221.266 252.769 221.51 253.59 221.51C254.689 221.51 255.743 221.074 256.521 220.298C257.299 219.522 257.737 218.469 257.74 217.37Z" fill="#263238" stroke="#263238" stroke-miterlimit="10" stroke-linecap="round"/>
<path d="M253.67 124.13V137.97" stroke="#263238" stroke-width="2" stroke-miterlimit="10" stroke-linecap="round"/>
<path d="M253.67 295.69V309.53" stroke="#263238" stroke-width="2" stroke-miterlimit="10" stroke-linecap="round"/>
<path d="M346.37 216.83H332.52" stroke="#263238" stroke-width="2" stroke-miterlimit="10" stroke-linecap="round"/>
<path d="M174.81 216.83H160.97" stroke="#263238" stroke-width="2" stroke-miterlimit="10" stroke-linecap="round"/>
<path d="M302.28 137.9L295.02 149.69" stroke="#263238" stroke-width="2" stroke-miterlimit="10" stroke-linecap="round"/>
<path d="M212.31 283.97L205.05 295.76" stroke="#263238" stroke-width="2" stroke-miterlimit="10" stroke-linecap="round"/>
<path d="M335.22 172.76L323.04 179.34" stroke="#263238" stroke-width="2" stroke-miterlimit="10" stroke-linecap="round"/>
<path d="M184.29 254.32L172.11 260.9" stroke="#263238" stroke-width="2" stroke-miterlimit="10" stroke-linecap="round"/>
<path d="M332.6 265.45L320.81 258.18" stroke="#263238" stroke-width="2" stroke-miterlimit="10" stroke-linecap="round"/>
<path d="M186.53 175.48L174.74 168.22" stroke="#263238" stroke-width="2" stroke-miterlimit="10" stroke-linecap="round"/>
<path d="M297.74 298.39L291.16 286.2" stroke="#263238" stroke-width="2" stroke-miterlimit="10" stroke-linecap="round"/>
<path d="M216.18 147.46L209.6 135.28" stroke="#263238" stroke-width="2" stroke-miterlimit="10" stroke-linecap="round"/>
<path d="M251.49 452.93C295.513 452.93 331.2 448.713 331.2 443.51C331.2 438.307 295.513 434.09 251.49 434.09C207.467 434.09 171.78 438.307 171.78 443.51C171.78 448.713 207.467 452.93 251.49 452.93Z" fill="#9D4EDD"/>
<path opacity="0.5" d="M251.49 452.93C295.513 452.93 331.2 448.713 331.2 443.51C331.2 438.307 295.513 434.09 251.49 434.09C207.467 434.09 171.78 438.307 171.78 443.51C171.78 448.713 207.467 452.93 251.49 452.93Z" fill="white"/>
<path d="M272.88 303.35C272.77 301.13 272.88 297.71 272.97 295.74C273.236 294.147 273.37 292.535 273.37 290.92C273.37 269.48 265.1 267.68 254.88 267.68C244.66 267.68 236.39 271.12 236.39 290.92C236.39 291.44 236.39 291.92 236.44 292.47C236.53 293.33 237.37 301.55 236.6 304.65C235.78 307.92 229.23 308.58 225.47 316.43C221.71 324.28 229.89 335.74 256.56 337.21C283.23 338.68 286 320.86 286 314.81C286 308.76 273.05 306.62 272.88 303.35Z" fill="#263238"/>
<path d="M235.74 292.55L236.4 292.48V292.39L235.74 292.55Z" fill="#263238"/>
<path d="M239.5 322C239.5 322 228.71 322.59 224.88 324.74C221.05 326.89 220.33 339.58 220.33 339.58L208.85 364.22C208.85 364.22 177.98 342.69 175.35 340.54C172.72 338.39 172 336.71 169.35 335.03C166.7 333.35 165.76 333.36 162.41 333.36C159.06 333.36 158.58 333.84 158.82 334.79C159.06 335.74 160.26 335.99 161.21 335.99C162.26 336.074 163.303 336.234 164.33 336.47L154.75 340.3C152.36 341.25 152.84 337.42 150.69 337.42C148.54 337.42 148.77 342.93 152.36 345.56C155.95 348.19 158.36 347.47 161.21 347.23C164.06 346.99 170.79 346.04 170.79 346.04C170.79 346.04 189.21 362.31 195.91 368.29C202.61 374.27 211.7 380.01 215.05 377.62C218.4 375.23 231.05 351.78 231.05 351.78L239.18 330.25C239.18 330.25 241.45 325.73 239.5 322Z" fill="white"/>
<mask id="mask0_5_121" style="mask-type:luminance" maskUnits="userSpaceOnUse" x="149" y="322" width="92" height="57">
<path d="M239.5 322C239.5 322 228.71 322.59 224.88 324.74C221.05 326.89 220.33 339.58 220.33 339.58L208.85 364.22C208.85 364.22 177.98 342.69 175.35 340.54C172.72 338.39 172 336.71 169.35 335.03C166.7 333.35 165.76 333.36 162.41 333.36C159.06 333.36 158.58 333.84 158.82 334.79C159.06 335.74 160.26 335.99 161.21 335.99C162.26 336.074 163.303 336.234 164.33 336.47L154.75 340.3C152.36 341.25 152.84 337.42 150.69 337.42C148.54 337.42 148.77 342.93 152.36 345.56C155.95 348.19 158.36 347.47 161.21 347.23C164.06 346.99 170.79 346.04 170.79 346.04C170.79 346.04 189.21 362.31 195.91 368.29C202.61 374.27 211.7 380.01 215.05 377.62C218.4 375.23 231.05 351.78 231.05 351.78L239.18 330.25C239.18 330.25 241.45 325.73 239.5 322Z" fill="white"/>
</mask>
<g mask="url(#mask0_5_121)">
<path opacity="0.1" d="M239.5 322C239.5 322 228.71 322.59 224.88 324.74C221.05 326.89 220.33 339.58 220.33 339.58L208.85 364.22C208.85 364.22 177.98 342.69 175.35 340.54C172.72 338.39 172 336.71 169.35 335.03C166.7 333.35 165.76 333.36 162.41 333.36C159.06 333.36 158.58 333.84 158.82 334.79C159.06 335.74 160.26 335.99 161.21 335.99C162.26 336.074 163.303 336.234 164.33 336.47L154.75 340.3C152.36 341.25 152.84 337.42 150.69 337.42C148.54 337.42 148.77 342.93 152.36 345.56C155.95 348.19 158.36 347.47 161.21 347.23C164.06 346.99 170.79 346.04 170.79 346.04C170.79 346.04 189.21 362.31 195.91 368.29C202.61 374.27 211.7 380.01 215.05 377.62C218.4 375.23 231.05 351.78 231.05 351.78L239.18 330.25C239.18 330.25 241.45 325.73 239.5 322Z" fill="black"/>
</g>
<path d="M239.5 322C239.5 322 228.71 322.59 224.88 324.74C221.05 326.89 220.33 339.58 220.33 339.58L208.85 364.22C208.85 364.22 177.98 342.69 175.35 340.54C172.72 338.39 172 336.71 169.35 335.03C166.7 333.35 165.76 333.36 162.41 333.36C159.06 333.36 158.58 333.84 158.82 334.79C159.06 335.74 160.26 335.99 161.21 335.99C162.26 336.074 163.303 336.234 164.33 336.47L154.75 340.3C152.36 341.25 152.84 337.42 150.69 337.42C148.54 337.42 148.77 342.93 152.36 345.56C155.95 348.19 158.36 347.47 161.21 347.23C164.06 346.99 170.79 346.04 170.79 346.04C170.79 346.04 189.21 362.31 195.91 368.29C202.61 374.27 211.7 380.01 215.05 377.62C218.4 375.23 231.05 351.78 231.05 351.78L239.18 330.25C239.18 330.25 241.45 325.73 239.5 322Z" stroke="#263238" stroke-miterlimit="10" stroke-linecap="round"/>
<path d="M153.05 346.09C153.05 346.09 148.39 342.31 150.9 338.61C151.52 337.69 152.9 339.08 153.3 341.61C153.7 344.14 154.96 345.12 155.61 345.3" fill="white"/>
<mask id="mask1_5_121" style="mask-type:luminance" maskUnits="userSpaceOnUse" x="150" y="338" width="6" height="9">
<path d="M153.05 346.09C153.05 346.09 148.39 342.31 150.9 338.61C151.52 337.69 152.9 339.08 153.3 341.61C153.7 344.14 154.96 345.12 155.61 345.3" fill="white"/>
</mask>
<g mask="url(#mask1_5_121)">
<path opacity="0.1" d="M153.05 346.09C153.05 346.09 148.39 342.31 150.9 338.61C151.52 337.69 152.9 339.08 153.3 341.61C153.7 344.14 154.96 345.12 155.61 345.3" fill="black"/>
</g>
<path d="M153.05 346.09C153.05 346.09 148.39 342.31 150.9 338.61C151.52 337.69 152.9 339.08 153.3 341.61C153.7 344.14 154.96 345.12 155.61 345.3" stroke="#263238" stroke-miterlimit="10" stroke-linecap="round"/>
<path d="M156.53 345.26C155.42 345.26 155.48 342.26 153.39 340.83C151.73 339.66 151.94 341.96 152.33 343.83C152.483 344.597 152.863 345.3 153.421 345.848C153.98 346.396 154.69 346.762 155.46 346.9C156.176 347.079 156.922 347.11 157.65 346.99" fill="white"/>
<mask id="mask2_5_121" style="mask-type:luminance" maskUnits="userSpaceOnUse" x="152" y="340" width="6" height="8">
<path d="M156.53 345.26C155.42 345.26 155.48 342.26 153.39 340.83C151.73 339.66 151.94 341.96 152.33 343.83C152.483 344.597 152.863 345.3 153.421 345.848C153.98 346.396 154.69 346.762 155.46 346.9C156.176 347.079 156.922 347.11 157.65 346.99" fill="white"/>
</mask>
<g mask="url(#mask2_5_121)">
<path opacity="0.1" d="M156.53 345.26C155.42 345.26 155.48 342.26 153.39 340.83C151.73 339.66 151.94 341.96 152.33 343.83C152.483 344.597 152.863 345.3 153.421 345.848C153.98 346.396 154.69 346.762 155.46 346.9C156.176 347.079 156.922 347.11 157.65 346.99" fill="black"/>
</g>
<path d="M156.53 345.26C155.42 345.26 155.48 342.26 153.39 340.83C151.73 339.66 151.94 341.96 152.33 343.83C152.483 344.597 152.863 345.3 153.421 345.848C153.98 346.396 154.69 346.762 155.46 346.9C156.176 347.079 156.922 347.11 157.65 346.99" stroke="#263238" stroke-miterlimit="10" stroke-linecap="round"/>
<path d="M170.57 340.37C170.57 340.37 169 339.26 165.95 340.28C162.9 341.3 159.3 345.73 158.47 345.36C157.694 344.915 157.104 344.205 156.81 343.36C156.34 342.44 155.43 341.11 154.81 342.18C153.43 344.52 157.19 347.18 157.19 347.18C157.19 347.18 157.71 347.62 160.62 347.27C163.53 346.92 170.1 346 170.1 346" fill="white"/>
<mask id="mask3_5_121" style="mask-type:luminance" maskUnits="userSpaceOnUse" x="154" y="339" width="17" height="9">
<path d="M170.57 340.37C170.57 340.37 169 339.26 165.95 340.28C162.9 341.3 159.3 345.73 158.47 345.36C157.694 344.915 157.104 344.205 156.81 343.36C156.34 342.44 155.43 341.11 154.81 342.18C153.43 344.52 157.19 347.18 157.19 347.18C157.19 347.18 157.71 347.62 160.62 347.27C163.53 346.92 170.1 346 170.1 346" fill="white"/>
</mask>
<g mask="url(#mask3_5_121)">
<path opacity="0.1" d="M170.57 340.37C170.57 340.37 169 339.26 165.95 340.28C162.9 341.3 159.3 345.73 158.47 345.36C157.694 344.915 157.104 344.205 156.81 343.36C156.34 342.44 155.43 341.11 154.81 342.18C153.43 344.52 157.19 347.18 157.19 347.18C157.19 347.18 157.71 347.62 160.62 347.27C163.53 346.92 170.1 346 170.1 346" fill="black"/>
</g>
<path d="M170.57 340.37C170.57 340.37 169 339.26 165.95 340.28C162.9 341.3 159.3 345.73 158.47 345.36C157.694 344.915 157.104 344.205 156.81 343.36C156.34 342.44 155.43 341.11 154.81 342.18C153.43 344.52 157.19 347.18 157.19 347.18C157.19 347.18 157.71 347.62 160.62 347.27C163.53 346.92 170.1 346 170.1 346" stroke="#263238" stroke-miterlimit="10" stroke-linecap="round"/>
<path d="M231.23 346.65L227.74 336.66" stroke="#263238" stroke-miterlimit="10" stroke-linecap="round"/>
<path d="M267.51 321.78C267.51 321.78 278.88 322.59 282.71 324.78C286.54 326.97 287.26 339.62 287.26 339.62L298.74 364.26C298.74 364.26 329.61 342.73 332.24 340.58C334.87 338.43 335.59 336.75 338.24 335.07C340.89 333.39 341.83 333.4 345.18 333.4C348.53 333.4 349.01 333.88 348.77 334.83C348.53 335.78 347.33 336.03 346.37 336.03C345.323 336.114 344.284 336.275 343.26 336.51L352.83 340.34C355.23 341.29 354.75 337.46 356.9 337.46C359.05 337.46 358.82 342.97 355.23 345.6C351.64 348.23 349.23 347.51 346.37 347.27C343.51 347.03 336.8 346.08 336.8 346.08C336.8 346.08 318.38 362.35 311.68 368.33C304.98 374.31 295.89 380.05 292.54 377.66C289.19 375.27 276.54 351.82 276.54 351.82L268.41 330.29C268.41 330.29 265.57 325.51 267.51 321.78Z" fill="white"/>
<mask id="mask4_5_121" style="mask-type:luminance" maskUnits="userSpaceOnUse" x="266" y="321" width="93" height="58">
<path d="M267.51 321.78C267.51 321.78 278.88 322.59 282.71 324.78C286.54 326.97 287.26 339.62 287.26 339.62L298.74 364.26C298.74 364.26 329.61 342.73 332.24 340.58C334.87 338.43 335.59 336.75 338.24 335.07C340.89 333.39 341.83 333.4 345.18 333.4C348.53 333.4 349.01 333.88 348.77 334.83C348.53 335.78 347.33 336.03 346.37 336.03C345.323 336.114 344.284 336.275 343.26 336.51L352.83 340.34C355.23 341.29 354.75 337.46 356.9 337.46C359.05 337.46 358.82 342.97 355.23 345.6C351.64 348.23 349.23 347.51 346.37 347.27C343.51 347.03 336.8 346.08 336.8 346.08C336.8 346.08 318.38 362.35 311.68 368.33C304.98 374.31 295.89 380.05 292.54 377.66C289.19 375.27 276.54 351.82 276.54 351.82L268.41 330.29C268.41 330.29 265.57 325.51 267.51 321.78Z" fill="white"/>
</mask>
<g mask="url(#mask4_5_121)">
<path opacity="0.1" d="M267.51 321.78C267.51 321.78 278.88 322.59 282.71 324.78C286.54 326.97 287.26 339.62 287.26 339.62L298.74 364.26C298.74 364.26 329.61 342.73 332.24 340.58C334.87 338.43 335.59 336.75 338.24 335.07C340.89 333.39 341.83 333.4 345.18 333.4C348.53 333.4 349.01 333.88 348.77 334.83C348.53 335.78 347.33 336.03 346.37 336.03C345.323 336.114 344.284 336.275 343.26 336.51L352.83 340.34C355.23 341.29 354.75 337.46 356.9 337.46C359.05 337.46 358.82 342.97 355.23 345.6C351.64 348.23 349.23 347.51 346.37 347.27C343.51 347.03 336.8 346.08 336.8 346.08C336.8 346.08 318.38 362.35 311.68 368.33C304.98 374.31 295.89 380.05 292.54 377.66C289.19 375.27 276.54 351.82 276.54 351.82L268.41 330.29C268.41 330.29 265.57 325.51 267.51 321.78Z" fill="black"/>
</g>
<path d="M267.51 321.78C267.51 321.78 278.88 322.59 282.71 324.78C286.54 326.97 287.26 339.62 287.26 339.62L298.74 364.26C298.74 364.26 329.61 342.73 332.24 340.58C334.87 338.43 335.59 336.75 338.24 335.07C340.89 333.39 341.83 333.4 345.18 333.4C348.53 333.4 349.01 333.88 348.77 334.83C348.53 335.78 347.33 336.03 346.37 336.03C345.323 336.114 344.284 336.275 343.26 336.51L352.83 340.34C355.23 341.29 354.75 337.46 356.9 337.46C359.05 337.46 358.82 342.97 355.23 345.6C351.64 348.23 349.23 347.51 346.37 347.27C343.51 347.03 336.8 346.08 336.8 346.08C336.8 346.08 318.38 362.35 311.68 368.33C304.98 374.31 295.89 380.05 292.54 377.66C289.19 375.27 276.54 351.82 276.54 351.82L268.41 330.29C268.41 330.29 265.57 325.51 267.51 321.78Z" stroke="#263238" stroke-miterlimit="10" stroke-linecap="round"/>
<path d="M276.54 344.56L279.32 336.43" stroke="#263238" stroke-miterlimit="10" stroke-linecap="round"/>
<path d="M355.69 344.73C355.69 344.73 357.69 339.08 356.69 338.61C355.69 338.14 354.69 339.08 354.29 341.61C353.89 344.14 352.63 345.12 351.98 345.3" fill="white"/>
<mask id="mask5_5_121" style="mask-type:luminance" maskUnits="userSpaceOnUse" x="351" y="338" width="6" height="8">
<path d="M355.69 344.73C355.69 344.73 357.69 339.08 356.69 338.61C355.69 338.14 354.69 339.08 354.29 341.61C353.89 344.14 352.63 345.12 351.98 345.3" fill="white"/>
</mask>
<g mask="url(#mask5_5_121)">
<path opacity="0.1" d="M357.06 343.51C357.06 343.51 357.71 339.08 356.69 338.61C355.67 338.14 354.69 339.08 354.29 341.61C353.89 344.14 352.63 345.12 351.98 345.3" fill="black"/>
</g>
<path d="M355.69 344.73C355.69 344.73 357.69 339.08 356.69 338.61C355.69 338.14 354.69 339.08 354.29 341.61C353.89 344.14 352.63 345.12 351.98 345.3" stroke="#263238" stroke-miterlimit="10" stroke-linecap="round"/>
<path d="M354.17 345.74C354.17 345.74 356.69 338.61 353.77 340.5C351.62 341.89 352.17 345.26 351.06 345.26" fill="white"/>
<mask id="mask6_5_121" style="mask-type:luminance" maskUnits="userSpaceOnUse" x="351" y="340" width="5" height="6">
<path d="M354.17 345.74C354.17 345.74 356.69 338.61 353.77 340.5C351.62 341.89 352.17 345.26 351.06 345.26" fill="white"/>
</mask>
<g mask="url(#mask6_5_121)">
<path opacity="0.1" d="M354.75 345.82C354.75 345.82 356.69 338.61 353.75 340.5C351.6 341.89 352.15 345.26 351.04 345.26" fill="black"/>
</g>
<path d="M354.17 345.74C354.17 345.74 356.69 338.61 353.77 340.5C351.62 341.89 352.17 345.26 351.06 345.26" stroke="#263238" stroke-miterlimit="10" stroke-linecap="round"/>
<path d="M337 340.37C337 340.37 338.57 339.26 341.62 340.28C344.67 341.3 348.27 345.73 349.1 345.36C349.876 344.915 350.466 344.205 350.76 343.36C351.22 342.44 352.06 341.89 352.61 342.99C353.16 344.09 351.5 347.34 351.5 347.34C351.5 347.34 350.5 348.05 348.05 347.48C345.284 346.815 342.473 346.35 339.64 346.09" fill="white"/>
<mask id="mask7_5_121" style="mask-type:luminance" maskUnits="userSpaceOnUse" x="337" y="339" width="16" height="9">
<path d="M337 340.37C337 340.37 338.57 339.26 341.62 340.28C344.67 341.3 348.27 345.73 349.1 345.36C349.876 344.915 350.466 344.205 350.76 343.36C351.22 342.44 352.06 341.89 352.61 342.99C353.16 344.09 351.5 347.34 351.5 347.34C351.5 347.34 350.5 348.05 348.05 347.48C345.284 346.815 342.473 346.35 339.64 346.09" fill="white"/>
</mask>
<g mask="url(#mask7_5_121)">
<path opacity="0.1" d="M337 340.37C337 340.37 338.57 339.26 341.62 340.28C344.67 341.3 348.27 345.73 349.1 345.36C349.876 344.915 350.466 344.205 350.76 343.36C351.22 342.44 352.06 341.89 352.61 342.99C353.16 344.09 351.5 347.34 351.5 347.34C351.5 347.34 350.5 348.05 348.05 347.48C345.6 346.91 338.98 345.15 337.47 345.15" fill="black"/>
</g>
<path d="M337 340.37C337 340.37 338.57 339.26 341.62 340.28C344.67 341.3 348.27 345.73 349.1 345.36C349.876 344.915 350.466 344.205 350.76 343.36C351.22 342.44 352.06 341.89 352.61 342.99C353.16 344.09 351.5 347.34 351.5 347.34C351.5 347.34 350.5 348.05 348.05 347.48C345.284 346.815 342.473 346.35 339.64 346.09" stroke="#263238" stroke-miterlimit="10" stroke-linecap="round"/>
<path d="M249.32 307.44C249.32 307.44 248.83 313.01 246.54 316.77C244.25 320.53 239.54 322 239.54 322L230.22 350.64L235.09 370C235.09 370 226.41 383.2 223 391.22C219.59 399.24 223.69 408.31 227.29 412.07C230.89 415.83 235.67 420.93 247.87 420.45C264.87 419.78 276.87 421.33 282.32 414.95C287.77 408.57 288.32 396.52 281.84 387.43C277.92 381.9 272.57 369.95 272.57 369.95L277.87 350L269.75 322C269.75 322 264.86 321.72 261.92 318.12C258.98 314.52 259.63 307.97 259.63 307.97L249.32 307.44Z" fill="white"/>
<mask id="mask8_5_121" style="mask-type:luminance" maskUnits="userSpaceOnUse" x="221" y="307" width="66" height="114">
<path d="M249.32 307.44C249.32 307.44 248.83 313.01 246.54 316.77C244.25 320.53 239.54 322 239.54 322L230.22 350.64L235.09 370C235.09 370 226.41 383.2 223 391.22C219.59 399.24 223.69 408.31 227.29 412.07C230.89 415.83 235.67 420.93 247.87 420.45C264.87 419.78 276.87 421.33 282.32 414.95C287.77 408.57 288.32 396.52 281.84 387.43C277.92 381.9 272.57 369.95 272.57 369.95L277.87 350L269.75 322C269.75 322 264.86 321.72 261.92 318.12C258.98 314.52 259.63 307.97 259.63 307.97L249.32 307.44Z" fill="white"/>
</mask>
<g mask="url(#mask8_5_121)">
<path opacity="0.1" d="M249.32 307.44C249.32 307.44 248.83 313.01 246.54 316.77C244.25 320.53 239.54 322 239.54 322L230.22 350.64L235.09 370C235.09 370 226.41 383.2 223 391.22C219.59 399.24 223.69 408.31 227.29 412.07C230.89 415.83 235.67 420.93 247.87 420.45C264.87 419.78 276.87 421.33 282.32 414.95C287.77 408.57 288.32 396.52 281.84 387.43C277.92 381.9 272.57 369.95 272.57 369.95L277.87 350L269.75 322C269.75 322 264.86 321.72 261.92 318.12C258.98 314.52 259.63 307.97 259.63 307.97L249.32 307.44Z" fill="black"/>
</g>
<path d="M249.32 307.44C249.32 307.44 248.83 313.01 246.54 316.77C244.25 320.53 239.54 322 239.54 322L230.22 350.64L235.09 370C235.09 370 226.41 383.2 223 391.22C219.59 399.24 223.69 408.31 227.29 412.07C230.89 415.83 235.67 420.93 247.87 420.45C264.87 419.78 276.87 421.33 282.32 414.95C287.77 408.57 288.32 396.52 281.84 387.43C277.92 381.9 272.57 369.95 272.57 369.95L277.87 350L269.75 322C269.75 322 264.86 321.72 261.92 318.12C258.98 314.52 259.63 307.97 259.63 307.97L249.32 307.44Z" stroke="#263238" stroke-miterlimit="10" stroke-linecap="round"/>
<path d="M277.87 350L269.75 322C268.936 321.943 268.129 321.809 267.34 321.6C268.28 328.11 267.16 331.37 267.16 331.37C266.999 332.798 266.498 334.168 265.7 335.363C264.901 336.558 263.828 337.545 262.57 338.24C258.16 340.86 249.81 341.35 244.57 337.1C240.57 333.89 241.32 325.1 241.91 320.97C241.138 321.383 240.332 321.728 239.5 322L230.18 350.64L235.09 370H272.55L277.87 350Z" fill="#263238" stroke="#263238" stroke-miterlimit="10" stroke-linecap="round"/>
<path d="M241.39 294.45C241.39 294.45 238.39 290.53 237.33 293.45C236.27 296.37 241.54 298.96 241.54 298.96L241.39 294.45Z" fill="white"/>
<mask id="mask9_5_121" style="mask-type:luminance" maskUnits="userSpaceOnUse" x="237" y="292" width="5" height="7">
<path d="M241.39 294.45C241.39 294.45 238.39 290.53 237.33 293.45C236.27 296.37 241.54 298.96 241.54 298.96L241.39 294.45Z" fill="white"/>
</mask>
<g mask="url(#mask9_5_121)">
<path opacity="0.1" d="M241.39 294.45C241.39 294.45 238.39 290.53 237.33 293.45C236.27 296.37 241.54 298.96 241.54 298.96L241.39 294.45Z" fill="black"/>
</g>
<path d="M241.39 294.45C241.39 294.45 238.39 290.53 237.33 293.45C236.27 296.37 241.54 298.96 241.54 298.96L241.39 294.45Z" stroke="#263238" stroke-miterlimit="10" stroke-linecap="round"/>
<path d="M267.92 294.45C267.92 294.45 270.97 290.53 271.98 293.45C272.99 296.37 267.78 298.96 267.78 298.96L267.92 294.45Z" fill="white"/>
<mask id="mask10_5_121" style="mask-type:luminance" maskUnits="userSpaceOnUse" x="267" y="292" width="6" height="7">
<path d="M267.92 294.45C267.92 294.45 270.97 290.53 271.98 293.45C272.99 296.37 267.78 298.96 267.78 298.96L267.92 294.45Z" fill="white"/>
</mask>
<g mask="url(#mask10_5_121)">
<path opacity="0.1" d="M267.92 294.45C267.92 294.45 270.97 290.53 271.98 293.45C272.99 296.37 267.78 298.96 267.78 298.96L267.92 294.45Z" fill="black"/>
</g>
<path d="M267.92 294.45C267.92 294.45 270.97 290.53 271.98 293.45C272.99 296.37 267.78 298.96 267.78 298.96L267.92 294.45Z" stroke="#263238" stroke-miterlimit="10" stroke-linecap="round"/>
<path d="M254.79 311.35C251.3 311.35 247.952 309.963 245.484 307.496C243.016 305.028 241.63 301.68 241.63 298.19V278C241.629 277.356 241.754 276.717 242 276.122C242.246 275.526 242.606 274.985 243.062 274.529C243.517 274.073 244.057 273.711 244.653 273.464C245.248 273.217 245.886 273.09 246.53 273.09H263C263.652 273.078 264.3 273.196 264.907 273.438C265.513 273.679 266.065 274.039 266.53 274.496C266.996 274.953 267.365 275.498 267.618 276.1C267.87 276.702 268 277.348 268 278V298.22C267.995 299.95 267.649 301.661 266.982 303.257C266.315 304.853 265.341 306.302 264.114 307.521C262.888 308.74 261.433 309.706 259.833 310.363C258.233 311.02 256.519 311.355 254.79 311.35Z" fill="white"/>
<mask id="mask11_5_121" style="mask-type:luminance" maskUnits="userSpaceOnUse" x="241" y="273" width="27" height="39">
<path d="M254.79 311.35C251.3 311.35 247.952 309.963 245.484 307.496C243.016 305.028 241.63 301.68 241.63 298.19V278C241.629 277.356 241.754 276.717 242 276.122C242.246 275.526 242.606 274.985 243.062 274.529C243.517 274.073 244.057 273.711 244.653 273.464C245.248 273.217 245.886 273.09 246.53 273.09H263C263.652 273.078 264.3 273.196 264.907 273.438C265.513 273.679 266.065 274.039 266.53 274.496C266.996 274.953 267.365 275.498 267.618 276.1C267.87 276.702 268 277.348 268 278V298.22C267.995 299.95 267.649 301.661 266.982 303.257C266.315 304.853 265.341 306.302 264.114 307.521C262.888 308.74 261.433 309.706 259.833 310.363C258.233 311.02 256.519 311.355 254.79 311.35Z" fill="white"/>
</mask>
<g mask="url(#mask11_5_121)">
<path opacity="0.1" d="M254.79 311.35C251.3 311.35 247.952 309.963 245.484 307.496C243.016 305.028 241.63 301.68 241.63 298.19V278C241.629 277.356 241.754 276.717 242 276.122C242.246 275.526 242.606 274.985 243.062 274.529C243.517 274.073 244.057 273.711 244.653 273.464C245.248 273.217 245.886 273.09 246.53 273.09H263C263.652 273.078 264.3 273.196 264.907 273.438C265.513 273.679 266.065 274.039 266.53 274.496C266.996 274.953 267.365 275.498 267.618 276.1C267.87 276.702 268 277.348 268 278V298.22C267.995 299.95 267.649 301.661 266.982 303.257C266.315 304.853 265.341 306.302 264.114 307.521C262.888 308.74 261.433 309.706 259.833 310.363C258.233 311.02 256.519 311.355 254.79 311.35Z" fill="black"/>
</g>
<path d="M254.79 311.35C251.3 311.35 247.952 309.963 245.484 307.496C243.016 305.028 241.63 301.68 241.63 298.19V278C241.629 277.356 241.754 276.717 242 276.122C242.246 275.526 242.606 274.985 243.062 274.529C243.517 274.073 244.057 273.711 244.653 273.464C245.248 273.217 245.886 273.09 246.53 273.09H263C263.652 273.078 264.3 273.196 264.907 273.438C265.513 273.679 266.065 274.039 266.53 274.496C266.996 274.953 267.365 275.498 267.618 276.1C267.87 276.702 268 277.348 268 278V298.22C267.995 299.95 267.649 301.661 266.982 303.257C266.315 304.853 265.341 306.302 264.114 307.521C262.888 308.74 261.433 309.706 259.833 310.363C258.233 311.02 256.519 311.355 254.79 311.35Z" stroke="#263238" stroke-miterlimit="10" stroke-linecap="round"/>
<path d="M245 289.23C245.903 289.829 246.962 290.148 248.045 290.148C249.128 290.148 250.187 289.829 251.09 289.23" stroke="#263238" stroke-miterlimit="10" stroke-linecap="round"/>
<path d="M258.64 289.23C259.541 289.829 260.598 290.148 261.68 290.148C262.762 290.148 263.819 289.829 264.72 289.23" stroke="#263238" stroke-miterlimit="10" stroke-linecap="round"/>
<path d="M256.03 287.06L256.9 295.46H253.42" stroke="#263238" stroke-miterlimit="10" stroke-linecap="round"/>
<path d="M253.56 300.24H257.04" stroke="#263238" stroke-miterlimit="10" stroke-linecap="round"/>
<path d="M254.92 273.06H246.53C245.886 273.06 245.248 273.187 244.653 273.434C244.057 273.681 243.517 274.043 243.062 274.499C242.606 274.955 242.246 275.496 242 276.092C241.754 276.687 241.629 277.326 241.63 277.97V287.97C247 283.3 253.25 275.27 254.92 273.06Z" fill="#263238" stroke="#263238" stroke-miterlimit="10"/>
<path d="M268 288.35V278C268 276.698 267.483 275.449 266.562 274.528C265.641 273.607 264.392 273.09 263.09 273.09H255.58C257.31 278.57 264 285 268 288.35Z" fill="#263238" stroke="#263238" stroke-miterlimit="10"/>
<path d="M244.43 285.32C244.43 285.32 246 282.56 251 283" stroke="#263238" stroke-width="2" stroke-miterlimit="10" stroke-linecap="round"/>
<path d="M257.62 283C258.95 282.445 260.432 282.374 261.809 282.798C263.186 283.221 264.372 284.114 265.16 285.32" stroke="#263238" stroke-width="2" stroke-miterlimit="10" stroke-linecap="round"/>
<path d="M223 391.22C219.56 399.22 223.69 408.31 227.29 412.07C230.89 415.83 235.67 420.93 247.87 420.45C264.87 419.78 276.87 421.33 282.32 414.95C287.77 408.57 288.32 396.52 281.84 387.43C280.375 385.278 279.039 383.041 277.84 380.73H228.45C226.436 384.121 224.617 387.623 223 391.22Z" fill="#263238" stroke="#263238" stroke-miterlimit="10" stroke-linecap="round"/>
<path d="M249.76 407.45C241.15 398.52 225.52 394.05 217.86 392.77C210.2 391.49 196.17 383.77 196.17 383.77C196.17 383.77 187.87 383.49 188.51 393.38C189.15 403.27 213.07 414.76 222.33 419.86C226.489 422.207 231.151 423.522 235.923 423.696C240.696 423.87 245.441 422.898 249.76 420.86" fill="#263238"/>
<path d="M249.76 407.45C241.15 398.52 225.52 394.05 217.86 392.77C210.2 391.49 196.17 383.77 196.17 383.77C196.17 383.77 187.87 383.49 188.51 393.38C189.15 403.27 213.07 414.76 222.33 419.86C226.489 422.207 231.151 423.522 235.923 423.696C240.696 423.87 245.441 422.898 249.76 420.86" stroke="#263238" stroke-miterlimit="10" stroke-linecap="round"/>
<path d="M255.15 407.77C263.76 398.84 279.39 394.37 287.05 393.09C294.71 391.81 306.62 385.29 306.62 385.29C306.62 385.29 317.04 383.84 316.4 393.73C315.76 403.62 291.84 415.1 282.58 420.21C278.42 422.554 273.759 423.868 268.986 424.042C264.214 424.216 259.47 423.245 255.15 421.21" fill="#263238"/>
<path d="M255.15 407.77C263.76 398.84 279.39 394.37 287.05 393.09C294.71 391.81 306.62 385.29 306.62 385.29C306.62 385.29 317.04 383.84 316.4 393.73C315.76 403.62 291.84 415.1 282.58 420.21C278.42 422.554 273.759 423.868 268.986 424.042C264.214 424.216 259.47 423.245 255.15 421.21" stroke="#263238" stroke-miterlimit="10" stroke-linecap="round"/>
<path d="M291.09 423.38C291.09 423.38 292.27 422.6 291.68 420.63C291.09 418.66 287.94 420.23 285.77 420.23C283.6 420.23 275.33 419.44 271.4 419.05C268.03 418.71 262.52 418.81 260.99 418.84C261.212 421.263 260.715 423.698 259.56 425.84L260.33 425.92C267.03 426.58 269.94 426.71 271.99 427.14C275.73 427.93 279.86 431.08 283.99 430.89C288.12 430.7 291.87 427.89 291.87 426.16C291.911 425.174 291.638 424.201 291.09 423.38Z" fill="white"/>
<mask id="mask12_5_121" style="mask-type:luminance" maskUnits="userSpaceOnUse" x="259" y="418" width="33" height="13">
<path d="M291.09 423.38C291.09 423.38 292.27 422.6 291.68 420.63C291.09 418.66 287.94 420.23 285.77 420.23C283.6 420.23 275.33 419.44 271.4 419.05C268.03 418.71 262.52 418.81 260.99 418.84C261.212 421.263 260.715 423.698 259.56 425.84L260.33 425.92C267.03 426.58 269.94 426.71 271.99 427.14C275.73 427.93 279.86 431.08 283.99 430.89C288.12 430.7 291.87 427.89 291.87 426.16C291.911 425.174 291.638 424.201 291.09 423.38Z" fill="white"/>
</mask>
<g mask="url(#mask12_5_121)">
<path opacity="0.1" d="M291.09 423.38C291.09 423.38 292.27 422.6 291.68 420.63C291.09 418.66 287.94 420.23 285.77 420.23C283.6 420.23 275.33 419.44 271.4 419.05C268.03 418.71 262.52 418.81 260.99 418.84C261.212 421.263 260.715 423.698 259.56 425.84L260.33 425.92C267.03 426.58 269.94 426.71 271.99 427.14C275.73 427.93 279.86 431.08 283.99 430.89C288.12 430.7 291.87 427.89 291.87 426.16C291.911 425.174 291.638 424.201 291.09 423.38Z" fill="black"/>
</g>
<path d="M291.09 423.38C291.09 423.38 292.27 422.6 291.68 420.63C291.09 418.66 287.94 420.23 285.77 420.23C283.6 420.23 275.33 419.44 271.4 419.05C268.03 418.71 262.52 418.81 260.99 418.84C261.212 421.263 260.715 423.698 259.56 425.84L260.33 425.92C267.03 426.58 269.94 426.71 271.99 427.14C275.73 427.93 279.86 431.08 283.99 430.89C288.12 430.7 291.87 427.89 291.87 426.16C291.911 425.174 291.638 424.201 291.09 423.38Z" stroke="#263238" stroke-miterlimit="10" stroke-linecap="round"/>
<path d="M291.09 423.38C289.941 423.574 288.768 423.574 287.62 423.38" stroke="#263238" stroke-miterlimit="10" stroke-linecap="round"/>
<path d="M291.88 426.14C290.352 426.257 288.818 426.257 287.29 426.14" stroke="#263238" stroke-miterlimit="10" stroke-linecap="round"/>
<path d="M286.52 427.9C287.596 428.501 288.848 428.707 290.06 428.48" stroke="#263238" stroke-miterlimit="10" stroke-linecap="round"/>
<path d="M285 429.19C286.019 429.68 287.16 429.857 288.28 429.7" stroke="#263238" stroke-miterlimit="10" stroke-linecap="round"/>
<path d="M259.56 425.82C260.715 423.678 261.212 421.243 260.99 418.82H260.56C260.56 418.82 245.4 415.7 232.8 408C220.2 400.3 204.24 388.51 196.17 383.78C188.1 379.05 180.41 386.14 181.17 393.63C181.93 401.12 188.06 405.05 199.09 409.63C210.12 414.21 230.21 421.25 240.84 423.41C246.35 424.5 253.45 425.25 259.56 425.82Z" fill="#263238" stroke="#263238" stroke-miterlimit="10" stroke-linecap="round"/>
<path d="M241.85 427.9C240.699 425.757 240.205 423.322 240.43 420.9H240.85C240.85 420.9 256.01 417.75 268.62 410.07C281.23 402.39 297.17 390.57 305.25 385.84C313.33 381.11 321 388.21 320.25 395.69C319.5 403.17 313.36 407.11 302.33 411.64C291.3 416.17 271.22 423.26 260.58 425.43C255.06 426.57 248 427.32 241.85 427.9Z" fill="#263238" stroke="#263238" stroke-miterlimit="10" stroke-linecap="round"/>
<path d="M240.43 420.92C240.43 420.92 225.84 421.49 221.21 421.17C216.58 420.85 213.07 418.61 211.8 419.73C210.53 420.85 212.12 422.6 212.12 422.6C212.12 422.6 211.64 425.31 212.92 426.75C214.2 428.19 215.92 429.46 221.37 431.06C226.82 432.66 232.37 430.4 235.37 429.6L241.82 427.9C241.82 427.9 240.34 425.61 240.43 420.92Z" fill="white"/>
<mask id="mask13_5_121" style="mask-type:luminance" maskUnits="userSpaceOnUse" x="211" y="419" width="31" height="13">
<path d="M240.43 420.92C240.43 420.92 225.84 421.49 221.21 421.17C216.58 420.85 213.07 418.61 211.8 419.73C210.53 420.85 212.12 422.6 212.12 422.6C212.12 422.6 211.64 425.31 212.92 426.75C214.2 428.19 215.92 429.46 221.37 431.06C226.82 432.66 232.37 430.4 235.37 429.6L241.82 427.9C241.82 427.9 240.34 425.61 240.43 420.92Z" fill="white"/>
</mask>
<g mask="url(#mask13_5_121)">
<path opacity="0.1" d="M240.43 420.92C240.43 420.92 225.84 421.49 221.21 421.17C216.58 420.85 213.07 418.61 211.8 419.73C210.53 420.85 212.12 422.6 212.12 422.6C212.12 422.6 211.64 425.31 212.92 426.75C214.2 428.19 215.92 429.46 221.37 431.06C226.82 432.66 232.37 430.4 235.37 429.6L241.82 427.9C241.82 427.9 240.34 425.61 240.43 420.92Z" fill="black"/>
</g>
<path d="M240.43 420.92C240.43 420.92 225.84 421.49 221.21 421.17C216.58 420.85 213.07 418.61 211.8 419.73C210.53 420.85 212.12 422.6 212.12 422.6C212.12 422.6 211.64 425.31 212.92 426.75C214.2 428.19 215.92 429.46 221.37 431.06C226.82 432.66 232.37 430.4 235.37 429.6L241.82 427.9C241.82 427.9 240.34 425.61 240.43 420.92Z" stroke="#263238" stroke-miterlimit="10" stroke-linecap="round"/>
<path d="M212.12 422.6C212.45 422.379 212.838 422.26 213.235 422.26C213.632 422.26 214.02 422.379 214.35 422.6C215.114 423.121 215.986 423.463 216.9 423.6" stroke="#263238" stroke-miterlimit="10" stroke-linecap="round"/>
<path d="M212.3 425.7C212.555 425.47 212.862 425.306 213.195 425.222C213.528 425.139 213.877 425.138 214.21 425.22C214.971 425.437 215.758 425.551 216.55 425.56" stroke="#263238" stroke-miterlimit="10" stroke-linecap="round"/>
<path d="M214.74 428.23C214.74 428.23 215.02 427.42 215.55 427.42C216.08 427.42 218.27 427.71 218.84 427.66" stroke="#263238" stroke-miterlimit="10" stroke-linecap="round"/>
<path d="M217.84 429.81C217.84 429.81 218.37 429.09 218.84 429.05C219.443 428.966 220.051 428.916 220.66 428.9" stroke="#263238" stroke-miterlimit="10" stroke-linecap="round"/>
<path d="M247.85 420.45C247.85 420.45 278.37 405.45 290.7 396.92" stroke="white" stroke-miterlimit="10" stroke-linecap="round"/>
<path d="M213.4 395C213.4 395 239.48 415.39 254.18 416.81" stroke="white" stroke-miterlimit="10" stroke-linecap="round"/>
<path d="M225.61 394.45C225.61 394.45 245.45 400.6 250.61 408.54" stroke="white" stroke-miterlimit="10" stroke-linecap="round"/>
<path d="M257.56 405.76C257.56 405.76 269.86 397.03 282.56 394.45" stroke="white" stroke-miterlimit="10" stroke-linecap="round"/>
</svg>
