<svg width="1348" height="476" viewBox="0 0 1348 476" fill="none" xmlns="http://www.w3.org/2000/svg">
<mask id="mask0_11_71" style="mask-type:luminance" maskUnits="userSpaceOnUse" x="0" y="123" width="319" height="230">
<path d="M0.119873 123.38H318.667V352.38H0.119873V123.38Z" fill="white"/>
</mask>
<g mask="url(#mask0_11_71)">
<mask id="mask1_11_71" style="mask-type:luminance" maskUnits="userSpaceOnUse" x="1" y="123" width="318" height="230">
<path d="M186.432 352.875C183.912 340.698 172.886 331.589 159.667 331.589C146.448 331.589 135.432 340.745 132.901 352.875H80.4688C66.9584 352.875 55.8959 339.677 55.8959 323.547C55.8959 307.417 66.9584 294.214 80.4688 294.214H238.865C252.375 294.214 263.438 307.411 263.438 323.542C263.438 339.672 252.375 352.875 238.865 352.875H186.432ZM238.865 182.214H80.4688C66.9584 182.214 55.8959 169.016 55.8959 152.885C55.8959 136.755 66.9584 123.552 80.4688 123.552H238.865C252.375 123.552 263.438 136.75 263.438 152.88C263.438 169.01 252.375 182.214 238.865 182.214ZM29.0938 267.547C13.7813 267.547 1.27612 254.349 1.27612 238.214C1.27612 222.078 13.797 208.885 29.0938 208.885H290.24C305.547 208.885 318.057 222.083 318.057 238.214C318.057 254.344 305.537 267.542 290.24 267.542L29.0938 267.547Z" fill="white"/>
</mask>
<g mask="url(#mask1_11_71)">
<path d="M1.27612 123.552V352.38H318.057V123.552H1.27612Z" fill="#FFFBF5"/>
</g>
</g>
<path d="M414.284 300.734C453.868 300.734 486.576 279.64 496.764 247.88L460.264 241.484C454.342 259.734 437.748 272.057 418.55 272.057C398.644 272.057 386.321 260.682 386.321 242.906C386.321 220.15 402.675 199.531 426.139 199.531C443.441 199.531 452.446 209.723 453.628 225.13L491.55 217.307C490.128 189.338 465.956 170.614 428.743 170.614C382.529 170.614 345.79 202.374 345.79 246.697C345.79 279.88 371.623 300.734 414.284 300.734Z" fill="#FFFBF5"/>
<path d="M575.921 300.734C624.27 300.734 663.614 269.921 663.614 224.656C663.614 191.708 637.541 170.614 594.645 170.614C546.296 170.614 506.952 201.426 506.952 246.932C506.952 279.88 533.02 300.734 575.921 300.734ZM579.947 272.057C559.801 272.057 547.478 261.39 547.478 243.14C547.478 219.676 564.306 199.296 590.614 199.296C610.999 199.296 623.322 209.958 623.322 227.973C623.322 252.145 605.785 272.057 579.947 272.057Z" fill="#FFFBF5"/>
<path d="M668.11 296.468H708.402L718.355 232.473C721.672 212.567 736.605 200.005 756.516 200.005C772.87 200.005 780.928 209.484 778.318 225.838L767.178 296.468H807.469L819.797 218.02C824.537 189.104 808.896 171.327 778.558 171.327C755.094 171.327 735.657 182.468 723.808 200.479H723.568L736.37 120.369H695.839L668.11 296.468Z" fill="#FFFBF5"/>
<path d="M868.853 159.005C883.78 159.005 895.395 148.338 895.395 133.88C895.395 122.739 887.337 115.39 874.775 115.39C859.842 115.39 848.233 125.822 848.233 140.755C848.233 151.656 856.29 159.005 868.853 159.005ZM826.191 296.468H866.717L885.915 174.88H845.624L826.191 296.468Z" fill="#FFFBF5"/>
<path d="M931.658 296.468H982.137L1055.38 174.88H1012.95L961.991 266.604H961.517L939.476 174.88H897.288L931.658 296.468Z" fill="#FFFBF5"/>
<path d="M1126.71 300.734C1153.73 300.734 1180.27 291.255 1195.21 276.796L1180.98 257.124C1170.08 267.317 1150.41 274.187 1131.21 274.187C1108.93 274.187 1093.05 264.473 1092.34 246.223H1196.63C1199.23 240.77 1201.13 230.817 1201.13 223.468C1201.13 191.473 1176.24 170.614 1135.95 170.614C1089.97 170.614 1051.1 202.14 1051.1 245.51C1051.1 279.166 1080.73 300.734 1126.71 300.734ZM1095.18 226.077C1099.69 207.827 1115.1 195.973 1133.58 195.973C1151.12 195.973 1162.5 207.354 1160.84 226.077H1095.18Z" fill="#FFFBF5"/>
</svg>
