<svg width="1348" height="476" viewBox="0 0 1348 476" fill="none" xmlns="http://www.w3.org/2000/svg">
<mask id="mask0_11_2" style="mask-type:luminance" maskUnits="userSpaceOnUse" x="0" y="123" width="319" height="230">
<path d="M0.119751 123.411H318.667V352.411H0.119751V123.411Z" fill="white"/>
</mask>
<g mask="url(#mask0_11_2)">
<mask id="mask1_11_2" style="mask-type:luminance" maskUnits="userSpaceOnUse" x="1" y="123" width="318" height="230">
<path d="M186.432 352.906C183.911 340.729 172.885 331.62 159.667 331.62C146.448 331.62 135.432 340.776 132.901 352.906H80.4687C66.9583 352.906 55.8958 339.708 55.8958 323.578C55.8958 307.448 66.9583 294.245 80.4687 294.245H238.865C252.375 294.245 263.437 307.443 263.437 323.573C263.437 339.703 252.375 352.906 238.865 352.906H186.432ZM238.865 182.245H80.4687C66.9583 182.245 55.8958 169.047 55.8958 152.917C55.8958 136.786 66.9583 123.583 80.4687 123.583H238.865C252.375 123.583 263.437 136.781 263.437 152.911C263.437 169.042 252.375 182.245 238.865 182.245ZM29.0937 267.578C13.7812 267.578 1.276 254.38 1.276 238.245C1.276 222.109 13.7968 208.917 29.0937 208.917H290.24C305.547 208.917 318.057 222.115 318.057 238.245C318.057 254.375 305.536 267.573 290.24 267.573L29.0937 267.578Z" fill="white"/>
</mask>
<g mask="url(#mask1_11_2)">
<path d="M1.276 123.583V352.411H318.057V123.583H1.276Z" fill="#0E0E0E"/>
</g>
</g>
<path d="M414.284 300.766C453.868 300.766 486.576 279.672 496.764 247.911L460.264 241.516C454.342 259.766 437.748 272.089 418.55 272.089C398.644 272.089 386.321 260.714 386.321 242.937C386.321 220.182 402.675 199.562 426.139 199.562C443.441 199.562 452.446 209.755 453.628 225.161L491.55 217.339C490.128 189.37 465.956 170.646 428.743 170.646C382.529 170.646 345.79 202.406 345.79 246.729C345.79 279.911 371.623 300.766 414.284 300.766Z" fill="#0E0E0E"/>
<path d="M575.921 300.766C624.27 300.766 663.614 269.953 663.614 224.687C663.614 191.74 637.541 170.646 594.645 170.646C546.296 170.646 506.952 201.458 506.952 246.964C506.952 279.911 533.02 300.766 575.921 300.766ZM579.947 272.089C559.801 272.089 547.478 261.422 547.478 243.172C547.478 219.708 564.306 199.328 590.614 199.328C610.999 199.328 623.322 209.99 623.322 228.005C623.322 252.177 605.785 272.089 579.947 272.089Z" fill="#0E0E0E"/>
<path d="M668.11 296.5H708.402L718.355 232.505C721.672 212.599 736.605 200.036 756.516 200.036C772.87 200.036 780.928 209.516 778.318 225.87L767.178 296.5H807.469L819.797 218.052C824.537 189.135 808.896 171.359 778.558 171.359C755.094 171.359 735.657 182.5 723.808 200.51H723.568L736.37 120.401H695.839L668.11 296.5Z" fill="#0E0E0E"/>
<path d="M868.853 159.036C883.78 159.036 895.395 148.37 895.395 133.911C895.395 122.771 887.337 115.422 874.775 115.422C859.843 115.422 848.233 125.854 848.233 140.786C848.233 151.688 856.29 159.036 868.853 159.036ZM826.191 296.5H866.718L885.915 174.911H845.624L826.191 296.5Z" fill="#0E0E0E"/>
<path d="M931.658 296.5H982.137L1055.38 174.911H1012.95L961.991 266.635H961.517L939.476 174.911H897.288L931.658 296.5Z" fill="#0E0E0E"/>
<path d="M1126.71 300.766C1153.73 300.766 1180.27 291.286 1195.21 276.828L1180.98 257.156C1170.08 267.349 1150.41 274.219 1131.21 274.219C1108.93 274.219 1093.05 264.505 1092.34 246.255H1196.63C1199.23 240.802 1201.13 230.849 1201.13 223.5C1201.13 191.505 1176.24 170.646 1135.95 170.646C1089.97 170.646 1051.1 202.172 1051.1 245.542C1051.1 279.198 1080.73 300.766 1126.71 300.766ZM1095.18 226.109C1099.69 207.859 1115.1 196.005 1133.58 196.005C1151.12 196.005 1162.5 207.385 1160.84 226.109H1095.18Z" fill="#0E0E0E"/>
</svg>
