<svg width="469" height="469" viewBox="0 0 469 469" fill="none" xmlns="http://www.w3.org/2000/svg">
<path d="M156.824 67.461C156.824 67.461 85.752 103.668 50.3049 159.46C14.8579 215.252 17.6625 287.028 60.7355 340.306C103.808 393.585 186.137 386.587 255.07 420.337C324.004 454.086 400.057 447.135 432.653 375.632C465.248 304.128 416.097 277.404 407.655 194.654C399.213 111.903 324.614 -9.26746 156.824 67.461Z" fill="#9D4EDD"/>
<path opacity="0.7" d="M156.824 67.461C156.824 67.461 85.752 103.668 50.3049 159.46C14.8579 215.252 17.6625 287.028 60.7355 340.306C103.808 393.585 186.137 386.587 255.07 420.337C324.004 454.086 400.057 447.135 432.653 375.632C465.248 304.128 416.097 277.404 407.655 194.654C399.213 111.903 324.614 -9.26746 156.824 67.461Z" fill="white"/>
<path d="M160.445 115.374H79.8895V188.529H160.445V115.374Z" fill="#9D4EDD"/>
<mask id="mask0_71_517" style="mask-type:luminance" maskUnits="userSpaceOnUse" x="79" y="115" width="82" height="74">
<path d="M160.445 115.374H79.8895V188.529H160.445V115.374Z" fill="white"/>
</mask>
<g mask="url(#mask0_71_517)">
<path opacity="0.37" d="M160.445 115.374H79.8895V188.529H160.445V115.374Z" fill="black"/>
</g>
<path d="M137.295 115.374H79.8895V188.529H137.295V115.374Z" fill="#9D4EDD"/>
<path d="M114.417 115.374H102.083V135.794H114.417V115.374Z" fill="white"/>
<path d="M131.864 141.76H117.569V149.058H131.864V141.76Z" fill="white"/>
<path d="M125.321 167.752L110.588 164.106L108.416 172.884L123.148 176.53L125.321 167.752Z" fill="white"/>
<path d="M220.477 115.374H139.921V188.529H220.477V115.374Z" fill="#9D4EDD"/>
<mask id="mask1_71_517" style="mask-type:luminance" maskUnits="userSpaceOnUse" x="139" y="115" width="82" height="74">
<path d="M220.477 115.374H139.921V188.529H220.477V115.374Z" fill="white"/>
</mask>
<g mask="url(#mask1_71_517)">
<path opacity="0.37" d="M220.477 115.374H139.921V188.529H220.477V115.374Z" fill="black"/>
</g>
<path d="M197.327 115.374H139.921V188.529H197.327V115.374Z" fill="#9D4EDD"/>
<path d="M174.449 115.374H162.115V135.794H174.449V115.374Z" fill="white"/>
<path d="M191.896 141.76H177.601V149.058H191.896V141.76Z" fill="white"/>
<path d="M185.349 167.756L170.616 164.11L168.444 172.888L183.177 176.534L185.349 167.756Z" fill="white"/>
<path d="M280.509 115.374H199.953V188.529H280.509V115.374Z" fill="#9D4EDD"/>
<mask id="mask2_71_517" style="mask-type:luminance" maskUnits="userSpaceOnUse" x="199" y="115" width="82" height="74">
<path d="M280.509 115.374H199.953V188.529H280.509V115.374Z" fill="white"/>
</mask>
<g mask="url(#mask2_71_517)">
<path opacity="0.37" d="M280.509 115.374H199.953V188.529H280.509V115.374Z" fill="black"/>
</g>
<path d="M257.359 115.374H199.953V188.529H257.359V115.374Z" fill="#9D4EDD"/>
<path d="M234.481 115.374H222.147V135.794H234.481V115.374Z" fill="white"/>
<path d="M251.928 141.76H237.633V149.058H251.928V141.76Z" fill="white"/>
<path d="M245.377 167.761L230.644 164.115L228.472 172.892L243.205 176.538L245.377 167.761Z" fill="white"/>
<path d="M340.541 115.374H259.985V188.529H340.541V115.374Z" fill="#9D4EDD"/>
<mask id="mask3_71_517" style="mask-type:luminance" maskUnits="userSpaceOnUse" x="259" y="115" width="82" height="74">
<path d="M340.541 115.374H259.985V188.529H340.541V115.374Z" fill="white"/>
</mask>
<g mask="url(#mask3_71_517)">
<path opacity="0.37" d="M340.541 115.374H259.985V188.529H340.541V115.374Z" fill="black"/>
</g>
<path d="M317.391 115.374H259.985V188.529H317.391V115.374Z" fill="#9D4EDD"/>
<path d="M294.513 115.374H282.179V135.794H294.513V115.374Z" fill="white"/>
<path d="M311.96 141.76H297.665V149.058H311.96V141.76Z" fill="white"/>
<path d="M305.414 167.765L290.682 164.119L288.51 172.896L303.242 176.542L305.414 167.765Z" fill="white"/>
<path d="M160.445 215.74H79.8895V288.895H160.445V215.74Z" fill="#9D4EDD"/>
<mask id="mask4_71_517" style="mask-type:luminance" maskUnits="userSpaceOnUse" x="79" y="215" width="82" height="74">
<path d="M160.445 215.74H79.8895V288.895H160.445V215.74Z" fill="white"/>
</mask>
<g mask="url(#mask4_71_517)">
<path opacity="0.37" d="M160.445 215.74H79.8895V288.895H160.445V215.74Z" fill="black"/>
</g>
<path d="M137.295 215.74H79.8895V288.895H137.295V215.74Z" fill="#9D4EDD"/>
<path d="M114.417 215.74H102.083V236.16H114.417V215.74Z" fill="white"/>
<path d="M131.864 242.126H117.569V249.424H131.864V242.126Z" fill="white"/>
<path d="M125.307 268.115L110.575 264.469L108.402 273.246L123.135 276.892L125.307 268.115Z" fill="white"/>
<path d="M220.477 215.74H139.921V288.895H220.477V215.74Z" fill="#9D4EDD"/>
<mask id="mask5_71_517" style="mask-type:luminance" maskUnits="userSpaceOnUse" x="139" y="215" width="82" height="74">
<path d="M220.477 215.74H139.921V288.895H220.477V215.74Z" fill="white"/>
</mask>
<g mask="url(#mask5_71_517)">
<path opacity="0.37" d="M220.477 215.74H139.921V288.895H220.477V215.74Z" fill="black"/>
</g>
<path d="M197.327 215.74H139.921V288.895H197.327V215.74Z" fill="#9D4EDD"/>
<path d="M174.449 215.74H162.115V236.16H174.449V215.74Z" fill="white"/>
<path d="M191.896 242.126H177.601V249.424H191.896V242.126Z" fill="white"/>
<path d="M185.345 268.119L170.612 264.473L168.44 273.251L183.172 276.897L185.345 268.119Z" fill="white"/>
<path d="M280.509 215.74H199.953V288.895H280.509V215.74Z" fill="#9D4EDD"/>
<mask id="mask6_71_517" style="mask-type:luminance" maskUnits="userSpaceOnUse" x="199" y="215" width="82" height="74">
<path d="M280.509 215.74H199.953V288.895H280.509V215.74Z" fill="white"/>
</mask>
<g mask="url(#mask6_71_517)">
<path opacity="0.37" d="M280.509 215.74H199.953V288.895H280.509V215.74Z" fill="black"/>
</g>
<path d="M257.359 215.74H199.953V288.895H257.359V215.74Z" fill="#9D4EDD"/>
<path d="M234.481 215.74H222.147V236.16H234.481V215.74Z" fill="white"/>
<path d="M251.928 242.126H237.633V249.424H251.928V242.126Z" fill="white"/>
<path d="M245.373 268.123L230.64 264.478L228.468 273.255L243.201 276.901L245.373 268.123Z" fill="white"/>
<path d="M340.541 215.74H259.985V288.895H340.541V215.74Z" fill="#9D4EDD"/>
<mask id="mask7_71_517" style="mask-type:luminance" maskUnits="userSpaceOnUse" x="259" y="215" width="82" height="74">
<path d="M340.541 215.74H259.985V288.895H340.541V215.74Z" fill="white"/>
</mask>
<g mask="url(#mask7_71_517)">
<path opacity="0.37" d="M340.541 215.74H259.985V288.895H340.541V215.74Z" fill="black"/>
</g>
<path d="M317.391 215.74H259.985V288.895H317.391V215.74Z" fill="#9D4EDD"/>
<path d="M294.513 215.74H282.179V236.16H294.513V215.74Z" fill="white"/>
<path d="M311.96 242.126H297.665V249.424H311.96V242.126Z" fill="white"/>
<path d="M305.401 268.128L290.668 264.482L288.496 273.259L303.229 276.905L305.401 268.128Z" fill="white"/>
<path d="M160.445 316.106H79.8895V389.261H160.445V316.106Z" fill="#9D4EDD"/>
<mask id="mask8_71_517" style="mask-type:luminance" maskUnits="userSpaceOnUse" x="79" y="316" width="82" height="74">
<path d="M160.445 316.106H79.8895V389.261H160.445V316.106Z" fill="white"/>
</mask>
<g mask="url(#mask8_71_517)">
<path opacity="0.37" d="M160.445 316.106H79.8895V389.261H160.445V316.106Z" fill="black"/>
</g>
<path d="M137.295 316.106H79.8895V389.261H137.295V316.106Z" fill="#9D4EDD"/>
<path d="M114.417 316.106H102.083V336.526H114.417V316.106Z" fill="white"/>
<path d="M131.864 342.492H117.569V349.79H131.864V342.492Z" fill="white"/>
<path d="M125.303 368.478L110.571 364.832L108.398 373.609L123.131 377.255L125.303 368.478Z" fill="white"/>
<path d="M220.477 316.106H139.921V389.261H220.477V316.106Z" fill="#9D4EDD"/>
<mask id="mask9_71_517" style="mask-type:luminance" maskUnits="userSpaceOnUse" x="139" y="316" width="82" height="74">
<path d="M220.477 316.106H139.921V389.261H220.477V316.106Z" fill="white"/>
</mask>
<g mask="url(#mask9_71_517)">
<path opacity="0.37" d="M220.477 316.106H139.921V389.261H220.477V316.106Z" fill="black"/>
</g>
<path d="M197.327 316.106H139.921V389.261H197.327V316.106Z" fill="#9D4EDD"/>
<path d="M174.449 316.106H162.115V336.526H174.449V316.106Z" fill="white"/>
<path d="M191.896 342.492H177.601V349.79H191.896V342.492Z" fill="white"/>
<path d="M185.34 368.482L170.608 364.836L168.436 373.614L183.168 377.26L185.34 368.482Z" fill="white"/>
<path d="M280.509 316.106H199.953V389.261H280.509V316.106Z" fill="#9D4EDD"/>
<mask id="mask10_71_517" style="mask-type:luminance" maskUnits="userSpaceOnUse" x="199" y="316" width="82" height="74">
<path d="M280.509 316.106H199.953V389.261H280.509V316.106Z" fill="white"/>
</mask>
<g mask="url(#mask10_71_517)">
<path opacity="0.37" d="M280.509 316.106H199.953V389.261H280.509V316.106Z" fill="black"/>
</g>
<path d="M257.359 316.106H199.953V389.261H257.359V316.106Z" fill="#9D4EDD"/>
<path d="M234.481 316.106H222.147V336.526H234.481V316.106Z" fill="white"/>
<path d="M251.928 342.492H237.633V349.79H251.928V342.492Z" fill="white"/>
<path d="M245.369 368.486L230.636 364.84L228.464 373.618L243.196 377.264L245.369 368.486Z" fill="white"/>
<path d="M340.541 316.106H259.985V389.261H340.541V316.106Z" fill="#9D4EDD"/>
<mask id="mask11_71_517" style="mask-type:luminance" maskUnits="userSpaceOnUse" x="259" y="316" width="82" height="74">
<path d="M340.541 316.106H259.985V389.261H340.541V316.106Z" fill="white"/>
</mask>
<g mask="url(#mask11_71_517)">
<path opacity="0.37" d="M340.541 316.106H259.985V389.261H340.541V316.106Z" fill="black"/>
</g>
<path d="M317.391 316.106H259.985V389.261H317.391V316.106Z" fill="#9D4EDD"/>
<path d="M294.513 316.106H282.179V336.526H294.513V316.106Z" fill="white"/>
<path d="M311.96 342.492H297.665V349.79H311.96V342.492Z" fill="white"/>
<path d="M305.397 368.491L290.664 364.845L288.492 373.622L303.224 377.268L305.397 368.491Z" fill="white"/>
<path d="M347.998 88.4909H66.598V101.623H347.998V88.4909Z" fill="#A3A3A3"/>
<path d="M347.998 186.043H66.598V199.175H347.998V186.043Z" fill="#A3A3A3"/>
<path d="M347.998 283.586H66.598V296.718H347.998V283.586Z" fill="#A3A3A3"/>
<path d="M347.998 381.138H66.598V394.27H347.998V381.138Z" fill="#A3A3A3"/>
<path d="M401.464 33.1489H389.27V431.799H401.464V33.1489Z" fill="#7A7A7A"/>
<path d="M141.638 33.1489H129.444V431.799H141.638V33.1489Z" fill="#7A7A7A"/>
<path d="M398.65 88.4909H341.432V101.623H398.65V88.4909Z" fill="#757575"/>
<path d="M398.65 186.043H341.432V199.175H398.65V186.043Z" fill="#757575"/>
<path d="M398.65 283.586H341.432V296.718H398.65V283.586Z" fill="#757575"/>
<path d="M398.65 381.138H341.432V394.27H398.65V381.138Z" fill="#757575"/>
<path d="M77.854 33.1489H65.66V431.799H77.854V33.1489Z" fill="#A3A3A3"/>
<path d="M212.926 33.1489H200.732V431.799H212.926V33.1489Z" fill="#A3A3A3"/>
<path d="M347.998 33.1489H335.804V431.799H347.998V33.1489Z" fill="#A3A3A3"/>
<path d="M323.357 171.701H227.662V258.597H323.357V171.701Z" fill="#9D4EDD"/>
<mask id="mask12_71_517" style="mask-type:luminance" maskUnits="userSpaceOnUse" x="227" y="171" width="97" height="88">
<path d="M323.357 171.701H227.662V258.597H323.357V171.701Z" fill="white"/>
</mask>
<g mask="url(#mask12_71_517)">
<path opacity="0.37" d="M323.357 171.701H227.662V258.597H323.357V171.701Z" fill="black"/>
</g>
<path d="M323.357 171.701H227.662V258.597H323.357V171.701Z" stroke="#263238" stroke-linecap="round" stroke-linejoin="round"/>
<path d="M295.864 171.701H227.662V258.597H295.864V171.701Z" fill="#9D4EDD" stroke="#263238" stroke-linecap="round" stroke-linejoin="round"/>
<path d="M268.671 171.701H254.02V195.958H268.671V171.701Z" fill="white" stroke="#263238" stroke-linecap="round" stroke-linejoin="round"/>
<path d="M289.411 203.04H272.423V211.707H289.411V203.04Z" fill="white"/>
<path d="M281.613 233.922L264.113 229.591L261.531 240.026L279.031 244.357L281.613 233.922Z" fill="white"/>
<path d="M265.801 344.893H170.106V431.79H265.801V344.893Z" fill="#9D4EDD"/>
<mask id="mask13_71_517" style="mask-type:luminance" maskUnits="userSpaceOnUse" x="170" y="344" width="96" height="88">
<path d="M265.801 344.893H170.106V431.79H265.801V344.893Z" fill="white"/>
</mask>
<g mask="url(#mask13_71_517)">
<path opacity="0.37" d="M265.801 344.893H170.106V431.79H265.801V344.893Z" fill="black"/>
</g>
<path d="M265.801 344.893H170.106V431.79H265.801V344.893Z" stroke="#263238" stroke-linecap="round" stroke-linejoin="round"/>
<path d="M238.308 344.893H170.106V431.79H238.308V344.893Z" fill="#9D4EDD" stroke="#263238" stroke-linecap="round" stroke-linejoin="round"/>
<path d="M211.116 344.893H196.464V369.15H211.116V344.893Z" fill="white" stroke="#263238" stroke-linecap="round" stroke-linejoin="round"/>
<path d="M193.725 416.106H176.738V424.773H193.725V416.106Z" fill="white"/>
<path d="M229.401 376.141L211.901 371.81L209.318 382.245L226.819 386.576L229.401 376.141Z" fill="white"/>
<path d="M336.17 344.893H240.475V431.79H336.17V344.893Z" fill="#9D4EDD"/>
<mask id="mask14_71_517" style="mask-type:luminance" maskUnits="userSpaceOnUse" x="240" y="344" width="97" height="88">
<path d="M336.17 344.893H240.475V431.79H336.17V344.893Z" fill="white"/>
</mask>
<g mask="url(#mask14_71_517)">
<path opacity="0.37" d="M336.17 344.893H240.475V431.79H336.17V344.893Z" fill="black"/>
</g>
<path d="M336.17 344.893H240.475V431.79H336.17V344.893Z" stroke="#263238" stroke-linecap="round" stroke-linejoin="round"/>
<path d="M308.677 344.893H240.475V431.79H308.677V344.893Z" fill="#9D4EDD" stroke="#263238" stroke-linecap="round" stroke-linejoin="round"/>
<path d="M281.484 344.893H266.833V369.15H281.484V344.893Z" fill="white" stroke="#263238" stroke-linecap="round" stroke-linejoin="round"/>
<path d="M302.224 376.241H285.236V384.908H302.224V376.241Z" fill="white"/>
<path d="M264.403 370.249L246.903 365.919L244.321 376.353L261.821 380.684L264.403 370.249Z" fill="white"/>
<path d="M407.458 344.893H311.763V431.79H407.458V344.893Z" fill="#9D4EDD"/>
<mask id="mask15_71_517" style="mask-type:luminance" maskUnits="userSpaceOnUse" x="311" y="344" width="97" height="88">
<path d="M407.458 344.893H311.763V431.79H407.458V344.893Z" fill="white"/>
</mask>
<g mask="url(#mask15_71_517)">
<path opacity="0.37" d="M407.458 344.893H311.763V431.79H407.458V344.893Z" fill="black"/>
</g>
<path d="M407.458 344.893H311.763V431.79H407.458V344.893Z" stroke="#263238" stroke-linecap="round" stroke-linejoin="round"/>
<path d="M379.965 344.893H311.763V431.79H379.965V344.893Z" fill="#9D4EDD" stroke="#263238" stroke-linecap="round" stroke-linejoin="round"/>
<path d="M352.772 344.893H338.121V369.15H352.772V344.893Z" fill="white" stroke="#263238" stroke-linecap="round" stroke-linejoin="round"/>
<path d="M373.512 376.241H356.524V384.908H373.512V376.241Z" fill="white"/>
<path d="M335.686 370.256L318.186 365.925L315.603 376.36L333.104 380.691L335.686 370.256Z" fill="white"/>
<path d="M298.8 258.231H203.105V345.128H298.8V258.231Z" fill="#9D4EDD"/>
<mask id="mask16_71_517" style="mask-type:luminance" maskUnits="userSpaceOnUse" x="203" y="258" width="96" height="88">
<path d="M298.8 258.231H203.105V345.128H298.8V258.231Z" fill="white"/>
</mask>
<g mask="url(#mask16_71_517)">
<path opacity="0.37" d="M298.8 258.231H203.105V345.128H298.8V258.231Z" fill="black"/>
</g>
<path d="M298.8 258.231H203.105V345.128H298.8V258.231Z" stroke="#263238" stroke-linecap="round" stroke-linejoin="round"/>
<path d="M271.307 258.231H203.105V345.128H271.307V258.231Z" fill="#9D4EDD" stroke="#263238" stroke-linecap="round" stroke-linejoin="round"/>
<path d="M244.105 258.231H229.454V282.488H244.105V258.231Z" fill="white" stroke="#263238" stroke-linecap="round" stroke-linejoin="round"/>
<path d="M264.854 289.579H247.867V298.246H264.854V289.579Z" fill="white"/>
<path d="M227.026 283.59L209.525 279.259L206.943 289.694L224.443 294.025L227.026 283.59Z" fill="white"/>
<path d="M374.778 258.231H279.083V345.128H374.778V258.231Z" fill="#9D4EDD"/>
<mask id="mask17_71_517" style="mask-type:luminance" maskUnits="userSpaceOnUse" x="279" y="258" width="96" height="88">
<path d="M374.778 258.231H279.083V345.128H374.778V258.231Z" fill="white"/>
</mask>
<g mask="url(#mask17_71_517)">
<path opacity="0.37" d="M374.778 258.231H279.083V345.128H374.778V258.231Z" fill="black"/>
</g>
<path d="M374.778 258.231H279.083V345.128H374.778V258.231Z" stroke="#263238" stroke-linecap="round" stroke-linejoin="round"/>
<path d="M347.285 258.231H279.083V345.128H347.285V258.231Z" fill="#9D4EDD" stroke="#263238" stroke-linecap="round" stroke-linejoin="round"/>
<path d="M320.083 258.231H305.432V282.488H320.083V258.231Z" fill="white" stroke="#263238" stroke-linecap="round" stroke-linejoin="round"/>
<path d="M340.832 289.579H323.845V298.246H340.832V289.579Z" fill="white"/>
<path d="M307.22 304.14L289.72 299.809L287.137 310.244L304.638 314.575L307.22 304.14Z" fill="white"/>
<path d="M36.0192 431.79H446.863" stroke="#263238" stroke-linecap="round" stroke-linejoin="round"/>
<path d="M108.996 403.781C108.996 403.781 105.056 411.782 102.242 416.303C99.428 420.824 94.2033 426.771 94.738 432.005C95.2727 437.239 100.722 437.802 106.332 434.819C111.941 431.836 116.987 425.852 118.526 421.359C120.064 416.866 124.885 413.133 124.885 408.086C124.885 403.04 124.51 402.458 122.644 401.914C120.777 401.37 110.862 400.601 108.996 403.781Z" fill="white" stroke="#263238" stroke-linecap="round" stroke-linejoin="round"/>
<path d="M124.885 408.077C124.885 407.336 124.885 406.698 124.885 406.135C124.367 407.697 123.74 409.22 123.009 410.694C120.946 414.812 117.953 417.26 116.837 422.288C115.721 427.315 108.611 433.131 102.439 434.622C96.2669 436.114 94.935 431.077 94.935 431.077H94.7099C94.687 431.389 94.687 431.702 94.7099 432.015C95.2727 437.249 100.694 437.812 106.304 434.829C111.913 431.846 116.959 425.861 118.498 421.368C120.036 416.875 124.885 413.123 124.885 408.077Z" fill="#263238" stroke="#263238" stroke-linecap="round" stroke-linejoin="round"/>
<path d="M109.746 407.139C109.746 407.139 111.997 410.319 119.473 409.39" stroke="#263238" stroke-linecap="round" stroke-linejoin="round"/>
<path d="M109.558 409.765C111.78 411.513 114.6 412.318 117.409 412.007" stroke="#263238" stroke-linecap="round" stroke-linejoin="round"/>
<path d="M108.808 412.007C109.634 412.901 110.659 413.587 111.8 414.009C112.941 414.431 114.166 414.578 115.374 414.436" stroke="#263238" stroke-linecap="round" stroke-linejoin="round"/>
<path d="M108.058 415.187C108.058 415.187 109.371 417.804 114.417 417.241" stroke="#263238" stroke-linecap="round" stroke-linejoin="round"/>
<path d="M156.852 410.844C159.666 415.272 163.533 418.933 168.108 421.5C175.397 425.43 184.748 428.066 185.49 429.942C185.802 430.622 185.862 431.392 185.657 432.113C185.453 432.834 184.997 433.457 184.373 433.872C183.435 434.425 169.6 434.81 162.312 433.497C158.198 432.618 153.993 432.24 149.789 432.371C146.422 432.371 139.134 433.309 138.196 429.191C137.258 425.073 139.687 410.122 139.687 410.122C139.687 410.122 150.68 413.311 156.852 410.844Z" fill="white" stroke="#263238" stroke-miterlimit="10"/>
<path d="M184.336 433.881C184.819 433.562 185.202 433.112 185.441 432.584C185.68 432.057 185.765 431.472 185.686 430.898C182.784 431.606 179.834 432.101 176.86 432.38C169.356 433.131 158.166 430.701 149.376 430.326C142.923 430.054 139.396 428.563 137.98 427.803C138.005 428.273 138.065 428.74 138.158 429.201C139.096 433.318 146.384 432.38 149.752 432.38C153.956 432.249 158.161 432.627 162.274 433.506C169.562 434.81 183.398 434.435 184.336 433.881Z" fill="#263238" stroke="#263238" stroke-miterlimit="10"/>
<path d="M159.657 415.187C158.216 416.338 157.063 417.809 156.29 419.483" stroke="#263238" stroke-miterlimit="10"/>
<path d="M161.899 417.982C161.899 417.982 159.469 420.046 159.469 421.35" stroke="#263238" stroke-miterlimit="10"/>
<path d="M164.328 419.858C163.699 420.917 163.198 422.048 162.837 423.226" stroke="#263238" stroke-miterlimit="10"/>
<path d="M168.071 421.537C168.071 421.537 166.57 422.85 166.57 424.154" stroke="#263238" stroke-miterlimit="10"/>
<path d="M104.052 212.298C104.052 212.298 98.1054 240.597 98.5744 256.074C99.0434 271.551 120.148 310.009 120.148 310.009C120.148 310.009 108.892 337.68 108.423 349.874C107.954 362.068 108.911 401.323 108.911 401.323C108.911 401.323 113.601 404.043 117.85 404.043C122.099 404.043 127.174 401.905 127.174 401.905L137.97 359.695L138.439 410.816C141.562 412.666 145.127 413.638 148.757 413.63C152.45 413.608 156.049 412.463 159.075 410.347C159.075 410.347 166.579 356.412 167.517 347.501C168.455 338.59 174.552 311.857 175.021 309.981C175.49 308.105 184.401 278.558 184.401 254.639C184.401 230.72 177.526 216.34 177.526 216.34C177.526 216.34 153.447 211.022 135.625 210.553C125.071 210.262 114.51 210.845 104.052 212.298Z" fill="#263238" stroke="#263238" stroke-linecap="round" stroke-linejoin="round"/>
<path d="M141.253 352.688C141.253 352.688 153.447 317.982 153.447 309.54C153.447 301.098 145.474 248.57 145.474 248.57" stroke="#878787" stroke-miterlimit="10"/>
<path d="M148.757 264.516C148.757 264.516 155.792 256.543 158.137 251.853" stroke="#878787" stroke-miterlimit="10"/>
<path d="M176.588 140.39C176.588 140.39 186.277 146.018 191.596 154.46C196.914 162.902 208.48 198.546 207.851 207.608C207.223 216.669 204.418 219.182 196.286 217.616C188.153 216.05 187.534 206.988 185.658 199.484C183.782 191.98 173.774 144.452 173.774 144.452L173.464 140.072L176.588 140.39Z" fill="white" stroke="#263238" stroke-linecap="round" stroke-linejoin="round"/>
<path d="M207.851 207.608C208.17 202.993 205.328 191.474 201.754 180.171L181.972 182.91C183.632 190.602 185.058 197.064 185.658 199.456C187.534 206.96 188.153 216.021 196.286 217.588C204.418 219.154 207.232 216.678 207.851 207.608Z" fill="#CFCFCF" stroke="#263238" stroke-linecap="round" stroke-linejoin="round"/>
<path d="M111.866 137.576C111.866 137.576 104.362 139.134 102.486 152.266C100.61 165.398 104.99 186.972 104.99 186.972L104.052 212.298C104.052 212.298 135.316 220.43 148.138 220.43C160.961 220.43 177.526 216.368 177.526 216.368C177.526 216.368 170.65 153.204 169.393 147.894C168.137 142.585 162.518 137.258 157.828 133.824C153.138 130.391 141.253 130.692 134.378 132.568C127.502 134.444 117.803 138.196 117.803 138.196L111.866 137.576Z" fill="white" stroke="#263238" stroke-linecap="round" stroke-linejoin="round"/>
<path d="M134.378 128.816C134.378 128.816 140.944 155.398 141.572 173.53C142.201 191.662 138.758 247.942 138.758 247.942C138.758 247.942 124.06 248.57 113.432 246.694C102.805 244.818 95.2914 243.88 95.2914 243.88L104.671 185.414C104.671 185.414 117.494 186.352 120.308 177.282C123.122 168.212 119.37 150.08 115.927 144.452C112.485 138.824 111.866 137.576 111.866 137.576L134.378 128.816Z" fill="#9D4EDD" stroke="#263238" stroke-linecap="round" stroke-linejoin="round"/>
<path d="M162.827 153.523C162.827 153.523 169.712 179.787 169.084 206.051C168.455 232.315 168.146 246.385 168.146 246.385C168.146 246.385 183.154 245.447 191.596 242.004C191.596 242.004 186.906 180.725 182.525 162.584C178.145 144.443 176.588 140.391 176.588 140.391L159.075 133.196L162.827 153.523Z" fill="#9D4EDD" stroke="#263238" stroke-linecap="round" stroke-linejoin="round"/>
<path d="M141.113 123.713C141.113 123.713 134.547 124.932 132.821 128.347C131.095 131.761 139.649 159.807 139.649 159.807L152.087 149.564L167.452 158.344C167.452 158.344 164.525 137.126 158.184 129.81C151.843 122.493 141.113 123.713 141.113 123.713Z" fill="white" stroke="#263238" stroke-linecap="round" stroke-linejoin="round"/>
<path d="M138.43 105.919C138.43 105.919 138.186 130.541 140.869 136.873C143.552 143.204 150.624 152.481 153.307 151.018C155.989 149.555 156.721 131.751 157.209 130.532C157.697 129.313 159.648 119.276 159.648 119.276C159.648 119.276 142.088 114.436 138.43 105.919Z" fill="#CFCFCF" stroke="#263238" stroke-linecap="round" stroke-linejoin="round"/>
<path d="M138.43 105.919C138.43 105.919 138.336 115.805 138.946 124.679C141.745 127.993 145.677 130.147 149.977 130.72C152.37 131.082 154.807 131.05 157.19 130.626C157.186 130.604 157.186 130.582 157.19 130.56C157.678 129.341 159.629 119.304 159.629 119.304C159.629 119.304 142.088 114.436 138.43 105.919Z" fill="#263238" stroke="#263238" stroke-linecap="round" stroke-linejoin="round"/>
<path d="M165.867 190.639L163.991 191.783L153.138 174.046C152.989 173.798 152.944 173.501 153.012 173.22C153.081 172.939 153.257 172.697 153.504 172.545C153.626 172.47 153.761 172.419 153.903 172.396C154.044 172.373 154.189 172.378 154.328 172.411C154.468 172.445 154.599 172.505 154.715 172.589C154.831 172.673 154.93 172.779 155.005 172.902L165.867 190.639Z" fill="white" stroke="#263238" stroke-linecap="round" stroke-linejoin="round"/>
<path d="M111.866 137.576C111.866 137.576 104.671 138.195 100.3 146.637C95.9293 155.079 89.0443 194.794 87.7874 206.36C86.5305 217.925 93.4154 216.987 94.3534 216.987C95.2914 216.987 145.005 200.422 145.005 200.422L161.889 198.546C161.889 198.546 160.013 200.103 161.58 200.103C163.146 200.103 166.27 196.98 167.517 195.104C168.765 193.228 163.765 182.91 161.889 181.662C160.013 180.415 143.129 192.918 143.129 192.918L110.299 195.104L118.741 166.335" fill="white"/>
<path d="M111.866 137.576C111.866 137.576 104.671 138.195 100.3 146.637C95.9293 155.079 89.0443 194.794 87.7874 206.36C86.5305 217.925 93.4154 216.987 94.3534 216.987C95.2914 216.987 145.005 200.422 145.005 200.422L161.889 198.546C161.889 198.546 160.013 200.103 161.58 200.103C163.146 200.103 166.27 196.98 167.517 195.104C168.765 193.228 163.765 182.91 161.889 181.662C160.013 180.415 143.129 192.918 143.129 192.918L110.299 195.104L118.741 166.335" stroke="#263238" stroke-linecap="round" stroke-linejoin="round"/>
<path d="M161.889 181.662C160.013 180.406 143.129 192.918 143.129 192.918L110.299 195.104L112.382 188.013L91.38 183.276C89.6447 192.909 88.2846 201.811 87.7874 206.36C86.5399 217.926 93.4154 216.988 94.3534 216.988C95.2914 216.988 145.005 200.422 145.005 200.422L161.889 198.546C161.889 198.546 160.013 200.104 161.58 200.104C163.146 200.104 166.27 196.98 167.517 195.104C168.765 193.228 163.765 182.91 161.889 181.662Z" fill="#CFCFCF" stroke="#263238" stroke-linecap="round" stroke-linejoin="round"/>
<path d="M161.889 181.662C160.013 180.406 143.129 192.918 143.129 192.918L138.346 193.237C138.327 196.266 139.073 199.25 140.512 201.914L145.005 200.422L161.889 198.546C161.889 198.546 160.013 200.104 161.58 200.104C163.146 200.104 166.27 196.98 167.517 195.104C168.765 193.228 163.765 182.91 161.889 181.662Z" fill="#666666" stroke="#263238" stroke-linecap="round" stroke-linejoin="round"/>
<path d="M178.464 166.964L146.572 211.678L188.472 210.112L218.798 168.84L178.464 166.964Z" fill="#263238" stroke="#263238" stroke-linecap="round" stroke-linejoin="round"/>
<path d="M192.543 165.651L190.095 169.722L208.433 170.134L210.881 166.054L192.543 165.651Z" fill="#263238" stroke="#263238" stroke-linecap="round" stroke-linejoin="round"/>
<path d="M204.934 192.337C203.494 192.863 201.994 193.21 200.469 193.369C198.593 193.453 196.867 194.4 196.867 195.348C196.867 196.295 200.216 196.464 202.617 196.464C205.019 196.464 206.904 195.948 207.307 194.4C207.711 192.853 207.167 191.483 204.934 192.337Z" fill="#666666" stroke="#263238" stroke-linecap="round" stroke-linejoin="round"/>
<path d="M207.092 188.144C205.276 188.809 203.386 189.25 201.464 189.457C199.072 189.56 196.896 190.761 196.896 191.952C196.896 193.144 201.135 193.369 204.184 193.369C207.232 193.369 209.624 192.722 210.168 190.761C210.712 188.801 209.924 187.056 207.092 188.144Z" fill="#666666" stroke="#263238" stroke-linecap="round" stroke-linejoin="round"/>
<path d="M208.827 184.561C207.011 185.226 205.121 185.667 203.199 185.874C200.798 185.977 198.621 187.178 198.621 188.369C198.621 189.56 202.871 189.786 205.919 189.786C208.968 189.786 211.36 189.138 211.904 187.178C212.448 185.217 211.66 183.473 208.827 184.561Z" fill="#666666" stroke="#263238" stroke-linecap="round" stroke-linejoin="round"/>
<path d="M209.999 180.509C208.183 181.169 206.293 181.607 204.371 181.813C201.98 181.916 199.803 183.116 199.803 184.317C199.803 185.518 204.043 185.733 207.092 185.733C210.14 185.733 212.532 185.077 213.076 183.116C213.62 181.156 212.832 179.421 209.999 180.509Z" fill="#666666" stroke="#263238" stroke-linecap="round" stroke-linejoin="round"/>
<path d="M107.945 392.384C107.945 392.384 107.748 402.102 108.133 403.64C108.517 405.178 115.327 407.13 119.595 407.13C123.863 407.13 126.592 406.191 127.371 405C128.15 403.809 129.5 395.864 129.5 395.864C129.5 395.864 114.352 398.997 107.945 392.384Z" fill="#666666" stroke="#263238" stroke-linecap="round" stroke-linejoin="round"/>
<path d="M129.444 98.1147C126.403 97.0437 123.133 96.7955 119.966 97.3951C116.798 97.9947 113.845 99.4208 111.406 101.529C102.87 108.845 110.468 122.015 119.454 123.478C128.44 124.942 134.322 120.796 135.785 114.211C137.248 107.626 134.828 97.8709 129.444 98.1147Z" fill="#263238" stroke="#263238" stroke-linecap="round" stroke-linejoin="round"/>
<path d="M172.592 95.9199C172.592 95.9199 171.373 108.114 168.934 116.65C166.495 125.185 160.154 128.356 151.112 127.137C142.069 125.917 136.967 118.601 134.04 110.065C131.114 101.529 130.87 89.8229 130.87 89.8229L172.592 95.9199Z" fill="#CFCFCF" stroke="#263238" stroke-linecap="round" stroke-linejoin="round"/>
<path d="M132.145 95.676C132.145 95.676 135.072 98.3587 141.638 93.7249C148.204 89.0912 145.052 86.8963 145.052 86.8963L129.444 87.8343L132.145 95.676Z" fill="#263238" stroke="#263238" stroke-linecap="round" stroke-linejoin="round"/>
<path d="M162.874 98.8464C162.874 98.8464 161.655 102.505 162.387 103.724C163.118 104.943 165.069 106.651 162.874 108.602C162.477 108.99 161.993 109.279 161.463 109.445C160.933 109.612 160.371 109.651 159.823 109.56C159.274 109.468 158.755 109.249 158.308 108.92C157.86 108.59 157.497 108.16 157.246 107.664" stroke="#263238" stroke-linecap="round" stroke-linejoin="round"/>
<path d="M149.273 109.746C149.273 109.746 153.025 114.614 160.135 112.372" stroke="#263238" stroke-linecap="round" stroke-linejoin="round"/>
<path d="M154.582 100.31C154.582 101.66 154.038 102.749 153.363 102.749C152.688 102.749 152.144 101.66 152.144 100.31C152.144 98.9591 152.688 97.871 153.363 97.871C154.038 97.871 154.582 98.9591 154.582 100.31Z" fill="#263238"/>
<path d="M167.996 102.242C167.996 103.593 167.452 104.681 166.776 104.681C166.101 104.681 165.557 103.593 165.557 102.242C165.557 100.891 166.101 99.8032 166.776 99.8032C167.452 99.8032 167.996 100.91 167.996 102.242Z" fill="#263238"/>
<path d="M149.461 94.9443C149.461 94.9443 152.875 91.0423 157.265 94.9443" stroke="#263238" stroke-linecap="round" stroke-linejoin="round"/>
<path d="M165.088 96.8954C165.84 96.341 166.759 96.0626 167.692 96.107C168.625 96.1514 169.514 96.516 170.209 97.1393" stroke="#263238" stroke-linecap="round" stroke-linejoin="round"/>
<path d="M128.506 90.7984L173.868 95.676C173.868 95.676 173.38 72.7513 173.136 68.8586C172.892 64.9659 154.845 59.5911 147.81 60.0789C140.775 60.5667 131.958 64.7126 130.495 66.6449C129.031 68.5772 128.506 90.7984 128.506 90.7984Z" fill="#9D4EDD" stroke="#263238" stroke-linecap="round" stroke-linejoin="round"/>
<path d="M147.998 93.2372L188.228 98.6026C188.228 98.6026 177.507 89.3351 168.971 88.6035C160.436 87.8718 147.998 93.2372 147.998 93.2372Z" fill="#9D4EDD" stroke="#263238" stroke-linecap="round" stroke-linejoin="round"/>
<path d="M133.853 97.3832C133.853 97.3832 132.915 89.8229 128.731 89.8229C124.548 89.8229 126.536 95.9199 127.024 99.822C127.512 103.724 132.145 104.7 133.853 103.236" fill="#CFCFCF"/>
<path d="M133.853 97.3832C133.853 97.3832 132.915 89.8229 128.731 89.8229C124.548 89.8229 126.536 95.9199 127.024 99.822C127.512 103.724 132.145 104.7 133.853 103.236" stroke="#263238" stroke-linecap="round" stroke-linejoin="round"/>
<path d="M138.055 402.486L138.636 411.623C138.636 411.623 141.216 413.555 148.757 413.658C156.299 413.761 159.075 410.375 159.075 410.375L160.586 400.526C160.586 400.526 146.6 407.148 138.055 402.486Z" fill="#666666" stroke="#263238" stroke-linecap="round" stroke-linejoin="round"/>
</svg>
