  <svg width="500" height="500" viewBox="0 0 500 500" fill="none" xmlns="http://www.w3.org/2000/svg">
<path d="M29.49 245.12C35.78 141.18 115.49 142.68 208.08 119.42C250.97 108.64 295.26 87.6101 333.08 87.6101C452.39 87.6101 481.3 178.05 468.55 280.1C455.41 385.26 382.89 448.36 257.55 437.63C138.82 427.46 22.62 358.7 29.49 245.12Z" fill="#9D4EDD"/>
<path opacity="0.75" d="M29.49 245.12C35.78 141.18 115.49 142.68 208.08 119.42C250.97 108.64 295.26 87.6101 333.08 87.6101C452.39 87.6101 481.3 178.05 468.55 280.1C455.41 385.26 382.89 448.36 257.55 437.63C138.82 427.46 22.62 358.7 29.49 245.12Z" fill="white"/>
<path d="M136.56 132.62V171.14H80.83" stroke="#263238" stroke-width="0.75" stroke-linecap="round" stroke-linejoin="round"/>
<path d="M136.55 125.23V130.12" stroke="#263238" stroke-width="0.75" stroke-linecap="round" stroke-linejoin="round"/>
<path d="M136.55 115.42V122.79" stroke="#263238" stroke-width="0.75" stroke-linecap="round" stroke-linejoin="round"/>
<path d="M198.86 171.14H143.13V115.42" stroke="#263238" stroke-width="0.75" stroke-linecap="round" stroke-linejoin="round"/>
<path d="M143.13 198.34V177.72H198.86" stroke="#263238" stroke-width="0.75" stroke-linecap="round" stroke-linejoin="round"/>
<path d="M198.86 237.83H192" stroke="#263238" stroke-width="0.75" stroke-linecap="round" stroke-linejoin="round"/>
<path d="M193.5 244.41H198.86" stroke="#263238" stroke-width="0.75" stroke-linecap="round" stroke-linejoin="round"/>
<path d="M80.83 311.11H94.25" stroke="#263238" stroke-width="0.75" stroke-linecap="round" stroke-linejoin="round"/>
<path d="M100.25 304.53H80.83" stroke="#263238" stroke-width="0.75" stroke-linecap="round" stroke-linejoin="round"/>
<path d="M80.83 244.41H123.25" stroke="#263238" stroke-width="0.75" stroke-linecap="round" stroke-linejoin="round"/>
<path d="M125.87 237.83H80.83" stroke="#263238" stroke-width="0.75" stroke-linecap="round" stroke-linejoin="round"/>
<path d="M80.83 177.72H136.56V202.12" stroke="#263238" stroke-width="0.75" stroke-linecap="round" stroke-linejoin="round"/>
<path d="M210.36 258.39V270.21M210.36 246.55V255M69.36 330.88V133.31L70.62 132C88.9927 113.665 113.889 103.368 139.845 103.368C165.801 103.368 190.697 113.665 209.07 132L210.36 133.28V242.84M69.36 342.84V335.84M69.36 351.95V345.3M78.13 286.8V349.88M78.13 279.3V284M78.13 137V272.16M201.61 194.75V137C185.595 121.656 164.44 112.825 142.269 112.228C120.097 111.631 98.4979 119.31 81.68 133.77M201.61 200.4V197.65M201.61 262.42V206.25" stroke="#263238" stroke-width="0.75" stroke-linecap="round" stroke-linejoin="round"/>
<path d="M298.2 344.59H293.85V422.04H298.2V344.59Z" stroke="#263238" stroke-width="0.75" stroke-linecap="round" stroke-linejoin="round"/>
<path d="M269.87 344.59H265.52V422.04H269.87V344.59Z" stroke="#263238" stroke-width="0.75" stroke-linecap="round" stroke-linejoin="round"/>
<path d="M284.03 344.59H279.68V422.04H284.03V344.59Z" stroke="#263238" stroke-width="0.75" stroke-linecap="round" stroke-linejoin="round"/>
<path d="M312.37 344.59H308.02V422.04H312.37V344.59Z" stroke="#263238" stroke-width="0.75" stroke-linecap="round" stroke-linejoin="round"/>
<path d="M354.88 344.59H350.53V422.04H354.88V344.59Z" stroke="#263238" stroke-width="0.75" stroke-linecap="round" stroke-linejoin="round"/>
<path d="M255.7 344.59H251.35V422.04H255.7V344.59Z" stroke="#263238" stroke-width="0.75" stroke-linecap="round" stroke-linejoin="round"/>
<path d="M340.71 344.59H336.36V422.04H340.71V344.59Z" stroke="#263238" stroke-width="0.75" stroke-linecap="round" stroke-linejoin="round"/>
<path d="M326.54 344.59H322.19V422.04H326.54V344.59Z" stroke="#263238" stroke-width="0.75" stroke-linecap="round" stroke-linejoin="round"/>
<path d="M379.82 421.59C378.886 421.586 377.953 421.657 377.03 421.8L379.82 422.41L382.47 421.78C381.593 421.651 380.707 421.587 379.82 421.59Z" stroke="#263238" stroke-width="0.75" stroke-linecap="round" stroke-linejoin="round"/>
<path d="M380.16 423.85C383.23 423.8 384.9 423.09 384.9 422.72C384.9 422.55 384.54 422.31 383.84 422.09L380.16 422.96V423.85Z" stroke="#263238" stroke-width="0.75" stroke-linecap="round" stroke-linejoin="round"/>
<path d="M374.74 422.72C374.74 423.09 376.42 423.8 379.5 423.85V423L375.65 422.17C375.05 422.34 374.74 422.56 374.74 422.72Z" stroke="#263238" stroke-width="0.75" stroke-linecap="round" stroke-linejoin="round"/>
<path d="M255.7 333.46H251.35V344.6H255.7V333.46Z" stroke="#263238" stroke-width="0.75" stroke-linecap="round" stroke-linejoin="round"/>
<path d="M298.2 333.46H293.85V344.6H298.2V333.46Z" stroke="#263238" stroke-width="0.75" stroke-linecap="round" stroke-linejoin="round"/>
<path d="M269.87 333.46H265.52V344.6H269.87V333.46Z" stroke="#263238" stroke-width="0.75" stroke-linecap="round" stroke-linejoin="round"/>
<path d="M312.37 333.46H308.02V344.6H312.37V333.46Z" stroke="#263238" stroke-width="0.75" stroke-linecap="round" stroke-linejoin="round"/>
<path d="M354.88 333.46H350.53V344.6H354.88V333.46Z" stroke="#263238" stroke-width="0.75" stroke-linecap="round" stroke-linejoin="round"/>
<path d="M326.54 333.46H322.19V344.6H326.54V333.46Z" stroke="#263238" stroke-width="0.75" stroke-linecap="round" stroke-linejoin="round"/>
<path d="M284.03 333.46H279.68V344.6H284.03V333.46Z" stroke="#263238" stroke-width="0.75" stroke-linecap="round" stroke-linejoin="round"/>
<path d="M340.71 333.46H336.36V344.6H340.71V333.46Z" stroke="#263238" stroke-width="0.75" stroke-linecap="round" stroke-linejoin="round"/>
<path d="M367.66 337.17H364.7V342.21H367.66V337.17Z" stroke="#263238" stroke-width="0.75" stroke-linecap="round" stroke-linejoin="round"/>
<path d="M241.52 337.17H238.81V342.21H241.52V337.17Z" stroke="#263238" stroke-width="0.75" stroke-linecap="round" stroke-linejoin="round"/>
<path d="M241.52 426.23H238.81V431.27H241.52V426.23Z" stroke="#263238" stroke-width="0.75" stroke-linecap="round" stroke-linejoin="round"/>
<path d="M380.16 424.46H379.5V426.33H380.16V424.46Z" stroke="#263238" stroke-width="0.75" stroke-linecap="round" stroke-linejoin="round"/>
<path d="M380.16 424.46C382.9 424.46 385.56 423.82 385.56 422.72C385.56 421.62 382.67 420.98 379.82 420.98C376.97 420.98 374.08 421.58 374.08 422.72C374.08 423.86 376.75 424.42 379.5 424.46H380.16ZM384.9 422.72C384.9 423.09 383.23 423.8 380.16 423.85V423L383.84 422.13C384.54 422.31 384.9 422.55 384.9 422.72ZM379.5 423.85C376.42 423.8 374.74 423.09 374.74 422.72C374.74 422.56 375.05 422.34 375.65 422.14L379.5 422.97V423.85ZM377 421.8C378.804 421.533 380.636 421.533 382.44 421.8L379.79 422.43L377 421.8Z" stroke="#263238" stroke-width="0.75" stroke-linecap="round" stroke-linejoin="round"/>
<path d="M383.58 427.39H381.91V427.86H377.74V427.39H364.74V432.44H382.56V450.79H387.98V432.44V431.44C387.928 430.321 387.437 429.269 386.613 428.51C385.789 427.752 384.699 427.349 383.58 427.39Z" stroke="#263238" stroke-width="0.75" stroke-linecap="round" stroke-linejoin="round"/>
<path d="M381.91 427.86V427.39V426.33H380.16H379.5H377.74V427.39V427.86H381.91Z" stroke="#263238" stroke-width="0.75" stroke-linecap="round" stroke-linejoin="round"/>
<path d="M340.71 422.04H336.36V433.18H340.71V422.04Z" stroke="#263238" stroke-width="0.75" stroke-linecap="round" stroke-linejoin="round"/>
<path d="M326.54 422.04H322.19V433.18H326.54V422.04Z" stroke="#263238" stroke-width="0.75" stroke-linecap="round" stroke-linejoin="round"/>
<path d="M298.2 422.04H293.85V433.18H298.2V422.04Z" stroke="#263238" stroke-width="0.75" stroke-linecap="round" stroke-linejoin="round"/>
<path d="M354.88 422.04H350.53V433.18H354.88V422.04Z" stroke="#263238" stroke-width="0.75" stroke-linecap="round" stroke-linejoin="round"/>
<path d="M312.37 422.04H308.02V433.18H312.37V422.04Z" stroke="#263238" stroke-width="0.75" stroke-linecap="round" stroke-linejoin="round"/>
<path d="M255.7 422.04H251.35V433.18H255.7V422.04Z" stroke="#263238" stroke-width="0.75" stroke-linecap="round" stroke-linejoin="round"/>
<path d="M269.87 422.04H265.52V433.18H269.87V422.04Z" stroke="#263238" stroke-width="0.75" stroke-linecap="round" stroke-linejoin="round"/>
<path d="M284.03 422.04H279.68V433.18H284.03V422.04Z" stroke="#263238" stroke-width="0.75" stroke-linecap="round" stroke-linejoin="round"/>
<path d="M364.7 342.21V337.17V329.55L359.79 328.21V435.89L363.56 435.67L364.7 435.36V432.44V427.39V342.21Z" stroke="#263238" stroke-width="0.75" stroke-linecap="round" stroke-linejoin="round"/>
<path d="M359.79 435.89V328.21L354.87 329.55V333.45V344.59V422.04V433.17V435.36L357.33 436.03L359.79 435.89Z" stroke="#263238" stroke-width="0.75" stroke-linecap="round" stroke-linejoin="round"/>
<path d="M350.53 344.59V333.45V329.55L345.62 328.21V436.7L350.53 435.36V433.17V422.04V344.59Z" stroke="#263238" stroke-width="0.75" stroke-linecap="round" stroke-linejoin="round"/>
<path d="M345.62 328.21L340.7 329.55V333.45V344.59V422.04V433.17V435.36L345.62 436.7V328.21Z" stroke="#263238" stroke-width="0.75" stroke-linecap="round" stroke-linejoin="round"/>
<path d="M336.36 344.59V333.45V329.55L331.45 328.21V436.7L336.36 435.36V433.17V422.04V344.59Z" stroke="#263238" stroke-width="0.75" stroke-linecap="round" stroke-linejoin="round"/>
<path d="M331.45 328.21L326.54 329.55V333.45V344.59V422.04V433.17V435.36L331.45 436.7V328.21Z" stroke="#263238" stroke-width="0.75" stroke-linecap="round" stroke-linejoin="round"/>
<path d="M322.19 344.59V333.45V329.55L317.28 328.21V436.7L322.19 435.36V433.17V422.04V344.59Z" stroke="#263238" stroke-width="0.75" stroke-linecap="round" stroke-linejoin="round"/>
<path d="M317.28 328.21L312.37 329.55V333.45V344.59V422.04V433.17V435.36L317.28 436.7V328.21Z" stroke="#263238" stroke-width="0.75" stroke-linecap="round" stroke-linejoin="round"/>
<path d="M308.02 344.59V333.45V329.55L303.11 328.21V436.7L308.02 435.36V433.17V422.04V344.59Z" stroke="#263238" stroke-width="0.75" stroke-linecap="round" stroke-linejoin="round"/>
<path d="M303.11 328.21L298.2 329.55V333.45V344.59V422.04V433.17V435.36L303.11 436.7V328.21Z" stroke="#263238" stroke-width="0.75" stroke-linecap="round" stroke-linejoin="round"/>
<path d="M293.85 344.59V333.45V329.55L288.94 328.21V436.7L293.85 435.36V433.17V422.04V344.59Z" stroke="#263238" stroke-width="0.75" stroke-linecap="round" stroke-linejoin="round"/>
<path d="M288.94 328.21L284.03 329.55V333.45V344.59V422.04V433.17V435.36L288.94 436.7V328.21Z" stroke="#263238" stroke-width="0.75" stroke-linecap="round" stroke-linejoin="round"/>
<path d="M279.69 344.59V333.45V329.55L274.77 328.21V436.7L279.69 435.36V433.17V422.04V344.59Z" stroke="#263238" stroke-width="0.75" stroke-linecap="round" stroke-linejoin="round"/>
<path d="M274.77 328.21L269.86 329.55V333.45V344.59V422.04V433.17V435.36L274.77 436.7V328.21Z" stroke="#263238" stroke-width="0.75" stroke-linecap="round" stroke-linejoin="round"/>
<path d="M265.52 344.59V333.45V329.55L260.6 328.21V436.7L265.52 435.36V433.17V422.04V344.59Z" stroke="#263238" stroke-width="0.75" stroke-linecap="round" stroke-linejoin="round"/>
<path d="M260.6 328.21L255.69 329.55V333.45V344.59V422.04V433.17V435.36L260.6 436.7V328.21Z" stroke="#263238" stroke-width="0.75" stroke-linecap="round" stroke-linejoin="round"/>
<path d="M251.35 344.59V333.45V329.55L246.44 328.21V435.9L248.66 436.03L248.65 436.09L251.35 435.36V433.17V422.04V344.59Z" stroke="#263238" stroke-width="0.75" stroke-linecap="round" stroke-linejoin="round"/>
<path d="M246.44 328.21L241.52 329.55V337.17V342.21V426.23V431.28V435.36L242.72 435.69L246.44 435.9V328.21Z" stroke="#263238" stroke-width="0.75" stroke-linecap="round" stroke-linejoin="round"/>
<path d="M359.79 435.89L357.33 436.03L359.79 451.14H363.56V435.67L359.79 435.89Z" stroke="#263238" stroke-width="0.75" stroke-linecap="round" stroke-linejoin="round"/>
<path d="M246.44 435.9L242.72 435.69L242.43 435.67V451.14H246.21L248.65 436.09L248.66 436.03L246.44 435.9Z" stroke="#263238" stroke-width="0.75" stroke-linecap="round" stroke-linejoin="round"/>
<path d="M445 452.06H67.7399C57.3099 454.33 48.52 457.41 52 461C59.5 468.66 245.5 469.91 246.5 461C247.5 452.09 297.5 452.74 294.25 458.45C291 464.16 307.92 464.16 315.96 463.66C324 463.16 326.42 457.97 335.05 464.16C341.55 468.83 398.22 468.83 420.05 461.43C439.05 455.01 454.15 459.01 452.34 455.23C451.3 453 448.61 453.34 445 452.06Z" fill="#9D4EDD"/>
<path d="M40 452.06H460" stroke="#263238" stroke-linecap="round" stroke-linejoin="round"/>
<path d="M410 382.05C410 382.05 390.88 369.64 399.42 397.48C399.37 397.48 422.05 389 410 382.05Z" fill="#9D4EDD"/>
<path d="M424 294.86C424 294.86 407.59 280.12 413.43 310.29C413.47 310.29 436.15 301.79 424 294.86Z" fill="#9D4EDD"/>
<path d="M430.8 364.89C430.8 364.89 451.06 351.75 442 381.23C442 381.23 418 372.23 430.8 364.89Z" fill="#9D4EDD"/>
<path d="M438.57 322.84C438.57 322.84 458.83 309.7 449.77 339.18C449.77 339.18 425.75 330.18 438.57 322.84Z" fill="#9D4EDD"/>
<path d="M448.5 270.25C448.5 270.25 462.02 253.75 459.69 286.59C459.69 286.59 435.67 277.58 448.5 270.25Z" fill="#9D4EDD"/>
<path d="M423.84 248.91C423.84 248.91 410.31 232.41 412.64 265.25C412.64 265.25 436.66 256.25 423.84 248.91Z" fill="#9D4EDD"/>
<path d="M441.87 246.28C441.87 246.28 446.98 230.19 454.87 255C454.89 255 434.6 255.43 441.87 246.28Z" fill="#9D4EDD"/>
<path d="M428.22 392.65C428.22 392.65 441.22 384.2 435.42 403.17C435.42 403.17 420 397.38 428.22 392.65Z" fill="#9D4EDD"/>
<path d="M414.68 338.5C414.68 338.5 397.68 327.5 405.3 352.18C405.3 352.18 425.41 344.65 414.68 338.5Z" fill="#9D4EDD"/>
<path d="M426.84 415.56C426.84 415.56 414 386 423 344.83C432 303.66 443.5 274.12 434.5 250.83" stroke="#263238" stroke-linecap="round" stroke-linejoin="round"/>
<path d="M420.07 383.91C420.07 383.91 407.25 374.73 402 392.68" stroke="#263238" stroke-linecap="round" stroke-linejoin="round"/>
<path d="M434.17 296.73C434.17 296.73 421.35 287.54 416.1 305.5" stroke="#263238" stroke-linecap="round" stroke-linejoin="round"/>
<path d="M420.08 366.86C420.08 366.86 433.66 357.13 439.22 376.16" stroke="#263238" stroke-linecap="round" stroke-linejoin="round"/>
<path d="M427.85 324.81C427.85 324.81 441.43 315.08 446.99 334.1" stroke="#263238" stroke-linecap="round" stroke-linejoin="round"/>
<path d="M437.77 272.22C437.77 272.22 451.35 262.49 456.91 281.51" stroke="#263238" stroke-linecap="round" stroke-linejoin="round"/>
<path d="M434.57 250.88C434.57 250.88 420.98 241.15 415.42 260.17" stroke="#263238" stroke-linecap="round" stroke-linejoin="round"/>
<path d="M434.57 250.87C434.57 250.87 441.69 239.74 451.36 252.09" stroke="#263238" stroke-linecap="round" stroke-linejoin="round"/>
<path d="M432.49 242C432.49 242 419.07 231.76 445.1 232.68C445.1 232.72 438.65 252 432.49 242Z" fill="#9D4EDD"/>
<path d="M434.35 250.46C434.35 250.46 426.28 240 441.16 235.07" stroke="#263238" stroke-linecap="round" stroke-linejoin="round"/>
<path d="M421.31 393.92C421.31 393.92 430.05 387.66 433.63 399.92" stroke="#263238" stroke-linecap="round" stroke-linejoin="round"/>
<path d="M423.66 340.15C423.66 340.15 412.29 332.01 407.66 347.93" stroke="#263238" stroke-linecap="round" stroke-linejoin="round"/>
<path d="M442.2 452.06H411.47L407.71 410.05H445.96L442.2 452.06Z" fill="white"/>
<mask id="mask0_464_359" style="mask-type:luminance" maskUnits="userSpaceOnUse" x="407" y="410" width="39" height="43">
<path d="M442.2 452.06H411.47L407.71 410.05H445.96L442.2 452.06Z" fill="white"/>
</mask>
<g mask="url(#mask0_464_359)">
<path d="M455.5 403.69H400.3V423.91H455.5V403.69Z" fill="#9D4EDD"/>
</g>
<path d="M442.2 452.06H411.47L407.71 410.05H445.96L442.2 452.06Z" stroke="#263238" stroke-linecap="round" stroke-linejoin="round"/>
<path d="M451.04 410.05H402.63L403.63 405.06H450.04L451.04 410.05Z" fill="white" stroke="#263238" stroke-linecap="round" stroke-linejoin="round"/>
<path d="M382.83 389.41H365.74C364.696 389.423 363.699 389.843 362.961 390.581C362.223 391.319 361.803 392.317 361.79 393.36V394.71C360.798 393.775 359.493 393.243 358.13 393.22C354.5 393.22 352.56 397.16 352.56 402.01C352.56 406.86 354.5 410.8 358.13 410.8C359.491 410.776 360.795 410.249 361.79 409.32V413.16C361.789 413.974 361.948 414.78 362.258 415.532C362.569 416.284 363.025 416.968 363.6 417.544C364.174 418.119 364.857 418.576 365.609 418.888C366.361 419.2 367.166 419.36 367.98 419.36H380.59C382.234 419.36 383.811 418.707 384.974 417.544C386.137 416.381 386.79 414.804 386.79 413.16V393.36C386.777 392.315 386.355 391.316 385.615 390.578C384.875 389.84 383.875 389.421 382.83 389.41ZM358.32 407.48C356.06 407.48 354.85 405.03 354.85 402.01C354.85 398.99 356.06 396.54 358.32 396.54C359.085 396.592 359.819 396.863 360.434 397.321C361.049 397.778 361.52 398.403 361.79 399.12V404.9C361.52 405.617 361.049 406.242 360.434 406.699C359.819 407.157 359.085 407.428 358.32 407.48Z" fill="white" stroke="#263238" stroke-linecap="round" stroke-linejoin="round"/>
<path d="M368.83 405.21C368.349 404.781 367.959 404.26 367.682 403.678C367.406 403.096 367.249 402.464 367.22 401.82C367.195 401.407 367.258 400.994 367.405 400.608C367.552 400.221 367.78 399.871 368.074 399.579C368.367 399.288 368.719 399.062 369.106 398.918C369.494 398.773 369.907 398.712 370.32 398.74C372.06 398.74 372.65 399.55 373.67 400.74C374.67 399.58 375.29 398.74 377.03 398.74C377.442 398.714 377.854 398.776 378.24 398.921C378.627 399.066 378.977 399.292 379.27 399.583C379.562 399.875 379.789 400.225 379.935 400.61C380.082 400.996 380.145 401.408 380.12 401.82C380.094 402.465 379.937 403.097 379.661 403.679C379.384 404.262 378.993 404.783 378.51 405.21L373.67 410L368.83 405.21Z" fill="#9D4EDD"/>
<path d="M372 376.67C372.717 374.593 372.738 372.34 372.06 370.25" stroke="#263238" stroke-width="0.75" stroke-linecap="round" stroke-linejoin="round"/>
<path d="M371.1 386C370.364 384.877 369.972 383.563 369.972 382.22C369.972 380.877 370.364 379.564 371.1 378.44" stroke="#263238" stroke-width="0.75" stroke-linecap="round" stroke-linejoin="round"/>
<path d="M377.24 376.63C380.96 371.06 378.64 364.87 378.64 364.87" stroke="#263238" stroke-width="0.75" stroke-linecap="round" stroke-linejoin="round"/>
<path d="M377.24 387.42C376.445 386.192 375.927 384.804 375.724 383.355C375.52 381.906 375.635 380.43 376.06 379.03" stroke="#263238" stroke-width="0.75" stroke-linecap="round" stroke-linejoin="round"/>
<path d="M405.76 458H344.35C340.53 458 337.64 453.36 337.64 447.19C337.64 441.02 340.53 436.39 344.35 436.39H405.76C406.269 436.39 406.758 436.592 407.118 436.952C407.478 437.313 407.68 437.801 407.68 438.31C407.68 438.819 407.478 439.308 407.118 439.668C406.758 440.028 406.269 440.23 405.76 440.23H344.35C343.21 440.23 341.48 443.01 341.48 447.23C341.48 451.45 343.21 454.23 344.35 454.23H405.76C406.012 454.23 406.262 454.28 406.495 454.376C406.728 454.473 406.939 454.614 407.118 454.792C407.296 454.971 407.437 455.182 407.534 455.415C407.63 455.648 407.68 455.898 407.68 456.15C407.68 456.402 407.63 456.652 407.534 456.885C407.437 457.118 407.296 457.329 407.118 457.508C406.939 457.686 406.728 457.827 406.495 457.924C406.262 458.02 406.012 458.07 405.76 458.07V458Z" fill="#9D4EDD" stroke="black" stroke-linecap="round" stroke-linejoin="round"/>
<path d="M402.35 447.15C402.355 444.664 403.081 442.232 404.44 440.15H344.14V454.22H404.44C403.068 452.118 402.342 449.66 402.35 447.15Z" fill="white" stroke="black" stroke-linecap="round" stroke-linejoin="round"/>
<path d="M376.42 442.64H367.38" stroke="black" stroke-width="0.75" stroke-linecap="round" stroke-linejoin="round"/>
<path d="M403.17 442.64H379.78" stroke="black" stroke-width="0.75" stroke-linecap="round" stroke-linejoin="round"/>
<path d="M357.79 445.63H355.79" stroke="black" stroke-width="0.75" stroke-linecap="round" stroke-linejoin="round"/>
<path d="M389.93 445.63H360.11" stroke="black" stroke-width="0.75" stroke-linecap="round" stroke-linejoin="round"/>
<path d="M402.44 445.63H392.97" stroke="black" stroke-width="0.75" stroke-linecap="round" stroke-linejoin="round"/>
<path d="M370.5 451.62H360.11" stroke="black" stroke-width="0.75" stroke-linecap="round" stroke-linejoin="round"/>
<path d="M400.8 451.62H374.29" stroke="black" stroke-width="0.75" stroke-linecap="round" stroke-linejoin="round"/>
<path d="M398.21 436.35H349.7C346.7 436.35 344.4 432.68 344.4 427.81C344.4 422.94 346.68 419.27 349.7 419.27H398.21C398.428 419.234 398.65 419.246 398.863 419.305C399.075 419.364 399.272 419.469 399.44 419.612C399.608 419.754 399.743 419.932 399.835 420.132C399.928 420.332 399.976 420.55 399.976 420.77C399.976 420.99 399.928 421.208 399.835 421.408C399.743 421.608 399.608 421.786 399.44 421.928C399.272 422.071 399.075 422.176 398.863 422.235C398.65 422.294 398.428 422.306 398.21 422.27H349.7C348.8 422.27 347.43 424.47 347.43 427.78C347.43 431.09 348.8 433.29 349.7 433.29H398.21C398.428 433.254 398.65 433.266 398.863 433.325C399.075 433.384 399.272 433.489 399.44 433.632C399.608 433.774 399.743 433.952 399.835 434.152C399.928 434.352 399.976 434.57 399.976 434.79C399.976 435.01 399.928 435.228 399.835 435.428C399.743 435.628 399.608 435.806 399.44 435.948C399.272 436.091 399.075 436.196 398.863 436.255C398.65 436.314 398.428 436.326 398.21 436.29V436.35Z" fill="#9D4EDD"/>
<mask id="mask1_464_359" style="mask-type:luminance" maskUnits="userSpaceOnUse" x="344" y="419" width="56" height="18">
<path d="M398.21 436.35H349.7C346.7 436.35 344.4 432.68 344.4 427.81C344.4 422.94 346.68 419.27 349.7 419.27H398.21C398.428 419.234 398.65 419.246 398.863 419.305C399.075 419.364 399.272 419.469 399.44 419.612C399.608 419.754 399.743 419.932 399.835 420.132C399.928 420.332 399.976 420.55 399.976 420.77C399.976 420.99 399.928 421.208 399.835 421.408C399.743 421.608 399.608 421.786 399.44 421.928C399.272 422.071 399.075 422.176 398.863 422.235C398.65 422.294 398.428 422.306 398.21 422.27H349.7C348.8 422.27 347.43 424.47 347.43 427.78C347.43 431.09 348.8 433.29 349.7 433.29H398.21C398.428 433.254 398.65 433.266 398.863 433.325C399.075 433.384 399.272 433.489 399.44 433.632C399.608 433.774 399.743 433.952 399.835 434.152C399.928 434.352 399.976 434.57 399.976 434.79C399.976 435.01 399.928 435.228 399.835 435.428C399.743 435.628 399.608 435.806 399.44 435.948C399.272 436.091 399.075 436.196 398.863 436.255C398.65 436.314 398.428 436.326 398.21 436.29V436.35Z" fill="white"/>
</mask>
<g mask="url(#mask1_464_359)">
<g opacity="0.3">
<path d="M398.21 436.35H349.7C346.7 436.35 344.4 432.68 344.4 427.81C344.4 422.94 346.68 419.27 349.7 419.27H398.21C398.428 419.234 398.65 419.246 398.863 419.305C399.075 419.364 399.272 419.469 399.44 419.612C399.608 419.754 399.743 419.932 399.835 420.132C399.928 420.332 399.976 420.55 399.976 420.77C399.976 420.99 399.928 421.208 399.835 421.408C399.743 421.608 399.608 421.786 399.44 421.928C399.272 422.071 399.075 422.176 398.863 422.235C398.65 422.294 398.428 422.306 398.21 422.27H349.7C348.8 422.27 347.43 424.47 347.43 427.78C347.43 431.09 348.8 433.29 349.7 433.29H398.21C398.428 433.254 398.65 433.266 398.863 433.325C399.075 433.384 399.272 433.489 399.44 433.632C399.608 433.774 399.743 433.952 399.835 434.152C399.928 434.352 399.976 434.57 399.976 434.79C399.976 435.01 399.928 435.228 399.835 435.428C399.743 435.628 399.608 435.806 399.44 435.948C399.272 436.091 399.075 436.196 398.863 436.255C398.65 436.314 398.428 436.326 398.21 436.29V436.35Z" fill="black"/>
</g>
</g>
<path d="M398.21 436.35H349.7C346.7 436.35 344.4 432.68 344.4 427.81C344.4 422.94 346.68 419.27 349.7 419.27H398.21C398.428 419.234 398.65 419.246 398.863 419.305C399.075 419.364 399.272 419.469 399.44 419.612C399.608 419.754 399.743 419.932 399.835 420.132C399.928 420.332 399.976 420.55 399.976 420.77C399.976 420.99 399.928 421.208 399.835 421.408C399.743 421.608 399.608 421.786 399.44 421.928C399.272 422.071 399.075 422.176 398.863 422.235C398.65 422.294 398.428 422.306 398.21 422.27H349.7C348.8 422.27 347.43 424.47 347.43 427.78C347.43 431.09 348.8 433.29 349.7 433.29H398.21C398.428 433.254 398.65 433.266 398.863 433.325C399.075 433.384 399.272 433.489 399.44 433.632C399.608 433.774 399.743 433.952 399.835 434.152C399.928 434.352 399.976 434.57 399.976 434.79C399.976 435.01 399.928 435.228 399.835 435.428C399.743 435.628 399.608 435.806 399.44 435.948C399.272 436.091 399.075 436.196 398.863 436.255C398.65 436.314 398.428 436.326 398.21 436.29V436.35Z" stroke="black" stroke-linecap="round" stroke-linejoin="round"/>
<path d="M395.52 427.81C395.52 425.837 396.09 423.907 397.16 422.25H349.53V433.37H397.16C396.09 431.713 395.52 429.783 395.52 427.81Z" fill="white" stroke="black" stroke-linecap="round" stroke-linejoin="round"/>
<path d="M375.03 424.24H367.89" stroke="black" stroke-width="0.75" stroke-linecap="round" stroke-linejoin="round"/>
<path d="M396.16 424.24H377.68" stroke="black" stroke-width="0.75" stroke-linecap="round" stroke-linejoin="round"/>
<path d="M360.31 426.61H358.74" stroke="black" stroke-width="0.75" stroke-linecap="round" stroke-linejoin="round"/>
<path d="M385.71 426.61H362.15" stroke="black" stroke-width="0.75" stroke-linecap="round" stroke-linejoin="round"/>
<path d="M395.59 426.61H388.11" stroke="black" stroke-width="0.75" stroke-linecap="round" stroke-linejoin="round"/>
<path d="M370.36 431.34H362.15" stroke="black" stroke-width="0.75" stroke-linecap="round" stroke-linejoin="round"/>
<path d="M394.3 431.34H373.35" stroke="black" stroke-width="0.75" stroke-linecap="round" stroke-linejoin="round"/>
<path d="M363.67 33.02H238.71C233.176 33.02 228.69 37.5061 228.69 43.04V299.24C228.69 304.774 233.176 309.26 238.71 309.26H363.67C369.204 309.26 373.69 304.774 373.69 299.24V43.04C373.69 37.5061 369.204 33.02 363.67 33.02Z" fill="#263238" stroke="#263238" stroke-linecap="round" stroke-linejoin="round"/>
<path d="M328.06 45.06L326.57 48.49C326.041 49.6818 325.177 50.6943 324.084 51.4044C322.99 52.1145 321.714 52.4917 320.41 52.49H282C280.695 52.4942 279.418 52.1181 278.324 51.4077C277.23 50.6972 276.367 49.6833 275.84 48.49L274.35 45.06C273.821 43.8682 272.957 42.8557 271.864 42.1456C270.77 41.4355 269.494 41.0583 268.19 41.06H241.58C240.283 41.06 239.039 41.5752 238.122 42.4922C237.205 43.4093 236.69 44.6531 236.69 45.95V296.38C236.69 297.677 237.205 298.921 238.122 299.838C239.039 300.755 240.283 301.27 241.58 301.27H360.8C362.097 301.27 363.341 300.755 364.258 299.838C365.175 298.921 365.69 297.677 365.69 296.38V45.91C365.693 45.2662 365.568 44.6281 365.323 44.0325C365.079 43.4369 364.719 42.8955 364.265 42.4393C363.81 41.9831 363.27 41.6211 362.676 41.3741C362.081 41.1271 361.444 41 360.8 41H334.22C332.909 41.0009 331.627 41.3859 330.532 42.1074C329.437 42.829 328.578 43.8554 328.06 45.06Z" fill="#9D4EDD"/>
<mask id="mask2_464_359" style="mask-type:luminance" maskUnits="userSpaceOnUse" x="236" y="41" width="130" height="261">
<path d="M328.06 45.06L326.57 48.49C326.041 49.6818 325.177 50.6943 324.084 51.4044C322.99 52.1145 321.714 52.4917 320.41 52.49H282C280.695 52.4942 279.418 52.1181 278.324 51.4077C277.23 50.6972 276.367 49.6833 275.84 48.49L274.35 45.06C273.821 43.8682 272.957 42.8557 271.864 42.1456C270.77 41.4355 269.494 41.0583 268.19 41.06H241.58C240.283 41.06 239.039 41.5752 238.122 42.4922C237.205 43.4093 236.69 44.6531 236.69 45.95V296.38C236.69 297.677 237.205 298.921 238.122 299.838C239.039 300.755 240.283 301.27 241.58 301.27H360.8C362.097 301.27 363.341 300.755 364.258 299.838C365.175 298.921 365.69 297.677 365.69 296.38V45.91C365.693 45.2662 365.568 44.6281 365.323 44.0325C365.079 43.4369 364.719 42.8955 364.265 42.4393C363.81 41.9831 363.27 41.6211 362.676 41.3741C362.081 41.1271 361.444 41 360.8 41H334.22C332.909 41.0009 331.627 41.3859 330.532 42.1074C329.437 42.829 328.578 43.8554 328.06 45.06Z" fill="white"/>
</mask>
<g mask="url(#mask2_464_359)">
<path opacity="0.5" d="M328.06 45.06L326.57 48.49C326.041 49.6818 325.177 50.6943 324.084 51.4044C322.99 52.1145 321.714 52.4917 320.41 52.49H282C280.695 52.4942 279.418 52.1181 278.324 51.4077C277.23 50.6972 276.367 49.6833 275.84 48.49L274.35 45.06C273.821 43.8682 272.957 42.8557 271.864 42.1456C270.77 41.4355 269.494 41.0583 268.19 41.06H241.58C240.283 41.06 239.039 41.5752 238.122 42.4922C237.205 43.4093 236.69 44.6531 236.69 45.95V296.38C236.69 297.677 237.205 298.921 238.122 299.838C239.039 300.755 240.283 301.27 241.58 301.27H360.8C362.097 301.27 363.341 300.755 364.258 299.838C365.175 298.921 365.69 297.677 365.69 296.38V45.91C365.693 45.2662 365.568 44.6281 365.323 44.0325C365.079 43.4369 364.719 42.8955 364.265 42.4393C363.81 41.9831 363.27 41.6211 362.676 41.3741C362.081 41.1271 361.444 41 360.8 41H334.22C332.909 41.0009 331.627 41.3859 330.532 42.1074C329.437 42.829 328.578 43.8554 328.06 45.06Z" fill="white" stroke="#263238" stroke-linecap="round" stroke-linejoin="round"/>
</g>
<path d="M328.06 45.06L326.57 48.49C326.041 49.6818 325.177 50.6943 324.084 51.4044C322.99 52.1145 321.714 52.4917 320.41 52.49H282C280.695 52.4942 279.418 52.1181 278.324 51.4077C277.23 50.6972 276.367 49.6833 275.84 48.49L274.35 45.06C273.821 43.8682 272.957 42.8557 271.864 42.1456C270.77 41.4355 269.494 41.0583 268.19 41.06H241.58C240.283 41.06 239.039 41.5752 238.122 42.4922C237.205 43.4093 236.69 44.6531 236.69 45.95V296.38C236.69 297.677 237.205 298.921 238.122 299.838C239.039 300.755 240.283 301.27 241.58 301.27H360.8C362.097 301.27 363.341 300.755 364.258 299.838C365.175 298.921 365.69 297.677 365.69 296.38V45.91C365.693 45.2662 365.568 44.6281 365.323 44.0325C365.079 43.4369 364.719 42.8955 364.265 42.4393C363.81 41.9831 363.27 41.6211 362.676 41.3741C362.081 41.1271 361.444 41 360.8 41H334.22C332.909 41.0009 331.627 41.3859 330.532 42.1074C329.437 42.829 328.578 43.8554 328.06 45.06Z" stroke="#263238" stroke-linecap="round" stroke-linejoin="round"/>
<path d="M285 46.53C286.033 46.53 286.87 45.6928 286.87 44.66C286.87 43.6273 286.033 42.79 285 42.79C283.967 42.79 283.13 43.6273 283.13 44.66C283.13 45.6928 283.967 46.53 285 46.53Z" fill="#9D4EDD" stroke="#263238" stroke-linecap="round" stroke-linejoin="round"/>
<path d="M317.38 42.78H297.38C297.122 42.7612 296.863 42.7957 296.62 42.8814C296.376 42.9671 296.152 43.1021 295.963 43.2781C295.774 43.454 295.623 43.6671 295.519 43.904C295.416 44.1409 295.363 44.3966 295.363 44.655C295.363 44.9135 295.416 45.1691 295.519 45.406C295.623 45.6429 295.774 45.856 295.963 46.032C296.152 46.2079 296.376 46.343 296.62 46.4287C296.863 46.5144 297.122 46.5489 297.38 46.53H317.38C317.854 46.4954 318.297 46.2828 318.62 45.935C318.943 45.5872 319.123 45.1299 319.123 44.655C319.123 44.1801 318.943 43.7228 318.62 43.375C318.297 43.0272 317.854 42.8146 317.38 42.78Z" fill="#9D4EDD" stroke="#263238" stroke-linecap="round" stroke-linejoin="round"/>
<path d="M358.12 130.92H244.26C242.841 130.92 241.69 132.071 241.69 133.49V138.66C241.69 140.079 242.841 141.23 244.26 141.23H358.12C359.539 141.23 360.69 140.079 360.69 138.66V133.49C360.69 132.071 359.539 130.92 358.12 130.92Z" fill="white"/>
<path d="M243.42 131C243.015 131.422 242.533 131.761 242 132V139.73C242.767 139.943 243.459 140.366 244 140.95H329.24V131H243.42Z" fill="#9D4EDD"/>
<path opacity="0.2" d="M243.42 131C243.015 131.422 242.533 131.761 242 132V139.73C242.767 139.943 243.459 140.366 244 140.95H275.92V131H243.42Z" fill="black"/>
<path opacity="0.5" d="M299.55 130.99H275.93V141.19H299.55V130.99Z" fill="white"/>
<path d="M358.12 130.92H244.26C242.841 130.92 241.69 132.071 241.69 133.49V138.66C241.69 140.079 242.841 141.23 244.26 141.23H358.12C359.539 141.23 360.69 140.079 360.69 138.66V133.49C360.69 132.071 359.539 130.92 358.12 130.92Z" stroke="#263238" stroke-linecap="round" stroke-linejoin="round"/>
<path opacity="0.8" d="M356.59 225.67H245.79C243.526 225.67 241.69 227.506 241.69 229.77V249.06C241.69 251.324 243.526 253.16 245.79 253.16H356.59C358.854 253.16 360.69 251.324 360.69 249.06V229.77C360.69 227.506 358.854 225.67 356.59 225.67Z" fill="white"/>
<path d="M356.59 225.67H245.79C243.526 225.67 241.69 227.506 241.69 229.77V249.06C241.69 251.324 243.526 253.16 245.79 253.16H356.59C358.854 253.16 360.69 251.324 360.69 249.06V229.77C360.69 227.506 358.854 225.67 356.59 225.67Z" stroke="#263238" stroke-linecap="round" stroke-linejoin="round"/>
<path d="M262.24 229.51H248.63C246.912 229.51 245.52 230.902 245.52 232.62V246.23C245.52 247.948 246.912 249.34 248.63 249.34H262.24C263.957 249.34 265.35 247.948 265.35 246.23V232.62C265.35 230.902 263.957 229.51 262.24 229.51Z" stroke="#263238" stroke-linecap="round" stroke-linejoin="round"/>
<path d="M256.86 232.83H254C251.15 232.83 248.84 235.14 248.84 237.99V240.85C248.84 243.7 251.15 246.01 254 246.01H256.86C259.71 246.01 262.02 243.7 262.02 240.85V237.99C262.02 235.14 259.71 232.83 256.86 232.83Z" fill="#9D4EDD" stroke="#263238" stroke-width="0.75" stroke-linecap="round" stroke-linejoin="round"/>
<path d="M275.89 235.92C275.457 236.487 274.89 236.937 274.24 237.23V241.33C274.834 241.741 275.324 242.285 275.67 242.92H321.35V235.92H275.89Z" fill="#9D4EDD"/>
<path d="M347.35 236.13H276.42C275.001 236.13 273.85 237.281 273.85 238.7V240.15C273.85 241.569 275.001 242.72 276.42 242.72H347.35C348.769 242.72 349.92 241.569 349.92 240.15V238.7C349.92 237.281 348.769 236.13 347.35 236.13Z" stroke="#263238" stroke-linecap="round" stroke-linejoin="round"/>
<path d="M253.81 246H254.01H255.46V242.58H257.59V241.08H255.46V238.16H258.17V236.66H253.81V246Z" fill="black" stroke="black" stroke-width="0.75" stroke-miterlimit="10"/>
<path opacity="0.8" d="M356.59 155.51H245.79C243.526 155.51 241.69 157.346 241.69 159.61V178.9C241.69 181.164 243.526 183 245.79 183H356.59C358.854 183 360.69 181.164 360.69 178.9V159.61C360.69 157.346 358.854 155.51 356.59 155.51Z" fill="white"/>
<path d="M356.59 155.51H245.79C243.526 155.51 241.69 157.346 241.69 159.61V178.9C241.69 181.164 243.526 183 245.79 183H356.59C358.854 183 360.69 181.164 360.69 178.9V159.61C360.69 157.346 358.854 155.51 356.59 155.51Z" stroke="#263238" stroke-linecap="round" stroke-linejoin="round"/>
<path d="M262.24 159.34H248.63C246.912 159.34 245.52 160.732 245.52 162.45V176.06C245.52 177.778 246.912 179.17 248.63 179.17H262.24C263.957 179.17 265.35 177.778 265.35 176.06V162.45C265.35 160.732 263.957 159.34 262.24 159.34Z" stroke="#263238" stroke-linecap="round" stroke-linejoin="round"/>
<path d="M256.86 162.66H254C251.15 162.66 248.84 164.97 248.84 167.82V170.68C248.84 173.53 251.15 175.84 254 175.84H256.86C259.71 175.84 262.02 173.53 262.02 170.68V167.82C262.02 164.97 259.71 162.66 256.86 162.66Z" fill="#9D4EDD" stroke="#263238" stroke-width="0.75" stroke-linecap="round" stroke-linejoin="round"/>
<path d="M275.78 166.06C275.295 166.516 274.714 166.858 274.08 167.06V171.77C274.575 171.948 275.032 172.216 275.43 172.56H290.1V166.05L275.78 166.06Z" fill="#9D4EDD"/>
<path d="M347.35 165.96H276.42C275.001 165.96 273.85 167.111 273.85 168.53V169.98C273.85 171.399 275.001 172.55 276.42 172.55H347.35C348.769 172.55 349.92 171.399 349.92 169.98V168.53C349.92 167.111 348.769 165.96 347.35 165.96Z" stroke="#263238" stroke-linecap="round" stroke-linejoin="round"/>
<path d="M256.22 172.24C256.22 172.81 255.34 173.42 254.22 173.61C253.1 173.8 252.22 173.5 252.22 172.94C252.22 172.38 253.1 171.76 254.22 171.57C255.34 171.38 256.22 171.68 256.22 172.24Z" fill="#263238" stroke="#263238" stroke-linecap="round" stroke-linejoin="round"/>
<path d="M256.22 172.24V165.8" stroke="#263238" stroke-linecap="round" stroke-linejoin="round"/>
<path d="M259.1 166.7L256.22 167.21V165.8L259.1 165.29V166.7Z" fill="#263238" stroke="#263238" stroke-linecap="round" stroke-linejoin="round"/>
<path opacity="0.8" d="M356.59 260.76H245.79C243.526 260.76 241.69 262.596 241.69 264.86V284.15C241.69 286.414 243.526 288.25 245.79 288.25H356.59C358.854 288.25 360.69 286.414 360.69 284.15V264.86C360.69 262.596 358.854 260.76 356.59 260.76Z" fill="white"/>
<path d="M356.59 260.76H245.79C243.526 260.76 241.69 262.596 241.69 264.86V284.15C241.69 286.414 243.526 288.25 245.79 288.25H356.59C358.854 288.25 360.69 286.414 360.69 284.15V264.86C360.69 262.596 358.854 260.76 356.59 260.76Z" stroke="#263238" stroke-linecap="round" stroke-linejoin="round"/>
<path d="M262.24 264.59H248.63C246.912 264.59 245.52 265.982 245.52 267.7V281.31C245.52 283.028 246.912 284.42 248.63 284.42H262.24C263.957 284.42 265.35 283.028 265.35 281.31V267.7C265.35 265.982 263.957 264.59 262.24 264.59Z" stroke="#263238" stroke-linecap="round" stroke-linejoin="round"/>
<path d="M256.86 267.92H254C251.15 267.92 248.84 270.23 248.84 273.08V275.94C248.84 278.79 251.15 281.1 254 281.1H256.86C259.71 281.1 262.02 278.79 262.02 275.94V273.08C262.02 270.23 259.71 267.92 256.86 267.92Z" fill="#9D4EDD" stroke="#263238" stroke-width="0.75" stroke-linecap="round" stroke-linejoin="round"/>
<path d="M275.77 271.1C275.338 271.539 274.816 271.88 274.24 272.1V277C274.816 277.202 275.341 277.526 275.78 277.95H299.35V271.1H275.77Z" fill="#9D4EDD"/>
<path d="M347.35 271.21H276.42C275.001 271.21 273.85 272.361 273.85 273.78V275.23C273.85 276.649 275.001 277.8 276.42 277.8H347.35C348.769 277.8 349.92 276.649 349.92 275.23V273.78C349.92 272.361 348.769 271.21 347.35 271.21Z" stroke="#263238" stroke-linecap="round" stroke-linejoin="round"/>
<path d="M255.43 277.01C256.811 277.01 257.93 275.891 257.93 274.51C257.93 273.129 256.811 272.01 255.43 272.01C254.049 272.01 252.93 273.129 252.93 274.51C252.93 275.891 254.049 277.01 255.43 277.01Z" stroke="#263238" stroke-linecap="round" stroke-linejoin="round"/>
<path d="M258.78 272.08C259.288 272.08 259.7 271.668 259.7 271.16C259.7 270.652 259.288 270.24 258.78 270.24C258.272 270.24 257.86 270.652 257.86 271.16C257.86 271.668 258.272 272.08 258.78 272.08Z" fill="#263238" stroke="#263238" stroke-width="0.75" stroke-linecap="round" stroke-linejoin="round"/>
<path opacity="0.8" d="M356.59 190.59H245.79C243.526 190.59 241.69 192.426 241.69 194.69V213.98C241.69 216.244 243.526 218.08 245.79 218.08H356.59C358.854 218.08 360.69 216.244 360.69 213.98V194.69C360.69 192.426 358.854 190.59 356.59 190.59Z" fill="white"/>
<path d="M356.59 190.59H245.79C243.526 190.59 241.69 192.426 241.69 194.69V213.98C241.69 216.244 243.526 218.08 245.79 218.08H356.59C358.854 218.08 360.69 216.244 360.69 213.98V194.69C360.69 192.426 358.854 190.59 356.59 190.59Z" stroke="#263238" stroke-linecap="round" stroke-linejoin="round"/>
<path d="M262.24 194.42H248.63C246.912 194.42 245.52 195.812 245.52 197.53V211.14C245.52 212.858 246.912 214.25 248.63 214.25H262.24C263.957 214.25 265.35 212.858 265.35 211.14V197.53C265.35 195.812 263.957 194.42 262.24 194.42Z" stroke="#263238" stroke-linecap="round" stroke-linejoin="round"/>
<path d="M256.86 197.75H254C251.15 197.75 248.84 200.06 248.84 202.91V205.77C248.84 208.62 251.15 210.93 254 210.93H256.86C259.71 210.93 262.02 208.62 262.02 205.77V202.91C262.02 200.06 259.71 197.75 256.86 197.75Z" fill="#9D4EDD" stroke="#263238" stroke-width="0.75" stroke-linecap="round" stroke-linejoin="round"/>
<path d="M258.29 204.34L253.69 207.44V201.23L258.29 204.34Z" fill="#263238" stroke="#263238" stroke-linecap="round" stroke-linejoin="round"/>
<path d="M275.44 200.91C275.062 201.351 274.6 201.711 274.08 201.97V206.52C274.6 206.779 275.062 207.139 275.44 207.58H306.1V200.91H275.44Z" fill="#9D4EDD"/>
<path d="M347.35 201.04H276.42C275.001 201.04 273.85 202.191 273.85 203.61V205.06C273.85 206.479 275.001 207.63 276.42 207.63H347.35C348.769 207.63 349.92 206.479 349.92 205.06V203.61C349.92 202.191 348.769 201.04 347.35 201.04Z" stroke="#263238" stroke-linecap="round" stroke-linejoin="round"/>
<path d="M353.99 62.9099H248.39C244.69 62.9099 241.69 65.9096 241.69 69.6099V114.95C241.69 118.65 244.69 121.65 248.39 121.65H353.99C357.69 121.65 360.69 118.65 360.69 114.95V69.6099C360.69 65.9096 357.69 62.9099 353.99 62.9099Z" fill="#9D4EDD"/>
<mask id="mask3_464_359" style="mask-type:luminance" maskUnits="userSpaceOnUse" x="241" y="62" width="120" height="60">
<path d="M353.99 62.9099H248.39C244.69 62.9099 241.69 65.9096 241.69 69.6099V114.95C241.69 118.65 244.69 121.65 248.39 121.65H353.99C357.69 121.65 360.69 118.65 360.69 114.95V69.6099C360.69 65.9096 357.69 62.9099 353.99 62.9099Z" fill="white"/>
</mask>
<g mask="url(#mask3_464_359)">
<path d="M239.36 116.75L256.33 97.7899L273.29 108.47L290.26 80.7499L307.22 96.3199L324.19 78.2499H341.15L358.12 60.9099" stroke="white" stroke-width="5" stroke-linecap="round" stroke-linejoin="round"/>
</g>
<path d="M353.99 62.9099H248.39C244.69 62.9099 241.69 65.9096 241.69 69.6099V114.95C241.69 118.65 244.69 121.65 248.39 121.65H353.99C357.69 121.65 360.69 118.65 360.69 114.95V69.6099C360.69 65.9096 357.69 62.9099 353.99 62.9099Z" stroke="#263238" stroke-width="0.75" stroke-linecap="round" stroke-linejoin="round"/>
<path d="M232.2 410.75H81.42L92.76 333.34C95.0998 320.265 101.964 308.429 112.15 299.904C122.337 291.379 135.197 286.709 148.48 286.71H165.14C178.423 286.709 191.283 291.379 201.47 299.904C211.656 308.429 218.52 320.265 220.86 333.34L232.2 410.75Z" fill="white"/>
<mask id="mask4_464_359" style="mask-type:luminance" maskUnits="userSpaceOnUse" x="81" y="286" width="152" height="125">
<path d="M232.2 410.75H81.42L92.76 333.34C95.0998 320.265 101.964 308.429 112.15 299.904C122.337 291.379 135.197 286.709 148.48 286.71H165.14C178.423 286.709 191.283 291.379 201.47 299.904C211.656 308.429 218.52 320.265 220.86 333.34L232.2 410.75Z" fill="white"/>
</mask>
<g mask="url(#mask4_464_359)">
<path opacity="0.1" d="M217.17 407.22H96.4501L105.53 345.22C107.403 334.751 112.898 325.274 121.053 318.447C129.208 311.621 139.505 307.88 150.14 307.88H163.48C174.115 307.88 184.412 311.621 192.567 318.447C200.723 325.274 206.217 334.751 208.09 345.22L217.17 407.22Z" fill="black"/>
</g>
<path d="M232.2 410.75H81.42L92.76 333.34C95.0998 320.265 101.964 308.429 112.15 299.904C122.337 291.379 135.197 286.709 148.48 286.71H165.14C178.423 286.709 191.283 291.379 201.47 299.904C211.656 308.429 218.52 320.265 220.86 333.34L232.2 410.75Z" stroke="#263238" stroke-linecap="round" stroke-linejoin="round"/>
<path d="M269.22 399.34C297.87 462.34 204.22 457.9 161.68 458.11C115.61 458.32 25.41 465.22 46.5901 399.16C53.59 377.31 66.65 373.49 86.59 380.99C111.22 390.24 134.24 402.99 161.41 402.41C187.69 401.81 206.26 388.57 229.2 378.17C249.54 368.94 260.53 380.24 269.22 399.34Z" fill="white"/>
<mask id="mask5_464_359" style="mask-type:luminance" maskUnits="userSpaceOnUse" x="43" y="374" width="232" height="85">
<path d="M269.22 399.34C297.87 462.34 204.22 457.9 161.68 458.11C115.61 458.32 25.41 465.22 46.5901 399.16C53.59 377.31 66.65 373.49 86.59 380.99C111.22 390.24 134.24 402.99 161.41 402.41C187.69 401.81 206.26 388.57 229.2 378.17C249.54 368.94 260.53 380.24 269.22 399.34Z" fill="white"/>
</mask>
<g mask="url(#mask5_464_359)">
<path opacity="0.1" d="M251.52 390C265.52 442.84 197.64 443 159.73 443.27C123.14 443.52 53.73 443.27 67.45 390.71C70.91 377.49 88.12 387.53 95.45 390.52C116.86 399.3 137.45 406.85 159.57 406.77C181.69 406.69 202.15 399 223.57 390.03C230.49 387.12 248.07 377 251.52 390Z" fill="black"/>
</g>
<path d="M269.22 399.34C297.87 462.34 204.22 457.9 161.68 458.11C115.61 458.32 25.41 465.22 46.5901 399.16C53.5901 377.31 66.65 373.49 86.59 380.99C111.22 390.24 134.24 402.99 161.41 402.41C187.69 401.81 206.26 388.57 229.2 378.17C249.54 368.94 260.53 380.24 269.22 399.34Z" stroke="#263238" stroke-linecap="round" stroke-linejoin="round"/>
<path d="M77.5601 355.84C77.5601 355.84 88.0201 352.84 105.1 363.24C123.59 374.56 124.56 355.16 130.67 346.16H189.59C189.59 346.16 197.19 367.76 202.39 365.96C207.59 364.16 231.85 358.32 238.92 373.44C245.99 388.56 225.59 399.76 225.59 399.76C225.59 399.76 206.99 414.76 202.59 414.56C198.19 414.36 144.99 413.62 144.99 413.62L83.0001 374.56L76.2001 363.24L77.5601 355.84Z" fill="#858585" stroke="#263238" stroke-linecap="round" stroke-linejoin="round"/>
<path opacity="0.3" d="M225.59 399.76C225.59 399.76 245.99 388.56 238.92 373.44C238.83 373.24 238.72 373.06 238.62 372.88L214.32 398.7L175.42 390.45L178.18 388.77C178.18 388.77 198.4 372.77 193.05 369.5C188.84 366.97 173.64 380.17 156 380.36C138.36 380.55 124.84 366.57 122.59 369.23C121.97 369.96 122.41 371.71 123.37 373.88C123.453 374.057 123.478 374.256 123.441 374.448C123.403 374.64 123.305 374.815 123.162 374.948C123.018 375.081 122.835 375.164 122.641 375.186C122.446 375.208 122.25 375.167 122.08 375.07C111.64 369.23 98.4601 363.24 98.4601 363.24L93.1101 367.63L106.39 386.4L128.82 392.09L127 394L152.35 403.49L156.77 413.76C172.71 413.99 199.53 414.39 202.6 414.53C207 414.76 225.59 399.76 225.59 399.76Z" fill="black"/>
<path d="M151.4 240.74V273.07H175.77V248.01L151.4 240.74Z" fill="white" stroke="#263238" stroke-linecap="round" stroke-linejoin="round"/>
<path d="M150.9 243.05C152.142 245.689 153.788 248.119 155.78 250.25C160.22 255.06 176.06 254.52 181.6 254.17C182.156 254.133 182.685 253.919 183.11 253.559C183.535 253.199 183.833 252.712 183.96 252.17C184.42 250.17 185.13 246.64 185.61 243.08L150.9 243.05Z" fill="#263238" stroke="#263238" stroke-linecap="round" stroke-linejoin="round"/>
<path d="M156.19 202.44C156.19 202.44 137.04 196.33 136.24 223.44C135.44 250.55 117.49 253.34 133.45 268.1C149.41 282.86 154.82 260.31 154.82 260.31C154.82 260.31 148.19 257.13 151.4 250.31C154.61 243.49 178.05 253.21 178.05 253.21C178.05 253.21 183.73 261.09 178.74 267.07C178.74 267.07 195.52 270.29 192.92 259.31C190.32 248.33 186.1 234 186.11 220C186.12 206 173.55 190.87 156.19 202.44Z" fill="#263238" stroke="#263238" stroke-linecap="round" stroke-linejoin="round"/>
<path d="M119.32 269.16C119.32 269.16 129.63 309.4 126.88 342.59C126.775 343.786 127.047 344.985 127.659 346.018C128.27 347.052 129.191 347.867 130.29 348.35C135.05 350.42 144.62 352.91 160.65 350.49C160.65 350.49 191.75 355.34 193.19 347.29C196.65 327.83 191.32 294.49 204.12 270.49C204.12 270.49 189.72 260.63 164.12 260.36C148.742 260.196 133.494 263.191 119.32 269.16Z" fill="#9D4EDD"/>
<mask id="mask6_464_359" style="mask-type:luminance" maskUnits="userSpaceOnUse" x="119" y="260" width="86" height="92">
<path d="M119.32 269.16C119.32 269.16 129.63 309.4 126.88 342.59C126.775 343.786 127.047 344.985 127.659 346.018C128.27 347.052 129.191 347.867 130.29 348.35C135.05 350.42 144.62 352.91 160.65 350.49C160.65 350.49 191.75 355.34 193.19 347.29C196.65 327.83 191.32 294.49 204.12 270.49C204.12 270.49 189.72 260.63 164.12 260.36C148.742 260.196 133.494 263.191 119.32 269.16Z" fill="white"/>
</mask>
<g mask="url(#mask6_464_359)">
<path opacity="0.2" d="M135.62 350.11C135.62 350.11 131.18 347.95 132.98 343.83C134.78 339.71 140.84 327.1 140.84 327.1C140.84 327.1 147.19 329.1 151.78 327.7C154.654 326.806 157.421 325.599 160.03 324.1C160.03 324.1 166.77 327.9 178.48 324.1C178.48 324.1 181.72 342.1 189.55 350.61C197.38 359.12 197.66 348.7 197.66 348.7L186.11 321.1L180.78 312.9L165.11 318.1L144.18 312.9L133.58 318.9L125 334.36L121 342.1V348.9L130.69 353.9L135.62 350.11Z" fill="black"/>
<path opacity="0.2" d="M142.71 261.1C142.71 261.1 150.31 270.95 166.04 270.49C181.77 270.03 181.38 263 181.38 263L180.61 259.41H171.2L146 256.91L142.71 261.1Z" fill="black"/>
<path d="M176.52 344.57C176.91 344.33 177.3 344.09 177.67 343.83L176.52 344.57Z" fill="#9D4EDD"/>
<path d="M176.52 344.57C176.91 344.33 177.3 344.09 177.67 343.83" stroke="#263238" stroke-width="0.75" stroke-linecap="round" stroke-linejoin="round"/>
<path d="M163.38 348.73C167.363 348.195 171.247 347.084 174.91 345.43L163.38 348.73Z" fill="#9D4EDD"/>
<path d="M163.38 348.73C167.363 348.195 171.247 347.084 174.91 345.43" stroke="#263238" stroke-width="0.75" stroke-linecap="round" stroke-linejoin="round"/>
</g>
<path d="M119.32 269.16C119.32 269.16 129.63 309.4 126.88 342.59C126.775 343.786 127.047 344.985 127.659 346.018C128.27 347.052 129.191 347.867 130.29 348.35C135.05 350.42 144.62 352.91 160.65 350.49C160.65 350.49 191.75 355.34 193.19 347.29C196.65 327.83 191.32 294.49 204.12 270.49C204.12 270.49 189.72 260.63 164.12 260.36C148.742 260.196 133.494 263.191 119.32 269.16Z" stroke="#263238" stroke-linecap="round" stroke-linejoin="round"/>
<path d="M163.38 388.77L130.38 408.57C130.38 408.57 124.85 406.37 119.81 407.37C114.77 408.37 98.9801 402.77 92.3801 406.17C85.7801 409.57 83.9801 428.37 90.1801 430.77C96.3801 433.17 127.18 427.17 133.98 424.97C140.78 422.77 174.98 408.97 174.98 408.97L163.38 388.77Z" fill="white" stroke="#263238" stroke-linecap="round" stroke-linejoin="round"/>
<path d="M127.68 425C128.97 424.802 130.29 425.06 131.41 425.73C121.51 428.27 95.7901 432.97 90.1801 430.8C83.9801 428.4 85.7801 409.6 92.3801 406.2C98.9801 402.8 114.78 408.4 119.81 407.4C124.84 406.4 130.38 408.6 130.38 408.6C129.98 410.7 124.88 408.9 125.38 410.5C125.88 412.1 131.08 410.1 132.18 417.1C133.28 424.1 124.08 425.27 127.68 425Z" fill="#263238" stroke="#263238" stroke-linecap="round" stroke-linejoin="round"/>
<path d="M96.2601 405.16C93.7901 408.87 87.4901 420.08 92.6901 431.24C91.8355 431.202 90.9906 431.044 90.1801 430.77C83.9801 428.37 85.7801 409.57 92.3801 406.17C93.5993 405.595 94.9152 405.252 96.2601 405.16Z" fill="white" stroke="#263238" stroke-linecap="round" stroke-linejoin="round"/>
<path d="M179.7 214.8L181.16 221.56C181.16 221.56 185.67 226.86 186.07 233.64C186.37 238.76 184.76 246.83 183.96 250.46C183.833 251.002 183.535 251.489 183.11 251.849C182.685 252.209 182.156 252.423 181.6 252.46C176.06 252.81 160.22 253.35 155.78 248.54C150.36 242.67 149.56 237.35 149.56 237.35C149.56 237.35 155.17 225.53 153.46 220.21C153.46 220.21 161.03 214.29 160.3 210.66C160.3 210.69 175.94 204.54 179.7 214.8Z" fill="white" stroke="#263238" stroke-linecap="round" stroke-linejoin="round"/>
<path d="M174.65 220.93C174.65 220.93 175.95 226.81 179.91 228.72C180.08 228.808 180.227 228.932 180.342 229.084C180.457 229.237 180.537 229.413 180.576 229.599C180.614 229.786 180.61 229.98 180.564 230.165C180.518 230.35 180.431 230.523 180.31 230.67L177.96 233.67" stroke="#263238" stroke-linecap="round" stroke-linejoin="round"/>
<path d="M168.5 239.6C170.899 240.494 173.524 240.585 175.98 239.86C179.98 238.63 179.22 236.49 179.22 236.49" stroke="#263238" stroke-linecap="round" stroke-linejoin="round"/>
<path d="M159.72 223.42C159.72 223.42 162.07 217.04 168.77 220.16" stroke="#263238" stroke-width="1.5" stroke-linecap="round" stroke-linejoin="round"/>
<path d="M175.77 218.11C175.77 218.11 177.54 214.73 179.92 215.81" stroke="#263238" stroke-width="1.5" stroke-linecap="round" stroke-linejoin="round"/>
<path d="M168.09 299.08V292.39C168.09 291.547 167.755 290.738 167.159 290.141C166.562 289.545 165.753 289.21 164.91 289.21H154.41C153.567 289.21 152.758 289.545 152.161 290.141C151.565 290.738 151.23 291.547 151.23 292.39V299.08H168.09Z" fill="#263238" stroke="#263238" stroke-linecap="round" stroke-linejoin="round"/>
<path d="M164.76 291.12H154.56C152.721 291.12 151.23 292.611 151.23 294.45V317.77C151.23 319.609 152.721 321.1 154.56 321.1H164.76C166.599 321.1 168.09 319.609 168.09 317.77V294.45C168.09 292.611 166.599 291.12 164.76 291.12Z" fill="#858585" stroke="#263238" stroke-linecap="round" stroke-linejoin="round"/>
<path d="M155.37 297.41C156.486 297.41 157.39 296.506 157.39 295.39C157.39 294.274 156.486 293.37 155.37 293.37C154.254 293.37 153.35 294.274 153.35 295.39C153.35 296.506 154.254 297.41 155.37 297.41Z" fill="#9D4EDD" stroke="#263238" stroke-linecap="round" stroke-linejoin="round"/>
<path d="M155.37 296.02C155.718 296.02 156 295.738 156 295.39C156 295.042 155.718 294.76 155.37 294.76C155.022 294.76 154.74 295.042 154.74 295.39C154.74 295.738 155.022 296.02 155.37 296.02Z" fill="#263238"/>
<path d="M168 224.51C168.25 225.35 168 226.18 167.41 226.35C166.82 226.52 166.16 225.97 165.91 225.13C165.66 224.29 165.91 223.46 166.5 223.29C167.09 223.12 167.72 223.67 168 224.51Z" fill="#263238"/>
<path d="M180.33 221.43C180.58 222.27 180.33 223.1 179.74 223.27C179.15 223.44 178.49 222.89 178.24 222.05C177.99 221.21 178.24 220.38 178.83 220.21C179.42 220.04 180.08 220.59 180.33 221.43Z" fill="#263238"/>
<path d="M148.29 263.16L149.99 258.46V252.75C158.48 254.05 167.096 254.318 175.65 253.55C175.929 253.521 176.21 253.559 176.471 253.66C176.732 253.762 176.965 253.923 177.152 254.132C177.338 254.341 177.472 254.591 177.543 254.862C177.614 255.133 177.62 255.417 177.56 255.69C177.38 256.233 177.256 256.792 177.19 257.36C177.453 258.876 177.862 260.363 178.41 261.8C178.523 262.203 178.49 262.633 178.316 263.014C178.142 263.395 177.839 263.702 177.46 263.88C174.27 265.35 165.15 268.16 148.29 263.16Z" fill="#9D4EDD" stroke="#263238" stroke-linecap="round" stroke-linejoin="round"/>
<path d="M170.69 228L165.9 229.31C165.435 229.468 164.93 229.453 164.475 229.27C164.019 229.086 163.645 228.746 163.42 228.31L161.93 224.76C161.788 224.379 161.778 223.961 161.904 223.575C162.029 223.188 162.281 222.855 162.62 222.63C162.915 222.406 163.257 222.252 163.62 222.18L169.46 221.18C169.712 221.115 169.975 221.101 170.233 221.14C170.491 221.178 170.738 221.268 170.96 221.405C171.182 221.541 171.375 221.72 171.526 221.933C171.677 222.145 171.784 222.385 171.84 222.64L172.28 225.93C172.295 226.406 172.145 226.872 171.855 227.249C171.565 227.626 171.153 227.892 170.69 228Z" stroke="#263238" stroke-linecap="round" stroke-linejoin="round"/>
<path d="M180 225.51L184.78 224.21C185.261 224.108 185.69 223.837 185.989 223.447C186.288 223.056 186.437 222.571 186.41 222.08L185.9 218.26C185.829 217.859 185.624 217.493 185.319 217.223C185.014 216.952 184.627 216.793 184.22 216.77C183.841 216.726 183.457 216.774 183.1 216.91L177.51 219C177.259 219.072 177.025 219.193 176.823 219.358C176.62 219.522 176.453 219.726 176.332 219.957C176.21 220.188 176.137 220.441 176.116 220.701C176.095 220.961 176.127 221.223 176.21 221.47L177.49 224.53C177.721 224.967 178.102 225.307 178.563 225.487C179.023 225.667 179.534 225.675 180 225.51Z" stroke="#263238" stroke-linecap="round" stroke-linejoin="round"/>
<path d="M172.2 222.43C172.148 221.977 172.26 221.521 172.515 221.143C172.77 220.765 173.152 220.491 173.592 220.37C174.031 220.25 174.499 220.29 174.912 220.484C175.324 220.679 175.653 221.014 175.84 221.43" stroke="#263238" stroke-linecap="round" stroke-linejoin="round"/>
<path d="M161.93 224.77L149.56 231.6" stroke="#263238" stroke-linecap="round" stroke-linejoin="round"/>
<path d="M132.52 312.68C135.19 308.36 146.22 301.23 150.78 307.21C152.276 307.547 153.793 307.787 155.32 307.93C157.86 307.93 163.69 306.28 164.65 308.73C165.15 310.02 162.71 310.52 160.15 311.21C158.091 311.723 155.971 311.948 153.85 311.88C152.088 311.899 150.329 311.765 148.59 311.48L154.12 313.61C154.12 313.61 159.52 312.33 161.32 312.14C163.32 311.93 169.18 311.21 169.32 313.61C169.38 314.73 167.87 314.54 166.05 315.08C163.99 315.68 161.58 316.14 161.58 316.14C161.58 316.14 156.52 318.14 154.12 317.94C152.753 317.841 151.407 317.552 150.12 317.08L147.45 316.14C149.36 317.632 151.698 318.473 154.12 318.54C158.45 318.81 159.85 316.61 163.25 316.28C166.65 315.95 168.13 316.61 168.18 317.78C168.25 319.34 165.05 319.41 162.52 319.94C159.99 320.47 158.92 321.88 156.78 322.01C156.78 322.01 152.78 324.14 149.52 324.28C146.26 324.42 138.58 322.74 137.92 323.61C137.54 324.1 134.43 331.53 129.82 339.66C126.27 345.93 120.65 353.34 111.71 353.34C111.71 353.34 105.71 350.14 105.12 335.54C104.97 331.89 105.8 328.54 105.94 325.54C106.37 316.54 106.94 310.77 106.94 310.77L127.34 310.67L125.14 322.07C127.876 319.167 130.346 316.024 132.52 312.68Z" fill="white" stroke="#263238" stroke-linecap="round" stroke-linejoin="round"/>
<path d="M156.78 322C156.78 322 152.92 323.33 147.58 321.07L156.78 322Z" fill="white"/>
<path d="M156.78 322C156.78 322 152.92 323.33 147.58 321.07" stroke="#263238" stroke-linecap="round" stroke-linejoin="round"/>
<path d="M150.78 307.21H145.42" stroke="#263238" stroke-linecap="round" stroke-linejoin="round"/>
<path d="M112.26 335.69C112.006 336.234 111.782 336.791 111.59 337.36" stroke="#263238" stroke-linecap="round" stroke-linejoin="round"/>
<path d="M122.59 324.76C120.12 328.03 116.17 329.41 113.38 333.67" stroke="#263238" stroke-linecap="round" stroke-linejoin="round"/>
<path d="M123.29 280.37C122.238 276.539 120.9 272.792 119.29 269.16C119.29 269.16 107.2 281.16 106.4 308.67C106.374 309.578 106.633 310.471 107.141 311.224C107.648 311.977 108.379 312.553 109.23 312.87C112.23 313.97 117.62 315.42 125.95 315.71C126.331 315.725 126.711 315.66 127.064 315.517C127.418 315.375 127.737 315.159 128.001 314.884C128.265 314.609 128.467 314.281 128.595 313.921C128.722 313.562 128.772 313.18 128.74 312.8C128.58 310.8 128.31 307.95 127.89 304.53" fill="#9D4EDD"/>
<path d="M123.29 280.37C122.238 276.539 120.9 272.792 119.29 269.16C119.29 269.16 107.2 281.16 106.4 308.67C106.374 309.578 106.633 310.471 107.141 311.224C107.648 311.977 108.379 312.553 109.23 312.87C112.23 313.97 117.62 315.42 125.95 315.71C126.331 315.725 126.711 315.66 127.064 315.517C127.418 315.375 127.737 315.159 128.001 314.884C128.265 314.609 128.467 314.281 128.595 313.921C128.722 313.562 128.772 313.18 128.74 312.8C128.58 310.8 128.31 307.95 127.89 304.53" stroke="#263238" stroke-linecap="round" stroke-linejoin="round"/>
<path d="M150.87 251.7H128C125.93 256.99 126.06 261.26 133.43 268.08C149.43 282.84 154.8 260.29 154.8 260.29C154.8 260.29 149.1 257.54 150.87 251.7Z" fill="#263238" stroke="#263238" stroke-linecap="round" stroke-linejoin="round"/>
<path d="M191.29 252.7H176.75L178.05 253.22C178.05 253.22 183.73 261.1 178.74 267.08C178.74 267.08 195.52 270.3 192.92 259.32C192.42 257.23 191.86 255 191.29 252.7Z" fill="#263238" stroke="#263238" stroke-linecap="round" stroke-linejoin="round"/>
<path d="M187.59 309.49C184.19 306.15 176.12 300.96 168.52 304.03L164.79 304.75C164.79 304.75 155.61 302.29 154.65 304.75C154.15 306.04 156.59 306.54 159.15 307.23C161.71 307.92 163.85 308.69 165.45 308.69C167.215 308.709 168.978 308.575 170.72 308.29L165.19 310.43C165.19 310.43 159.78 309.95 157.99 309.76C155.99 309.55 150.12 308.83 149.99 311.23C149.92 312.35 151.43 312.16 153.25 312.69C155.31 313.3 157.72 313.76 157.72 313.76C157.72 313.76 162.79 314.96 165.19 314.76C166.558 314.661 167.905 314.368 169.19 313.89L171.05 313.76C171.05 313.76 169.52 315.09 165.19 315.36C160.86 315.63 159.45 314.23 156.05 313.89C152.65 313.55 151.17 314.23 151.12 315.39C151.05 316.96 154.25 317.03 156.79 317.56C159.33 318.09 160.39 318.69 162.52 318.83C162.52 318.83 166.52 320.96 169.79 321.09C173.06 321.22 179.92 319.56 180.59 320.43C181.26 321.3 189.59 354.56 204.39 356.56C204.39 356.56 213.59 352.56 214.19 337.96C214.79 323.36 213.19 314.76 213.19 314.76L194.39 313.06L194.99 321.26C194.99 321.26 191.5 313.35 187.59 309.49Z" fill="white" stroke="#263238" stroke-linecap="round" stroke-linejoin="round"/>
<path d="M198.22 327C199.064 328.221 199.993 329.38 201 330.47C204.05 333.76 207.35 337.61 208 342.81" stroke="#263238" stroke-width="0.75" stroke-linecap="round" stroke-linejoin="round"/>
<path d="M196.25 323.89C196.25 323.89 196.55 324.45 197.09 325.32" stroke="#263238" stroke-width="0.75" stroke-linecap="round" stroke-linejoin="round"/>
<path d="M162.52 318.83C162.52 318.83 165.59 320.16 170.92 317.89" stroke="#263238" stroke-linecap="round" stroke-linejoin="round"/>
<path d="M168.52 304.03H173.89" stroke="#263238" stroke-linecap="round" stroke-linejoin="round"/>
<path d="M237.85 371.31C234.38 365.31 223.45 358.31 206.91 368.11C187.65 379.47 155.98 390.24 155.18 393.17C155.18 393.17 166.38 401.71 168.78 412.64C168.78 412.64 174.58 415.57 185.68 411.31C196.78 407.05 252 395.76 237.85 371.31Z" fill="#858585" stroke="#263238" stroke-linecap="round" stroke-linejoin="round"/>
<path d="M138.59 392L171.59 411.8C171.59 411.8 177.12 409.6 182.15 410.6C187.18 411.6 202.99 406 209.59 409.4C216.19 412.8 217.99 431.6 211.79 434C205.59 436.4 174.79 430.4 167.99 428.2C161.19 426 126.99 412.2 126.99 412.2L138.59 392Z" fill="white" stroke="#263238" stroke-linecap="round" stroke-linejoin="round"/>
<path d="M174.29 428.16C172.998 427.965 171.678 428.219 170.55 428.88C180.45 431.43 206.18 436.13 211.79 433.96C217.99 431.56 216.19 412.76 209.59 409.36C202.99 405.96 187.19 411.56 182.15 410.56C177.11 409.56 171.59 411.76 171.59 411.76C171.99 413.86 177.09 412.06 176.59 413.66C176.09 415.26 170.89 413.26 169.79 420.26C168.69 427.26 177.89 428.46 174.29 428.16Z" fill="#263238" stroke="#263238" stroke-linecap="round" stroke-linejoin="round"/>
<path d="M205.7 408.35C208.17 412.06 214.48 423.26 209.27 434.43C210.128 434.392 210.976 434.233 211.79 433.96C217.99 431.56 216.19 412.76 209.59 409.36C208.369 408.78 207.049 408.437 205.7 408.35Z" fill="white" stroke="#263238" stroke-linecap="round" stroke-linejoin="round"/>
<path d="M68.12 361.69C71.96 355.92 79.32 351.94 95.85 361.69C115.11 373.06 145.98 393.43 146.78 396.36C146.78 396.36 135.59 404.89 133.19 415.83C133.19 415.83 127.39 416.36 116.29 412.09C105.19 407.82 51.3 387 68.12 361.69Z" fill="#858585" stroke="#263238" stroke-linecap="round" stroke-linejoin="round"/>
<path opacity="0.3" d="M116.29 412.09C127.39 416.36 133.19 415.83 133.19 415.83C133.959 412.588 135.314 409.514 137.19 406.76C127.61 417.17 102.96 401.5 82.9601 388.76C62.9601 376.02 68.1001 361.68 68.1001 361.68C51.3001 387 105.19 407.83 116.29 412.09Z" fill="black"/>
<path d="M194.61 296C195.841 289.694 197.794 283.55 200.43 277.69C201.534 275.221 202.766 272.811 204.12 270.47C209.295 274.096 212.895 279.556 214.19 285.74C215.94 294.67 214.47 309.44 215.28 316.06C215.37 316.764 215.202 317.478 214.806 318.068C214.411 318.658 213.816 319.085 213.13 319.27C210.13 320.07 204.63 320.95 196.55 319.85C195.635 319.725 194.792 319.287 194.163 318.611C193.534 317.935 193.158 317.062 193.1 316.14C192.976 313.672 192.976 311.198 193.1 308.73" fill="#9D4EDD"/>
<path d="M194.61 296C195.841 289.694 197.794 283.55 200.43 277.69C201.534 275.221 202.766 272.811 204.12 270.47C209.295 274.096 212.895 279.556 214.19 285.74C215.94 294.67 214.47 309.44 215.28 316.06C215.37 316.764 215.202 317.478 214.806 318.068C214.411 318.658 213.816 319.085 213.13 319.27C210.13 320.07 204.63 320.95 196.55 319.85C195.635 319.725 194.792 319.287 194.163 318.611C193.534 317.935 193.158 317.062 193.1 316.14C192.976 313.672 192.976 311.198 193.1 308.73" stroke="#263238" stroke-linecap="round" stroke-linejoin="round"/>
</svg>
