<svg width="500" height="483" viewBox="0 0 500 483" fill="none" xmlns="http://www.w3.org/2000/svg">
<path d="M432.29 118.833C429.35 117.211 426.43 115.556 423.53 113.869C392.31 95.6074 246.43 13.0374 188.3 25.3891C123 39.257 -1.89 257.715 38.19 317.291C78.27 376.867 264.19 472.542 310.19 452.184C356.19 431.826 469.19 234.045 473.86 187.043C477.86 146.907 442.67 124.521 432.29 118.833Z" fill="#9D4EDD"/>
<path opacity="0.7" d="M432.29 118.833C429.35 117.211 426.43 115.556 423.53 113.869C392.31 95.6074 246.43 13.0374 188.3 25.3891C123 39.257 -1.89 257.715 38.19 317.291C78.27 376.867 264.19 472.542 310.19 452.184C356.19 431.826 469.19 234.045 473.86 187.043C477.86 146.907 442.67 124.521 432.29 118.833Z" fill="white"/>
<path opacity="0.3" d="M235.64 454.647C327.015 454.647 401.09 441.533 401.09 425.356C401.09 409.179 327.015 396.065 235.64 396.065C144.264 396.065 70.1899 409.179 70.1899 425.356C70.1899 441.533 144.264 454.647 235.64 454.647Z" fill="black"/>
<path d="M91.7 253.321L234.47 236.961" stroke="#263238" stroke-miterlimit="10" stroke-dasharray="5 5"/>
<path d="M95.73 192.393L238.69 224.146" stroke="#263238" stroke-miterlimit="10" stroke-dasharray="5 5"/>
<path d="M118.55 141.18L232.65 208.598" stroke="#263238" stroke-miterlimit="10" stroke-dasharray="5 5"/>
<path d="M182.31 136.651L246.07 206.647" stroke="#263238" stroke-miterlimit="10" stroke-dasharray="5 5"/>
<path d="M250.77 89.9771V204.059" stroke="#263238" stroke-miterlimit="10" stroke-dasharray="5 5"/>
<path d="M353.45 86.0948L265.53 207.294" stroke="#263238" stroke-miterlimit="10" stroke-dasharray="5 5"/>
<path d="M400.44 130.818L270.23 215.725" stroke="#263238" stroke-miterlimit="10" stroke-dasharray="5 5"/>
<path d="M397.08 196.922L272.91 226.097" stroke="#263238" stroke-miterlimit="10" stroke-dasharray="5 5"/>
<path d="M394.4 276.653L278.28 240.998" stroke="#263238" stroke-miterlimit="10" stroke-dasharray="5 5"/>
<path d="M431.37 260.062H407.71C403.143 260.062 399.44 263.637 399.44 268.048V287.247C399.44 291.658 403.143 295.233 407.71 295.233H431.37C435.937 295.233 439.64 291.658 439.64 287.247V268.048C439.64 263.637 435.937 260.062 431.37 260.062Z" fill="white" stroke="#263238" stroke-linejoin="round"/>
<path d="M432.65 269.052H420.71V271.283H432.65V269.052Z" fill="#263238"/>
<path d="M432.65 281.935H420.71V284.166H432.65V281.935Z" fill="#263238"/>
<path d="M411.65 264.398H409.34V269.053H404.53V271.283H409.34V275.938H411.65V271.283H416.47V269.053H411.65V264.398Z" fill="#263238"/>
<path d="M413.9 279.26L410.5 282.553L407.09 279.26L405.46 280.844L408.86 284.128L405.46 287.421L407.09 288.995L410.5 285.711L413.9 288.995L415.54 287.421L412.13 284.128L415.54 280.844L413.9 279.26Z" fill="#263238"/>
<path d="M427.01 281.066C427.872 281.066 428.57 280.392 428.57 279.56C428.57 278.728 427.872 278.053 427.01 278.053C426.148 278.053 425.45 278.728 425.45 279.56C425.45 280.392 426.148 281.066 427.01 281.066Z" fill="#263238"/>
<path d="M427.01 288.367C427.872 288.367 428.57 287.693 428.57 286.861C428.57 286.029 427.872 285.354 427.01 285.354C426.148 285.354 425.45 286.029 425.45 286.861C425.45 287.693 426.148 288.367 427.01 288.367Z" fill="#263238"/>
<path d="M429.288 212.678C441.132 210.875 449.219 200.14 447.352 188.702C445.485 177.265 434.369 169.454 422.526 171.258C410.682 173.061 402.594 183.795 404.462 195.233C406.329 206.671 417.444 214.481 429.288 212.678Z" fill="white"/>
<path d="M425.92 214.711C421.256 214.711 416.697 213.375 412.82 210.873C408.942 208.371 405.92 204.814 404.135 200.653C402.35 196.492 401.883 191.914 402.793 187.496C403.703 183.079 405.949 179.021 409.246 175.837C412.544 172.652 416.746 170.483 421.32 169.605C425.894 168.726 430.635 169.177 434.944 170.9C439.252 172.624 442.935 175.543 445.526 179.288C448.117 183.032 449.5 187.435 449.5 191.939C449.495 197.977 447.009 203.766 442.588 208.035C438.167 212.305 432.172 214.706 425.92 214.711ZM425.92 172.779C421.993 172.777 418.154 173.9 414.888 176.005C411.622 178.111 409.077 181.105 407.573 184.608C406.069 188.111 405.675 191.967 406.441 195.686C407.206 199.406 409.097 202.822 411.874 205.504C414.651 208.185 418.188 210.011 422.04 210.75C425.891 211.49 429.883 211.109 433.511 209.657C437.138 208.205 440.238 205.747 442.419 202.593C444.599 199.439 445.762 195.731 445.76 191.939C445.752 186.86 443.659 181.991 439.94 178.399C436.221 174.808 431.179 172.787 425.92 172.779Z" fill="#9D4EDD"/>
<path d="M437.88 199.24C436.19 199.24 435.39 198.66 435.03 197.946V188.047C435.029 186.442 434.525 184.874 433.584 183.551C432.644 182.227 431.311 181.209 429.76 180.63C429.801 180.456 429.821 180.278 429.82 180.099C429.821 179.769 429.755 179.442 429.625 179.137C429.495 178.831 429.303 178.554 429.061 178.321C428.82 178.087 428.533 177.902 428.217 177.777C427.9 177.651 427.562 177.587 427.22 177.588H426.55C426.208 177.587 425.869 177.651 425.552 177.777C425.235 177.902 424.948 178.087 424.705 178.32C424.463 178.553 424.27 178.831 424.139 179.136C424.008 179.441 423.94 179.769 423.94 180.099C423.941 180.258 423.957 180.416 423.99 180.572C422.402 181.131 421.03 182.148 420.06 183.485C419.091 184.822 418.57 186.415 418.57 188.047V197.975C418.21 198.689 417.4 199.269 415.71 199.269V202.031H424.12C424.12 202.089 424.12 202.137 424.12 202.195C424.12 202.884 424.403 203.545 424.908 204.032C425.412 204.519 426.097 204.793 426.81 204.793C427.523 204.793 428.208 204.519 428.712 204.032C429.217 203.545 429.5 202.884 429.5 202.195C429.5 202.137 429.5 202.089 429.5 202.031H437.9L437.88 199.24Z" fill="#263238"/>
<path d="M417.87 105.583C416.057 105.583 414.262 105.928 412.587 106.599C410.912 107.269 409.39 108.252 408.108 109.49C406.827 110.729 405.811 112.199 405.118 113.817C404.425 115.435 404.069 117.169 404.07 118.92C404.07 126.279 417.87 138.814 417.87 138.814C417.87 138.814 431.68 126.26 431.68 118.92C431.68 117.169 431.323 115.434 430.629 113.816C429.935 112.198 428.918 110.728 427.635 109.49C426.353 108.251 424.83 107.269 423.155 106.599C421.479 105.928 419.684 105.583 417.87 105.583ZM417.87 123.604C416.908 123.604 415.968 123.328 415.169 122.812C414.37 122.296 413.747 121.563 413.379 120.704C413.012 119.846 412.916 118.902 413.104 117.991C413.293 117.081 413.756 116.244 414.437 115.588C415.118 114.932 415.985 114.486 416.928 114.306C417.871 114.126 418.849 114.22 419.737 114.577C420.625 114.934 421.383 115.537 421.916 116.31C422.449 117.083 422.732 117.991 422.73 118.92C422.731 119.537 422.607 120.148 422.363 120.718C422.119 121.288 421.761 121.806 421.31 122.242C420.858 122.678 420.322 123.023 419.731 123.259C419.141 123.494 418.509 123.615 417.87 123.614V123.604Z" fill="#263238"/>
<path d="M377.87 52.0239H344.06C342.215 52.0239 340.72 53.468 340.72 55.2495V74.5737C340.72 76.3552 342.215 77.7993 344.06 77.7993H377.87C379.715 77.7993 381.21 76.3552 381.21 74.5737V55.2495C381.21 53.468 379.715 52.0239 377.87 52.0239Z" fill="white" stroke="#263238" stroke-linejoin="round"/>
<path d="M366.587 70.3565C369.696 67.3544 369.696 62.4871 366.588 59.4851C363.479 56.483 358.439 56.4831 355.33 59.4851C352.222 62.4871 352.222 67.3544 355.33 70.3565C358.439 73.3585 363.479 73.3585 366.587 70.3565Z" fill="#263238"/>
<path d="M374.37 60.3389C375.872 60.3389 377.09 59.1628 377.09 57.7121C377.09 56.2614 375.872 55.0853 374.37 55.0853C372.868 55.0853 371.65 56.2614 371.65 57.7121C371.65 59.1628 372.868 60.3389 374.37 60.3389Z" fill="#263238"/>
<path d="M245.87 67.7943C245.87 66.5136 246.397 65.2854 247.334 64.3799C248.272 63.4743 249.544 62.9656 250.87 62.9656H255.93V49.1074C255.93 48.4483 255.795 47.7958 255.534 47.1871C255.273 46.5783 254.889 46.0254 254.406 45.5598C253.923 45.0943 253.35 44.7253 252.719 44.474C252.088 44.2227 251.412 44.094 250.73 44.0952H223.17C222.488 44.094 221.812 44.2227 221.181 44.474C220.55 44.7253 219.977 45.0943 219.494 45.5598C219.011 46.0254 218.627 46.5783 218.366 47.1871C218.105 47.7958 217.97 48.4483 217.97 49.1074V64.5591C217.97 65.8909 218.518 67.1682 219.493 68.11C220.468 69.0518 221.791 69.5809 223.17 69.5809H229.34L234.75 80.3777L237.75 69.5809H245.88L245.87 67.7943Z" fill="#263238"/>
<path d="M250.87 64.3756H269.67C270.608 64.3782 271.507 64.7392 272.17 65.3797C272.833 66.0203 273.207 66.8884 273.21 67.7943V78.3208C273.21 79.2274 272.837 80.097 272.173 80.7381C271.509 81.3793 270.609 81.7394 269.67 81.7394H265.46L261.77 89.108L259.77 81.7394H250.91C249.971 81.7394 249.071 81.3793 248.407 80.7381C247.743 80.097 247.37 79.2274 247.37 78.3208V67.7943C247.372 66.895 247.741 66.0327 248.395 65.3932C249.05 64.7537 249.939 64.3883 250.87 64.3756Z" fill="#263238"/>
<path d="M225.56 51.1161H248.34" stroke="#9D4EDD" stroke-linecap="round" stroke-linejoin="round"/>
<path d="M225.56 56.5145H248.34" stroke="#9D4EDD" stroke-linecap="round" stroke-linejoin="round"/>
<path d="M225.56 61.9226H248.34" stroke="#9D4EDD" stroke-linecap="round" stroke-linejoin="round"/>
<path d="M138.61 79.0547L143.98 79.7983L145.43 73.6659L140.37 72.1207C140.313 70.6407 139.995 69.1809 139.43 67.8039L143.25 64.3273L139.18 59.402L134.9 62.1833C133.629 61.2751 132.2 60.5948 130.68 60.1746L130.26 55.2397H123.74L123.32 60.1553C121.798 60.572 120.365 61.2491 119.09 62.1544L114.8 59.3731L110.74 64.2983L114.54 67.7556C113.955 69.1292 113.617 70.589 113.54 72.0724L108.48 73.6176L110 79.7596L115.34 79.016C116.076 80.2544 117.015 81.3698 118.12 82.3188L116.12 87.2537L122 89.9867L124.78 85.3899C125.5 85.5125 126.229 85.5771 126.96 85.583C127.681 85.5763 128.399 85.515 129.11 85.3995L131.9 90.006L137.78 87.273L135.78 82.3478C136.905 81.4086 137.862 80.2958 138.61 79.0547ZM120.82 72.6229C120.818 71.4467 121.177 70.2964 121.852 69.3173C122.527 68.3381 123.487 67.5741 124.611 67.1218C125.735 66.6695 126.973 66.5492 128.168 66.7761C129.363 67.003 130.462 67.5669 131.325 68.3965C132.188 69.2262 132.778 70.2844 133.018 71.4373C133.259 72.5903 133.141 73.7863 132.678 74.8742C132.215 75.9621 131.428 76.8931 130.418 77.5495C129.407 78.2059 128.218 78.5583 127 78.5621C126.19 78.5647 125.388 78.413 124.639 78.1158C123.89 77.8186 123.209 77.3816 122.635 76.83C122.061 76.2784 121.605 75.6228 121.294 74.9009C120.982 74.179 120.821 73.4049 120.82 72.6229Z" fill="#9D4EDD" stroke="#263238" stroke-linejoin="round"/>
<path d="M160.25 57.4223L163.9 57.9342L164.9 53.7622L161.46 52.7096C161.416 51.7161 161.2 50.7367 160.82 49.8124L163.41 47.4463L160.65 44.1049L157.74 46.0364C156.876 45.4196 155.904 44.9583 154.87 44.6747L154.59 41.3236H150.16L149.88 44.665C148.845 44.9472 147.869 45.405 147 46.0171L144.09 44.0856L141.33 47.427L143.91 49.7738C143.525 50.6968 143.305 51.6766 143.26 52.6709L139.82 53.7236L140.82 57.8955L144.45 57.3934C144.949 58.2348 145.588 58.9916 146.34 59.6339L145 62.9946L149 64.8488L150.9 61.7295C151.389 61.8107 151.884 61.8527 152.38 61.855C152.866 61.8508 153.35 61.8121 153.83 61.7392L155.73 64.8681L159.73 63.0043L158.4 59.6628C159.141 59.02 159.766 58.2629 160.25 57.4223ZM148.17 53.0572C148.17 52.2588 148.415 51.4784 148.875 50.8145C149.334 50.1507 149.987 49.6333 150.75 49.3278C151.514 49.0222 152.355 48.9423 153.166 49.098C153.976 49.2538 154.721 49.6383 155.306 50.2028C155.89 50.7674 156.288 51.4866 156.45 52.2697C156.611 53.0528 156.528 53.8644 156.212 54.602C155.896 55.3397 155.36 55.9701 154.672 56.4137C153.985 56.8572 153.177 57.094 152.35 57.094C151.801 57.094 151.258 56.9896 150.75 56.7867C150.243 56.5838 149.782 56.2865 149.394 55.9117C149.006 55.5368 148.698 55.0918 148.488 54.602C148.278 54.1123 148.17 53.5873 148.17 53.0572Z" fill="#263238"/>
<path d="M189.3 101.382H146.88V129.456H189.3V101.382Z" fill="white" stroke="#263238" stroke-linejoin="round"/>
<path d="M146.88 101.382L168.09 115.424L189.3 101.382H146.88Z" fill="white" stroke="#263238" stroke-linejoin="round"/>
<path d="M85.7599 148.636C96.9989 148.636 106.11 139.837 106.11 128.983C106.11 118.129 96.9989 109.33 85.7599 109.33C74.5209 109.33 65.4099 118.129 65.4099 128.983C65.4099 139.837 74.5209 148.636 85.7599 148.636Z" fill="white" stroke="#263238" stroke-width="2" stroke-linecap="round" stroke-linejoin="round"/>
<path d="M85.7598 139.799V128.983H76.8098" stroke="#263238" stroke-linecap="round" stroke-linejoin="round"/>
<path d="M73.38 171.997V173.213C73.38 174.253 72.9523 175.251 72.1909 175.986C71.4295 176.721 70.3968 177.134 69.32 177.134C68.2432 177.134 67.2105 176.721 66.4492 175.986C65.6878 175.251 65.26 174.253 65.26 173.213V171.997H57.4V173.213C57.4 174.253 56.9723 175.251 56.2109 175.986C55.4495 176.721 54.4168 177.134 53.34 177.134C52.8068 177.134 52.2789 177.033 51.7863 176.836C51.2937 176.639 50.8462 176.35 50.4691 175.986C50.0921 175.622 49.7931 175.19 49.5891 174.714C49.385 174.238 49.28 173.728 49.28 173.213V171.997H44V208.694H79.21V171.997H73.38Z" fill="#9D4EDD" stroke="#263238" stroke-linejoin="round"/>
<path d="M49.78 201.992V200.061L55.24 191.842C55.65 191.234 56.02 190.655 56.37 190.133C56.7129 189.603 56.9978 189.04 57.22 188.453C57.4514 187.797 57.5631 187.108 57.55 186.415C57.5889 185.638 57.4238 184.864 57.07 184.165C56.8995 183.891 56.6522 183.669 56.3566 183.526C56.061 183.382 55.7293 183.323 55.4 183.354C55.1164 183.336 54.832 183.374 54.5639 183.465C54.2958 183.557 54.0496 183.699 53.84 183.885C53.4519 184.276 53.1851 184.764 53.07 185.295C52.9262 185.906 52.8557 186.532 52.86 187.159V187.854H50V187.139C49.9729 186.046 50.149 184.957 50.52 183.923C50.8253 183.07 51.412 182.337 52.19 181.837C53.112 181.304 54.1765 181.045 55.25 181.094C55.9676 181.038 56.689 181.138 57.3619 181.385C58.0347 181.632 58.6421 182.021 59.14 182.523C60.0424 183.641 60.4937 185.038 60.41 186.454C60.4246 187.241 60.3133 188.026 60.08 188.781C59.8653 189.434 59.5769 190.062 59.22 190.655C58.86 191.234 58.47 191.833 58.05 192.441L53.12 199.713H59.91V202.012L49.78 201.992Z" fill="#263238"/>
<path d="M67.8 202.195C66.7263 202.251 65.6592 202.003 64.73 201.48C63.9559 200.994 63.3799 200.264 63.1 199.414C62.7502 198.373 62.5846 197.282 62.61 196.188H65.44C65.4428 196.787 65.4964 197.384 65.6 197.975C65.6828 198.515 65.918 199.023 66.28 199.443C66.4833 199.642 66.7291 199.796 67.0001 199.894C67.2712 199.993 67.5611 200.033 67.85 200.012C68.1617 200.043 68.4765 200 68.7673 199.887C69.0582 199.775 69.3164 199.595 69.52 199.365C69.8904 198.841 70.1112 198.231 70.16 197.598C70.2533 196.761 70.2967 195.919 70.29 195.078C70.3012 194.276 70.2477 193.476 70.13 192.683C70.0756 192.127 69.8452 191.601 69.47 191.176C69.2608 190.981 69.0102 190.833 68.7356 190.741C68.461 190.649 68.169 190.617 67.88 190.645C67.334 190.63 66.8035 190.821 66.4 191.176C66.0086 191.499 65.7005 191.906 65.5 192.364H63.09V181.268H72.33V184.001H65.66L65.47 189.737C65.8386 189.369 66.2856 189.082 66.78 188.897C67.3492 188.679 67.9579 188.574 68.57 188.588C69.5516 188.53 70.5226 188.811 71.31 189.38C71.996 189.95 72.4875 190.708 72.72 191.553C73.0072 192.588 73.1451 193.658 73.13 194.73C73.1351 195.72 73.0549 196.708 72.89 197.685C72.7565 198.518 72.4721 199.323 72.05 200.061C71.6697 200.722 71.105 201.268 70.42 201.635C69.6118 202.038 68.7088 202.231 67.8 202.195Z" fill="#263238"/>
<path d="M72 256.633V248.531C71.7038 245.155 70.1057 242.009 67.5223 239.717C64.9389 237.424 61.5584 236.152 58.05 236.152C54.5416 236.152 51.1611 237.424 48.5777 239.717C45.9943 242.009 44.3962 245.155 44.1 248.531V256.633H43.25V283.925H72.8V256.633H72ZM47.77 248.531C47.77 245.898 48.8531 243.373 50.7809 241.511C52.7088 239.649 55.3236 238.603 58.05 238.603C60.7764 238.603 63.3912 239.649 65.3191 241.511C67.2469 243.373 68.33 245.898 68.33 248.531V256.633H47.73L47.77 248.531Z" fill="#263238"/>
<path d="M61.9999 267.739C62.0027 267.094 61.8336 266.46 61.5089 265.896C61.1842 265.333 60.7148 264.86 60.1459 264.523C59.577 264.185 58.9277 263.995 58.2605 263.97C57.5934 263.945 56.9308 264.086 56.3366 264.38C55.7424 264.674 55.2365 265.111 54.8676 265.648C54.4987 266.185 54.2793 266.805 54.2304 267.449C54.1815 268.092 54.3048 268.736 54.5885 269.32C54.8721 269.903 55.3065 270.407 55.8499 270.781V276.991H60.3799V270.781C60.8818 270.436 61.2908 269.979 61.5726 269.45C61.8544 268.921 62.001 268.334 61.9999 267.739Z" fill="white"/>
<path d="M311.46 415.264C310.87 413.565 283.98 400.382 273.8 395.438H302.86C301.979 395.731 301.215 396.281 300.672 397.012C300.129 397.743 299.834 398.618 299.828 399.518C299.822 400.417 300.106 401.296 300.639 402.034C301.172 402.771 301.929 403.331 302.805 403.635C303.682 403.939 304.634 403.974 305.532 403.733C306.429 403.493 307.227 402.989 307.816 402.292C308.404 401.595 308.754 400.739 308.818 399.842C308.881 398.944 308.655 398.05 308.17 397.282C308.563 397.409 308.984 397.435 309.391 397.357C309.798 397.279 310.176 397.1 310.49 396.838C311.49 396.143 311.7 392.647 309.05 391.044C306.74 389.624 270.79 388.909 261.34 388.745V358.566H268.73V326.852H243.14V358.566H250.53V388.736C238.18 388.967 207.83 389.701 205.71 390.976C203.06 392.608 203.3 396.104 204.27 396.77C204.767 397.165 205.397 397.368 206.04 397.34C205.652 397.983 205.445 398.712 205.44 399.455C205.438 400.252 205.662 401.035 206.09 401.717C206.517 402.399 207.13 402.955 207.863 403.323C208.595 403.691 209.418 403.857 210.242 403.803C211.065 403.75 211.858 403.479 212.533 403.019C213.207 402.56 213.738 401.93 214.067 401.199C214.396 400.468 214.51 399.663 214.398 398.873C214.285 398.084 213.949 397.339 213.427 396.721C212.906 396.103 212.218 395.636 211.44 395.37H241C230.81 400.315 203.93 413.497 203.34 415.197C202.962 416.659 203.035 418.197 203.55 419.62C203.414 420.114 203.343 420.624 203.34 421.136C203.336 422.176 203.615 423.198 204.149 424.101C204.682 425.005 205.451 425.757 206.379 426.284C207.308 426.811 208.363 427.093 209.44 427.103C210.516 427.114 211.577 426.851 212.516 426.342C213.455 425.833 214.239 425.095 214.79 424.202C215.342 423.309 215.641 422.292 215.659 421.252C215.677 420.212 215.412 419.186 214.891 418.276C214.37 417.366 213.611 416.604 212.69 416.066C223.3 411.594 255.79 400.469 257.42 400.266C259.02 400.46 290.47 411.227 301.6 415.834C300.623 416.309 299.795 417.026 299.201 417.912C298.606 418.798 298.266 419.821 298.217 420.876C298.167 421.931 298.409 422.979 298.917 423.914C299.426 424.849 300.182 425.636 301.11 426.195C302.038 426.754 303.103 427.064 304.196 427.094C305.289 427.124 306.37 426.872 307.329 426.365C308.288 425.858 309.09 425.113 309.652 424.208C310.215 423.303 310.518 422.269 310.53 421.213C311.62 419.419 311.953 417.289 311.46 415.264ZM306 395.438H305.87H305.96H306Z" fill="#263238" stroke="#263238" stroke-linejoin="round"/>
<path d="M216.44 232.442C213.882 234.847 210.734 236.585 207.29 237.492C193.77 240.795 184.2 232.867 177.66 249.699C171.12 266.532 183.33 300.188 198.58 311.129C213.83 322.071 238.23 329.643 269.58 317.445C300.93 305.248 330.14 271.998 333.19 238.333C336.24 204.667 252.84 209.119 244.19 213.002C235.54 216.884 216.44 232.442 216.44 232.442Z" fill="white" stroke="#263238" stroke-linejoin="round"/>
<path d="M250.47 175.415C250.47 175.415 245.65 177.868 244.38 181.297C243.11 184.725 227.62 211.495 227.62 211.495C227.62 211.495 226.1 186.241 223.81 171.775C221.52 157.308 219 140.591 215.43 133.271C211.86 125.951 203.24 120.031 199.69 118.785C196.14 117.539 195.88 119.751 198.69 121.479C201.5 123.208 205.8 129.08 205.8 129.08L208.09 133.493C208.09 133.493 200.47 142.561 200.47 147.226C200.47 151.89 210.37 157.279 210.37 157.279C210.37 157.279 201.99 211.959 204.28 221.983C206.57 232.007 212.4 242.089 216.47 243.074C220.54 244.059 240.59 230.317 240.59 230.317C240.59 230.317 253 192.827 254 185.71C255 178.593 254.79 173.938 250.47 175.415Z" fill="white" stroke="#263238" stroke-linejoin="round"/>
<path d="M250.47 175.415C250.47 175.415 245.65 177.868 244.38 181.297C243.11 184.725 227.62 211.495 227.62 211.495C227.62 211.495 227.31 206.309 226.75 199.298C218.43 204.938 209.75 203.161 204.75 201.365C203.88 210.713 203.49 218.748 204.24 222.041C206.52 232.094 212.36 242.147 216.43 243.132C220.5 244.117 240.55 230.375 240.55 230.375C240.55 230.375 253 192.828 254 185.71C255 178.593 254.79 173.938 250.47 175.415Z" fill="#9D4EDD" stroke="#263238" stroke-linejoin="round"/>
<path d="M227.62 211.495C227.62 211.495 228.13 218.854 228.38 224.001" stroke="#263238" stroke-linejoin="round"/>
<path d="M198.69 137.008C198.69 137.008 194.5 140.388 194.84 142.696C195.18 145.004 202.36 151.6 204.58 150.944C206.8 150.287 207.82 150.113 205.58 147.235C203.34 144.357 200.29 140.804 199.78 139.509C199.27 138.215 198.69 137.008 198.69 137.008Z" fill="white" stroke="#263238" stroke-linejoin="round"/>
<path d="M208.07 133.483C208.07 133.483 201.25 133.792 199.88 135.028C198.51 136.265 198.26 139.239 201.08 142.947C203.9 146.656 205.86 149.041 206.97 147.892C208.08 146.743 207.82 145.169 206.8 143.517C205.946 142.049 205.175 140.537 204.49 138.988L207.99 135.028L208.07 133.483Z" fill="white" stroke="#263238" stroke-linejoin="round"/>
<path d="M194.84 142.696C194.84 142.696 192.28 146.82 194.08 149.215C195.88 151.61 201.67 154.816 203.64 153.909C205.61 153.001 204.58 150.944 204.58 150.944C202.85 150.125 201.217 149.127 199.71 147.969C197.898 146.383 196.265 144.616 194.84 142.696Z" fill="white" stroke="#263238" stroke-linejoin="round"/>
<path d="M217.21 138.099C217.21 138.099 211.32 132.846 208.07 133.445C206.61 133.715 201.21 138.099 200.2 140.07C199.19 142.04 200.7 142.764 202.2 142.271C203.7 141.779 210.07 139.577 210.07 139.577C210.07 139.577 208.07 147.67 210.07 149.872C212.07 152.074 218.45 152.083 218.45 152.083" fill="white"/>
<path d="M217.21 138.099C217.21 138.099 211.32 132.846 208.07 133.445C206.61 133.715 201.21 138.099 200.2 140.07C199.19 142.04 200.7 142.764 202.2 142.271C203.7 141.779 210.07 139.577 210.07 139.577C210.07 139.577 208.07 147.67 210.07 149.872C212.07 152.074 218.45 152.083 218.45 152.083" stroke="#263238" stroke-linejoin="round"/>
<path d="M285.51 171.736C285.51 171.736 253.01 173.455 250.51 175.415C248.01 177.376 246.19 182.774 245.94 184.242C245.69 185.71 236.29 229.361 234.51 236.961C232.73 244.562 216.25 263.451 216.25 263.451C216.25 263.451 245.89 279 259.93 285.924C269.112 290.363 278.942 293.425 289.08 295.002L322.08 227.642C322.08 227.642 337.82 190.123 338.33 186.444C338.84 182.765 337.82 184.242 327.67 179.578C321.142 176.567 314.223 174.423 307.1 173.204C304.55 172.721 285.51 171.736 285.51 171.736Z" fill="#9D4EDD" stroke="#263238" stroke-linejoin="round"/>
<path d="M107.3 327.537L86.56 326.909C86.56 326.909 61 314.085 58.7 315.021C56.4 315.958 61.62 330.985 68.42 339.425C75.22 347.866 94 359.455 97.58 361.328C101.16 363.202 103.09 364.457 106.32 362.294C109.55 360.131 117.32 345.403 117.32 345.403L107.3 327.537Z" fill="#9D4EDD" stroke="#263238" stroke-linejoin="round"/>
<path d="M73 336.615C66.75 329.295 62.51 320.198 60.46 315.234C59.9147 315.023 59.3227 314.95 58.74 315.021C56.47 315.987 61.66 330.985 68.46 339.425C75.26 347.866 94 359.455 97.58 361.328C101.16 363.202 103.09 364.457 106.32 362.294C107.211 361.576 107.989 360.736 108.63 359.802C101.34 356.162 80.4 345.336 73 336.615Z" fill="white" stroke="#263238" stroke-linejoin="round"/>
<path d="M174 395.119C174 395.119 166.55 408.572 163 413.574C159.45 418.577 146.15 425.163 146.48 427.973C146.81 430.784 163 431.682 171.77 431.102C180.54 430.523 188.29 420.151 192.77 417.65C197.25 415.148 200.55 414.202 197.96 408.263C195.37 402.323 192.13 396.375 192.13 396.375L174 395.119Z" fill="#9D4EDD" stroke="#263238" stroke-linejoin="round"/>
<path d="M172.74 427.346C166.4 429.277 154.53 427.152 147.95 425.675C146.95 426.583 146.43 427.365 146.5 427.973C146.82 430.784 163.02 431.72 171.77 431.102C180.52 430.484 188.29 420.151 192.77 417.65C197.25 415.148 200.55 414.202 197.96 408.263C181.49 413.893 181.81 424.526 172.74 427.346Z" fill="white" stroke="#263238" stroke-linejoin="round"/>
<path d="M148.44 296.566L173.06 383.54L169.5 386.36L173.39 398.914C176.751 400.144 180.218 401.084 183.75 401.725C191.2 403.289 195.42 402.352 195.42 402.352C195.42 402.352 195.74 393.593 194.77 390.764C193.8 387.934 192.18 382.941 192.18 382.941L187.64 306.919C187.64 306.919 228.78 321.936 244.98 320.999C261.18 320.063 233.32 289.71 214.85 275.011C196.38 260.313 155.85 252.172 149.41 267.807C145.541 276.974 145.197 287.176 148.44 296.566Z" fill="#858585" stroke="#263238" stroke-linejoin="round"/>
<path d="M214.85 274.982C210.917 271.938 206.619 269.36 202.05 267.305L180.46 260.467C173.74 259.241 167.27 258.932 161.93 259.81L175.93 273.099L187.59 306.9C187.59 306.9 228.73 321.917 244.93 320.98C261.13 320.043 233.32 289.719 214.85 274.982Z" fill="#263238" stroke="#263238" stroke-linejoin="round"/>
<path d="M290.34 291.564C290.34 291.564 285.16 304.07 277.7 312.81C270.24 321.55 249.19 324.07 240.45 320.941C231.71 317.812 207.73 298.73 194.12 287.459C180.51 276.189 176 273.099 176 273.099L129 336.296C129 336.296 126.41 338.807 126.73 341.309C127.05 343.81 113.73 351.632 113.73 351.632C113.73 351.632 107.57 346.62 105.63 342.873C103.69 339.126 101.74 335.987 102.39 333.486C103.04 330.985 101.74 329.102 103.04 325.664C104.34 322.226 109.84 320.661 109.84 320.661C109.84 320.661 150.98 247.449 155.84 240.255C160.7 233.06 163.62 231.177 167.18 231.804C170.74 232.432 218.37 255.581 226.18 259.965C233.99 264.35 290.34 291.564 290.34 291.564Z" fill="#858585" stroke="#263238" stroke-linejoin="round"/>
<path d="M237.61 302.003C239.745 303.584 241.961 305.06 244.25 306.426" stroke="#263238" stroke-linejoin="round"/>
<path d="M185.34 263.509C198.34 272.964 220.76 289.864 234.05 299.454" stroke="#263238" stroke-linejoin="round"/>
<path d="M165.78 272.52C165.78 272.52 167.08 261.626 168.78 262.051C170.48 262.476 174.42 267.488 174.42 264.948C174.42 262.408 173.55 256.575 175.29 256.575C175.64 256.575 178.42 258.507 182.68 261.568" stroke="#263238" stroke-linejoin="round"/>
<path d="M284 162.175C284 162.175 279.17 182.523 277.14 187.67C275.11 192.818 269.52 200.669 273.59 201.654C277.66 202.639 307.59 177.868 309.64 173.455C311.69 169.042 314.64 159.587 314.64 159.587C314.64 159.587 294.65 166.589 284 162.175Z" fill="white" stroke="#263238" stroke-linejoin="round"/>
<path d="M285.61 102.261C285.61 102.261 277.61 104.492 281 108.77C284.39 113.048 290.22 112.701 290.22 112.701C290.22 112.701 286.14 109.108 297.31 109.108C308.48 109.108 315.02 110.818 314.85 116.641C314.68 122.464 312.19 125.333 315.02 129.302C317.85 133.271 321.58 143.334 321.58 143.334L330.26 145.265C330.26 145.265 339.26 135.338 341.07 123.874C342.88 112.411 344.44 106.424 325.83 96.6697C307.22 86.9158 283.83 86.0466 281.89 92.5557C281.331 94.3439 281.392 96.2596 282.063 98.0115C282.735 99.7633 283.98 101.256 285.61 102.261Z" fill="#263238" stroke="#263238" stroke-linejoin="round"/>
<path d="M293.05 102.435C293.05 102.435 285.79 108.085 285.61 110.653C285.43 113.222 277.11 136.825 276.04 143.488C274.97 150.152 276.93 161.837 280.3 165.565C283.67 169.293 291.3 170.181 300.14 167.96C308.98 165.739 313.61 162.31 314.67 159.577C315.73 156.844 323.17 140.263 323.17 140.263C323.17 140.263 318.04 128.674 316.62 125.371C315.2 122.068 319.98 116.68 320.16 115.279C320.34 113.879 311.66 108.268 309.16 106.897C306.66 105.525 303.31 106.723 300.83 106.037C298.144 105.033 295.543 103.829 293.05 102.435Z" fill="white" stroke="#263238" stroke-linejoin="round"/>
<path d="M314.67 159.587C315.73 156.844 323.17 140.272 323.17 140.272C323.17 140.272 321.64 136.786 320.01 133.107C317.77 138.244 310.74 154.353 310.59 154.816C310.44 155.28 309.89 152.585 301.2 148.829C292.51 145.072 291.1 142.841 285.26 144.377C282.012 145.187 278.863 146.333 275.87 147.795L275.76 148.133C275.84 154.633 277.62 162.619 280.3 165.594C283.66 169.36 291.3 170.21 300.14 167.989C308.98 165.768 313.61 162.32 314.67 159.587Z" fill="#263238" stroke="#263238" stroke-linejoin="round"/>
<path d="M321.58 143.334C321.58 143.334 325.3 139.741 329.38 141.277C333.46 142.812 329.91 148.462 327.6 150.693C325.29 152.923 317.33 152.585 317.33 152.585L321.58 143.334Z" fill="white" stroke="#263238" stroke-linejoin="round"/>
<path d="M284.73 118.862C284.73 118.862 287.03 114.932 292.73 118.862" stroke="#263238" stroke-linejoin="round"/>
<path d="M300.49 120.234C300.49 120.234 305.49 117.336 310.24 123.314" stroke="#263238" stroke-linejoin="round"/>
<path d="M293.41 120.234C293.878 121.855 294.173 123.518 294.29 125.197C294.29 127.129 285.43 144.512 286.29 145.043C287.15 145.574 293.38 141.789 293.91 141.789" fill="white"/>
<path d="M293.41 120.234C293.878 121.855 294.173 123.518 294.29 125.197C294.29 127.129 285.43 144.512 286.29 145.043C287.15 145.574 293.38 141.789 293.91 141.789" stroke="#263238" stroke-linejoin="round"/>
<path d="M304.68 127.322C304.28 128.529 303.36 129.331 302.61 129.109C301.86 128.886 301.61 127.708 301.98 126.491C302.35 125.275 303.3 124.473 304.05 124.705C304.8 124.937 305.08 126.105 304.68 127.322Z" fill="#263238"/>
<path d="M288.74 123.894C288.34 125.11 287.41 125.912 286.66 125.68C285.91 125.448 285.66 124.29 286.03 123.073C286.4 121.856 287.36 121.054 288.1 121.276C288.84 121.499 289.13 122.648 288.74 123.894Z" fill="#263238"/>
<path d="M300.85 130.673C300.85 130.673 300.67 133.068 305.46 134.43" stroke="#263238" stroke-linejoin="round"/>
<path d="M290.75 126.559C288.816 127.573 286.721 128.269 284.55 128.616" stroke="#263238" stroke-linejoin="round"/>
<path d="M283.66 147.95C283.66 147.95 289.16 152.054 297.84 149.659" stroke="white" stroke-linejoin="round"/>
<path d="M324.36 256.517C324.36 256.517 293.58 259.019 284.83 273.099C276.08 287.179 267 310.647 257.62 318.15C248.24 325.654 212.91 316.586 207.08 313.776C202.867 311.828 198.524 310.153 194.08 308.763C194.08 308.763 200.88 319.097 222.59 325.973C244.3 332.849 277.02 335.987 311.36 323.163C345.7 310.338 355.42 285.924 359.63 267.469C363.84 249.014 359.63 224.011 353.47 208.337C347.31 192.663 337.6 182.996 334.36 183.305C331.12 183.614 331.44 219.289 333.36 232.741C335.28 246.194 324.36 256.517 324.36 256.517Z" fill="white" stroke="#263238" stroke-linejoin="round"/>
<path d="M263.3 223.779C264.61 225.248 266.098 226.561 267.73 227.69C270.23 229.361 271.19 235.493 271.96 236.382C272.73 237.27 273.69 241.027 273.69 241.027C273.69 241.027 266.95 236.382 265.22 234.518C263.49 232.654 263.3 223.779 263.3 223.779Z" fill="white" stroke="#263238" stroke-linejoin="round"/>
<path d="M245.11 216.044L254.49 248.656C254.591 249.005 254.789 249.321 255.062 249.57C255.335 249.818 255.673 249.99 256.04 250.066L268.91 252.683C269.254 252.769 269.615 252.764 269.956 252.67C270.298 252.575 270.607 252.395 270.852 252.147C271.098 251.9 271.27 251.593 271.352 251.26C271.435 250.926 271.423 250.578 271.32 250.25L262.47 217.415C262.378 217.048 262.176 216.715 261.89 216.458C261.604 216.2 261.246 216.029 260.86 215.966L247.45 213.6C247.11 213.529 246.756 213.545 246.424 213.646C246.092 213.747 245.793 213.929 245.557 214.176C245.321 214.423 245.155 214.725 245.077 215.053C244.998 215.38 245.01 215.722 245.11 216.044Z" fill="#263238" stroke="#263238" stroke-linejoin="round"/>
<path d="M327.66 179.626C327.66 179.626 336.08 182.523 337.81 184.039C339.54 185.556 340.89 191.109 343.97 200.775C347.05 210.442 351.86 250.607 352.06 253.398C352.26 256.189 339.73 259.193 329.72 260.834C319.71 262.476 282.17 259.164 282.17 259.164C282.17 259.164 274.46 258.043 268.88 257.483C263.3 256.923 255.02 253.021 253.28 252.655C251.54 252.288 252.71 249.68 252.71 249.68C251.781 250.002 250.806 250.188 249.82 250.231C248.47 250.231 248.47 248.56 248.47 248.56C248.47 248.56 250.01 245.025 250.78 244.697C251.55 244.369 262.91 244.137 262.91 244.137L252.91 239.859C252.91 239.859 247.71 240.824 246.56 240.419C245.41 240.013 245.79 238.188 246.56 237.628C247.33 237.068 253.29 235.774 254.45 236.141C255.61 236.508 263.5 238.371 263.5 238.371L262.34 236.141L253.1 231.312C253.1 231.312 249.44 231.119 248.29 231.119C247.14 231.119 244.82 230.375 245.4 228.521C245.98 226.667 251.95 226.841 253.87 227.217C255.79 227.594 267.35 231.495 269.28 233.543C271.21 235.59 277.36 247.671 277.36 247.671C277.36 247.671 288.91 249.902 303.36 245.441C317.81 240.979 323.2 239.298 323.2 239.298L317.2 210.858" fill="#9D4EDD"/>
<path d="M327.66 179.626C327.66 179.626 336.08 182.523 337.81 184.039C339.54 185.556 340.89 191.109 343.97 200.775C347.05 210.442 351.86 250.607 352.06 253.398C352.26 256.189 339.73 259.193 329.72 260.834C319.71 262.476 282.17 259.164 282.17 259.164C282.17 259.164 274.46 258.043 268.88 257.483C263.3 256.923 255.02 253.021 253.28 252.655C251.54 252.288 252.71 249.68 252.71 249.68C251.781 250.002 250.806 250.188 249.82 250.231C248.47 250.231 248.47 248.56 248.47 248.56C248.47 248.56 250.01 245.025 250.78 244.697C251.55 244.369 262.91 244.137 262.91 244.137L252.91 239.859C252.91 239.859 247.71 240.824 246.56 240.419C245.41 240.013 245.79 238.188 246.56 237.628C247.33 237.068 253.29 235.774 254.45 236.141C255.61 236.508 263.5 238.371 263.5 238.371L262.34 236.141L253.1 231.312C253.1 231.312 249.44 231.119 248.29 231.119C247.14 231.119 244.82 230.375 245.4 228.521C245.98 226.667 251.95 226.841 253.87 227.217C255.79 227.594 267.35 231.495 269.28 233.543C271.21 235.59 277.36 247.671 277.36 247.671C277.36 247.671 288.91 249.902 303.36 245.441C317.81 240.979 323.2 239.298 323.2 239.298L317.2 210.858" stroke="#263238" stroke-linejoin="round"/>
<path d="M277.35 247.584C277.35 247.584 271.19 235.493 269.27 233.456C267.35 231.418 255.79 227.507 253.86 227.13C251.93 226.754 245.97 226.57 245.39 228.434C244.81 230.298 247.12 231.032 248.28 231.032C249.44 231.032 253.09 231.225 253.09 231.225L262.33 236.054L263.49 238.284C263.49 238.284 255.6 236.43 254.44 236.054C253.28 235.677 247.32 237.019 246.55 237.541C245.78 238.062 245.39 239.965 246.55 240.332C247.71 240.699 252.9 239.772 252.9 239.772L262.9 244.05C262.9 244.05 251.54 244.233 250.77 244.61C250 244.987 248.46 248.473 248.46 248.473C248.46 248.473 248.46 250.144 249.81 250.144C250.796 250.101 251.771 249.915 252.7 249.593C252.7 249.593 251.54 252.191 253.27 252.568C255 252.944 263.27 256.846 268.87 257.396C274.47 257.947 282.16 259.077 282.16 259.077C282.16 259.077 297.02 260.4 310.54 260.96C312.41 252.336 311.45 246.715 310 243.248L303.33 245.315C288.9 249.815 277.35 247.584 277.35 247.584Z" fill="white" stroke="#263238" stroke-linejoin="round"/>
<path d="M252.71 249.632C253.969 249.185 255.255 248.811 256.56 248.512C257.71 248.328 265.22 250.182 265.22 250.182" stroke="#263238" stroke-linejoin="round"/>
</svg>
