<svg width="500" height="500" viewBox="0 0 500 500" fill="none" xmlns="http://www.w3.org/2000/svg">
<path d="M341.55 444.53C392.24 433.53 435.48 400.12 447.99 348.24C455.73 316.11 454.56 273.73 439.76 243.73C425.14 214.08 397.07 194.46 374.32 171.54C344 141 320.37 99.9 284.32 76.17C248.27 52.44 201.84 50.54 161.53 63.27C129.24 73.47 106.53 90.44 88.03 118.73C70.8606 145.18 60.0041 175.224 56.3 206.54C48.07 274.94 70.37 349.79 122.49 396.24C163.76 433.03 224.49 448.69 278.49 449.8C299.58 450.24 320.84 449 341.55 444.53Z" fill="#9D4EDD"/>
<path opacity="0.6" d="M341.73 444.75C392.42 433.75 435.66 400.34 448.17 348.46C455.91 316.33 454.74 273.95 439.94 243.95C425.32 214.3 397.25 194.68 374.5 171.76C344.18 141.23 320.55 100.12 284.5 76.39C248.45 52.66 202 50.76 161.71 63.49C129.42 73.69 106.71 90.66 88.21 118.95C71.0406 145.4 60.1841 175.444 56.48 206.76C48.25 275.17 70.55 350 122.67 396.46C163.94 433.25 224.67 448.91 278.67 450.02C299.76 450.46 321 449.26 341.73 444.75Z" fill="white"/>
<path d="M200 196.76C199.831 196.755 199.666 196.71 199.518 196.628C199.37 196.546 199.244 196.43 199.15 196.29L169.35 150.4L139.07 184.4L108.15 163.18L78.24 170.49L47.86 196.49C47.7572 196.576 47.6381 196.641 47.5098 196.68C47.3815 196.719 47.2466 196.732 47.1132 196.718C46.9798 196.704 46.8505 196.664 46.7332 196.599C46.6158 196.534 46.5127 196.446 46.43 196.34C46.2575 196.117 46.176 195.838 46.2019 195.557C46.2279 195.277 46.3595 195.017 46.57 194.83L77.32 168.5L108.54 160.87L138.75 181.61L169.6 147L200.88 195C201.034 195.234 201.094 195.518 201.048 195.794C201.001 196.07 200.852 196.319 200.63 196.49C200.458 196.651 200.235 196.747 200 196.76Z" fill="#263238"/>
<path d="M49.75 195.63C49.7323 196.128 49.5687 196.609 49.2796 197.015C48.9904 197.42 48.5884 197.732 48.1236 197.911C47.6587 198.089 47.1516 198.128 46.6652 198.021C46.1788 197.913 45.7347 197.666 45.388 197.308C45.0413 196.951 44.8074 196.499 44.7153 196.009C44.6233 195.52 44.6771 195.014 44.8702 194.555C45.0633 194.096 45.3871 193.704 45.8013 193.427C46.2156 193.151 46.7019 193.002 47.2 193C47.8852 193.016 48.5368 193.3 49.0139 193.792C49.491 194.285 49.7554 194.945 49.75 195.63Z" fill="white"/>
<path d="M77.78 166.82C78.3128 166.794 78.8412 166.928 79.2971 167.205C79.7529 167.483 80.1153 167.89 80.3374 168.375C80.5596 168.86 80.6314 169.4 80.5435 169.927C80.4556 170.453 80.2122 170.941 79.8445 171.327C79.4768 171.714 79.0017 171.981 78.4805 172.095C77.9594 172.209 77.416 172.164 76.9205 171.967C76.425 171.769 76.0001 171.427 75.7006 170.986C75.401 170.545 75.2406 170.023 75.24 169.49C75.2307 169.148 75.2891 168.807 75.4118 168.487C75.5346 168.168 75.7192 167.875 75.9553 167.627C76.1913 167.379 76.4739 167.18 76.7871 167.042C77.1002 166.903 77.4376 166.828 77.78 166.82Z" fill="white"/>
<path d="M108.34 159.35C108.873 159.322 109.402 159.454 109.86 159.73C110.317 160.006 110.681 160.413 110.904 160.897C111.128 161.382 111.201 161.923 111.115 162.45C111.028 162.977 110.785 163.465 110.418 163.853C110.051 164.24 109.576 164.509 109.055 164.624C108.533 164.739 107.989 164.695 107.493 164.497C106.997 164.3 106.572 163.958 106.272 163.517C105.971 163.075 105.811 162.554 105.81 162.02C105.794 161.331 106.051 160.664 106.525 160.164C106.999 159.663 107.651 159.371 108.34 159.35Z" fill="white"/>
<path d="M138.91 180.34C139.443 180.314 139.971 180.448 140.427 180.725C140.883 181.003 141.245 181.41 141.467 181.895C141.69 182.38 141.761 182.92 141.674 183.447C141.586 183.973 141.342 184.461 140.974 184.847C140.607 185.234 140.132 185.501 139.611 185.615C139.089 185.729 138.546 185.684 138.051 185.487C137.555 185.289 137.13 184.947 136.831 184.506C136.531 184.065 136.371 183.543 136.37 183.01C136.361 182.668 136.419 182.327 136.542 182.007C136.665 181.688 136.849 181.395 137.085 181.147C137.321 180.899 137.604 180.7 137.917 180.562C138.23 180.423 138.568 180.348 138.91 180.34Z" fill="white"/>
<path d="M172 148.69C171.975 149.186 171.804 149.664 171.51 150.064C171.216 150.464 170.811 150.77 170.345 150.942C169.88 151.114 169.373 151.147 168.89 151.034C168.406 150.922 167.965 150.671 167.623 150.311C167.281 149.951 167.051 149.499 166.963 149.01C166.875 148.521 166.933 148.017 167.128 147.56C167.324 147.104 167.649 146.714 168.063 146.441C168.478 146.167 168.963 146.021 169.46 146.02C170.151 146.038 170.806 146.33 171.282 146.83C171.758 147.331 172.016 147.999 172 148.69Z" fill="white"/>
<path d="M202.57 195.63C202.592 195.976 202.542 196.323 202.425 196.65C202.307 196.976 202.124 197.275 201.886 197.528C201.649 197.781 201.362 197.983 201.044 198.12C200.725 198.258 200.382 198.329 200.035 198.329C199.688 198.329 199.345 198.258 199.026 198.12C198.708 197.983 198.421 197.781 198.183 197.528C197.946 197.275 197.763 196.976 197.645 196.65C197.528 196.323 197.478 195.976 197.5 195.63C197.497 194.954 197.755 194.302 198.221 193.812C198.687 193.322 199.324 193.031 200 193C200.341 193.004 200.679 193.075 200.993 193.209C201.307 193.344 201.591 193.538 201.83 193.783C202.068 194.027 202.257 194.316 202.384 194.633C202.511 194.95 202.574 195.289 202.57 195.63Z" fill="white"/>
<path d="M351.86 118.22L355.2 116.71L354.5 112.71L350.82 112.42C350.353 111.19 349.738 110.022 348.99 108.94L350.87 105.73L348 102.86L344.79 104.78C342.933 103.527 340.835 102.676 338.63 102.28L337.7 98.59H333.63L332.68 102.3C331.43 102.542 330.211 102.928 329.05 103.45L326.13 100.94L322.81 103.2L324.19 106.79C323.321 107.697 322.562 108.704 321.93 109.79L318.11 109.41L316.74 113.22L319.9 115.48C319.744 116.368 319.667 117.268 319.67 118.17C319.65 118.546 319.65 118.924 319.67 119.3L316.33 121.18L317.39 125.08H321.16C321.697 126.267 322.389 127.377 323.22 128.38L321.59 131.77L324.71 134.37L327.71 132.22C328.856 132.88 330.078 133.397 331.35 133.76L331.98 137.37L335.98 137.71L337.2 134.28C338.523 134.161 339.826 133.879 341.08 133.44L343.63 136.02L347.16 134.02L346.16 130.51C347.185 129.627 348.096 128.62 348.87 127.51L352.44 128.16L354.15 124.48L351.35 122.22C351.689 120.914 351.86 119.57 351.86 118.22ZM345.86 118.22C345.86 120.226 345.265 122.186 344.151 123.854C343.037 125.521 341.453 126.821 339.6 127.588C337.748 128.356 335.709 128.556 333.742 128.165C331.775 127.774 329.968 126.808 328.55 125.39C327.132 123.972 326.166 122.165 325.775 120.198C325.384 118.231 325.584 116.192 326.352 114.34C327.119 112.487 328.419 110.903 330.086 109.789C331.754 108.675 333.714 108.08 335.72 108.08C338.398 108.077 340.967 109.137 342.865 111.027C344.762 112.917 345.832 115.482 345.84 118.16L345.86 118.22Z" fill="#263238"/>
<path opacity="0.1" d="M353 117.7L353.74 117.36C354.153 117.178 354.493 116.862 354.704 116.462C354.914 116.063 354.983 115.604 354.9 115.16L354.75 114.26C354.677 113.815 354.455 113.408 354.121 113.105C353.787 112.801 353.36 112.62 352.91 112.59L352.02 112.52C351.667 112.494 351.328 112.374 351.036 112.174C350.744 111.974 350.511 111.7 350.36 111.38C350.12 110.87 349.86 110.38 349.58 109.9C349.404 109.596 349.312 109.251 349.312 108.9C349.312 108.549 349.404 108.204 349.58 107.9L350.04 107.12C350.264 106.73 350.353 106.277 350.296 105.831C350.238 105.385 350.036 104.97 349.72 104.65L349.08 104.01C348.762 103.686 348.343 103.48 347.893 103.425C347.442 103.371 346.986 103.471 346.6 103.71L345.81 104.18C345.506 104.356 345.161 104.448 344.81 104.448C344.459 104.448 344.114 104.356 343.81 104.18C342.534 103.446 341.165 102.888 339.74 102.52C339.391 102.429 339.072 102.246 338.819 101.989C338.565 101.732 338.386 101.411 338.3 101.06L338.07 100.13C337.964 99.6826 337.708 99.2851 337.344 99.0046C336.979 98.7242 336.53 98.5777 336.07 98.59H335.17C334.712 98.5772 334.263 98.7222 333.899 99.0007C333.535 99.2793 333.278 99.6744 333.17 100.12L332.92 101.12C332.833 101.463 332.657 101.778 332.41 102.031C332.162 102.284 331.851 102.466 331.51 102.56C331.01 102.7 330.51 102.85 330.04 103.03C329.704 103.153 329.341 103.183 328.989 103.118C328.638 103.053 328.31 102.895 328.04 102.66L327.24 101.97C326.904 101.675 326.48 101.502 326.034 101.476C325.588 101.451 325.147 101.575 324.78 101.83L324.07 102.31C323.687 102.564 323.403 102.943 323.267 103.382C323.13 103.821 323.149 104.293 323.32 104.72L323.68 105.66C323.811 105.991 323.851 106.351 323.797 106.702C323.742 107.054 323.595 107.384 323.37 107.66C323.05 108.041 322.75 108.439 322.47 108.85C322.266 109.148 321.986 109.385 321.658 109.536C321.331 109.688 320.969 109.748 320.61 109.71L319.61 109.62C319.16 109.57 318.706 109.674 318.322 109.916C317.939 110.157 317.649 110.522 317.5 110.95L317.18 111.83C317.025 112.246 317.012 112.701 317.144 113.125C317.277 113.549 317.546 113.916 317.91 114.17L318.83 114.82C319.119 115.024 319.35 115.3 319.497 115.622C319.645 115.943 319.704 116.298 319.67 116.65C319.613 117.171 319.587 117.696 319.59 118.22C319.578 118.564 319.48 118.9 319.305 119.197C319.131 119.494 318.885 119.742 318.59 119.92L317.65 120.44C317.244 120.652 316.923 120.997 316.741 121.418C316.559 121.838 316.527 122.309 316.65 122.75L316.88 123.62C316.993 124.06 317.253 124.448 317.617 124.721C317.98 124.994 318.426 125.134 318.88 125.12H319.88C320.234 125.117 320.583 125.208 320.89 125.383C321.198 125.559 321.453 125.813 321.63 126.12C321.9 126.6 322.19 127.06 322.5 127.51C322.699 127.801 322.817 128.139 322.844 128.49C322.87 128.841 322.803 129.193 322.65 129.51L322.24 130.36C322.038 130.767 321.981 131.229 322.077 131.673C322.174 132.116 322.418 132.514 322.77 132.8L323.46 133.38C323.804 133.675 324.237 133.844 324.689 133.86C325.142 133.876 325.586 133.739 325.95 133.47L326.66 132.97C326.947 132.765 327.283 132.639 327.634 132.606C327.986 132.572 328.339 132.632 328.66 132.78C329.167 133.02 329.687 133.24 330.22 133.44C330.548 133.563 330.838 133.77 331.061 134.04C331.284 134.311 331.432 134.635 331.49 134.98L331.64 135.85C331.713 136.295 331.935 136.702 332.269 137.005C332.603 137.309 333.03 137.49 333.48 137.52L334.4 137.6C334.848 137.642 335.297 137.531 335.674 137.286C336.052 137.041 336.336 136.676 336.48 136.25L336.76 135.47C336.878 135.133 337.084 134.834 337.356 134.604C337.629 134.373 337.958 134.22 338.31 134.16C338.876 134.071 339.437 133.951 339.99 133.8C340.331 133.709 340.691 133.71 341.031 133.803C341.372 133.897 341.682 134.078 341.93 134.33L342.52 134.93C342.832 135.252 343.244 135.459 343.688 135.519C344.132 135.579 344.584 135.488 344.97 135.26L345.76 134.81C346.166 134.598 346.487 134.253 346.669 133.832C346.851 133.412 346.883 132.941 346.76 132.5L346.54 131.72C346.435 131.372 346.427 131.002 346.517 130.649C346.607 130.297 346.791 129.976 347.05 129.72C347.46 129.31 347.86 128.88 348.23 128.43C348.459 128.157 348.757 127.95 349.092 127.83C349.428 127.711 349.79 127.683 350.14 127.75L350.94 127.9C351.383 127.987 351.842 127.922 352.244 127.715C352.645 127.508 352.964 127.172 353.15 126.76L353.53 125.94C353.727 125.529 353.778 125.063 353.674 124.62C353.571 124.176 353.319 123.781 352.96 123.5L352.36 123.01C352.084 122.792 351.87 122.506 351.741 122.179C351.611 121.853 351.569 121.498 351.62 121.15C351.718 120.554 351.781 119.953 351.81 119.35C351.843 118.994 351.97 118.653 352.18 118.362C352.389 118.072 352.672 117.843 353 117.7ZM345.82 118.22C345.82 120.226 345.225 122.186 344.111 123.854C342.997 125.521 341.413 126.821 339.56 127.588C337.708 128.356 335.669 128.556 333.702 128.165C331.735 127.774 329.928 126.808 328.51 125.39C327.092 123.972 326.126 122.165 325.735 120.198C325.344 118.231 325.544 116.192 326.312 114.34C327.079 112.487 328.379 110.903 330.046 109.789C331.714 108.675 333.674 108.08 335.68 108.08C338.358 108.077 340.927 109.137 342.825 111.027C344.722 112.917 345.792 115.482 345.8 118.16L345.82 118.22Z" fill="white"/>
<path d="M397.91 168.64L403.11 166.29L402 160.07L396.27 159.61C395.549 157.689 394.581 155.871 393.39 154.2L396.34 149.2L391.88 144.77L386.88 147.77C384.01 145.792 380.751 144.449 377.32 143.83L375.88 138.1H369.56L368.08 143.87C366.13 144.259 364.231 144.87 362.42 145.69L357.89 141.79L352.72 145.31L354.87 150.89C353.503 152.306 352.321 153.888 351.35 155.6L345.4 155L343.26 160.94L348.18 164.28C347.938 165.674 347.821 167.086 347.83 168.5C347.79 169.083 347.79 169.667 347.83 170.25L342.63 173.17L344.28 179.25H350.15C351.003 181.082 352.074 182.804 353.34 184.38L350.81 189.62L355.66 193.69L360.34 190.18C362.12 191.209 364.021 192.012 366 192.57L366.94 198.23L373.24 198.79L375.13 193.45C377.193 193.244 379.223 192.794 381.18 192.11L385.18 196.11L390.66 192.95L389.15 187.5C390.743 186.164 392.161 184.632 393.37 182.94L398.92 183.94L401.59 178.22L397.23 174.7C397.699 172.715 397.928 170.68 397.91 168.64ZM388.56 168.64C388.56 171.761 387.635 174.812 385.901 177.407C384.167 180.002 381.702 182.025 378.819 183.219C375.935 184.413 372.762 184.726 369.701 184.117C366.64 183.508 363.829 182.005 361.622 179.798C359.415 177.591 357.912 174.78 357.303 171.719C356.694 168.658 357.007 165.485 358.201 162.601C359.395 159.718 361.418 157.253 364.013 155.519C366.608 153.786 369.659 152.86 372.78 152.86C376.948 152.86 380.946 154.509 383.903 157.446C386.859 160.384 388.534 164.372 388.56 168.54V168.64Z" fill="#263238"/>
<path opacity="0.1" d="M397.91 168.64L403.11 166.29L402 160.07L396.27 159.61C395.549 157.689 394.581 155.871 393.39 154.2L396.34 149.2L391.88 144.77L386.88 147.77C384.01 145.792 380.751 144.449 377.32 143.83L375.88 138.1H369.56L368.08 143.87C366.13 144.259 364.231 144.87 362.42 145.69L357.89 141.79L352.72 145.31L354.87 150.89C353.503 152.306 352.321 153.888 351.35 155.6L345.4 155L343.26 160.94L348.18 164.28C347.938 165.674 347.821 167.086 347.83 168.5C347.79 169.083 347.79 169.667 347.83 170.25L342.63 173.17L344.28 179.25H350.15C351.003 181.082 352.074 182.804 353.34 184.38L350.81 189.62L355.66 193.69L360.34 190.18C362.12 191.209 364.021 192.012 366 192.57L366.94 198.23L373.24 198.79L375.13 193.45C377.193 193.244 379.223 192.794 381.18 192.11L385.18 196.11L390.66 192.95L389.15 187.5C390.743 186.164 392.161 184.632 393.37 182.94L398.92 183.94L401.59 178.22L397.23 174.7C397.699 172.715 397.928 170.68 397.91 168.64ZM388.56 168.64C388.56 171.761 387.635 174.812 385.901 177.407C384.167 180.002 381.702 182.025 378.819 183.219C375.935 184.413 372.762 184.726 369.701 184.117C366.64 183.508 363.829 182.005 361.622 179.798C359.415 177.591 357.912 174.78 357.303 171.719C356.694 168.658 357.007 165.485 358.201 162.601C359.395 159.718 361.418 157.253 364.013 155.519C366.608 153.786 369.659 152.86 372.78 152.86C376.948 152.86 380.946 154.509 383.903 157.446C386.859 160.384 388.534 164.372 388.56 168.54V168.64Z" fill="white"/>
<path d="M120 261.41L124 259.61L123.17 254.87L118.8 254.52C118.25 253.059 117.521 251.672 116.63 250.39L118.86 246.58L115.45 243.18L111.65 245.46C109.443 243.966 106.951 242.944 104.33 242.46L103.23 238.1H98.32L97.19 242.49C95.7058 242.781 94.2597 243.241 92.88 243.86L89.42 240.86L85.48 243.54L87.12 247.8C86.0809 248.884 85.1807 250.094 84.44 251.4L79.91 251L78.27 255.53L82 258.19C81.8183 259.243 81.7313 260.311 81.74 261.38C81.71 261.826 81.71 262.274 81.74 262.72L77.74 264.94L79 269.58H83.47C84.1384 270.989 84.989 272.303 86 273.49L84.07 277.49L87.77 280.57L91.34 278.03C92.6962 278.812 94.1438 279.423 95.65 279.85L96.4 284.14L101.2 284.54L102.65 280.47C104.222 280.328 105.77 279.992 107.26 279.47L110.26 282.52L114.45 280.14L113.27 276C114.488 274.971 115.57 273.792 116.49 272.49L120.72 273.27L122.72 268.9L119.4 266.22C119.799 264.648 120 263.032 120 261.41ZM112.87 261.41C112.87 263.783 112.166 266.103 110.848 268.077C109.529 270.05 107.655 271.588 105.462 272.497C103.269 273.405 100.857 273.642 98.5289 273.179C96.2011 272.716 94.0629 271.574 92.3847 269.895C90.7065 268.217 89.5636 266.079 89.1006 263.751C88.6375 261.423 88.8752 259.011 89.7834 256.818C90.6917 254.625 92.2298 252.751 94.2031 251.432C96.1765 250.114 98.4966 249.41 100.87 249.41C104.044 249.41 107.089 250.667 109.338 252.907C111.587 255.147 112.857 258.186 112.87 261.36V261.41Z" fill="#263238"/>
<path opacity="0.1" d="M121.33 260.78L122.21 260.38C122.697 260.16 123.097 259.784 123.346 259.311C123.596 258.839 123.682 258.297 123.59 257.77L123.4 256.71C123.314 256.18 123.052 255.695 122.657 255.332C122.261 254.969 121.755 254.75 121.22 254.71L120.22 254.62C119.797 254.596 119.389 254.459 119.037 254.223C118.685 253.987 118.403 253.662 118.22 253.28C117.949 252.675 117.642 252.088 117.3 251.52C117.086 251.154 116.974 250.739 116.974 250.315C116.974 249.892 117.086 249.476 117.3 249.11L117.85 248.18C118.118 247.72 118.227 247.184 118.158 246.655C118.089 246.127 117.847 245.636 117.47 245.26L116.71 244.5C116.331 244.12 115.835 243.878 115.302 243.812C114.769 243.747 114.23 243.863 113.77 244.14L112.84 244.7C112.474 244.914 112.058 245.026 111.635 245.026C111.212 245.026 110.796 244.914 110.43 244.7C108.919 243.816 107.294 243.143 105.6 242.7C105.186 242.59 104.81 242.37 104.511 242.064C104.212 241.757 104.001 241.376 103.9 240.96L103.62 239.86C103.489 239.339 103.187 238.877 102.763 238.548C102.339 238.218 101.817 238.039 101.28 238.04H100.21C99.6747 238.04 99.1546 238.218 98.7312 238.546C98.3078 238.873 98.0049 239.332 97.87 239.85L97.57 241.02C97.47 241.428 97.2624 241.802 96.9686 242.103C96.6749 242.404 96.3059 242.62 95.9 242.73C95.31 242.89 94.73 243.07 94.15 243.29C93.7519 243.43 93.3239 243.462 92.9093 243.383C92.4948 243.304 92.1086 243.117 91.79 242.84L90.79 242.03C90.3877 241.685 89.8831 241.481 89.3537 241.45C88.8243 241.419 88.2995 241.563 87.86 241.86L87.03 242.43C86.579 242.735 86.2445 243.184 86.0811 243.703C85.9177 244.222 85.9349 244.782 86.13 245.29L86.56 246.4C86.716 246.79 86.7639 247.216 86.6988 247.631C86.6337 248.046 86.458 248.436 86.19 248.76C85.82 249.22 85.46 249.69 85.13 250.18C84.8851 250.53 84.5508 250.807 84.1619 250.983C83.7731 251.159 83.3442 251.227 82.92 251.18L81.75 251.06C81.2153 251.006 80.6779 251.132 80.2232 251.418C79.7684 251.704 79.4223 252.135 79.24 252.64L78.86 253.64C78.6818 254.135 78.6704 254.674 78.8274 255.176C78.9845 255.678 79.3015 256.115 79.73 256.42L80.82 257.2C81.1631 257.439 81.4365 257.765 81.6122 258.145C81.788 258.524 81.8597 258.944 81.82 259.36C81.7584 259.981 81.7317 260.606 81.74 261.23C81.7227 261.638 81.6028 262.036 81.3913 262.385C81.1798 262.735 80.8836 263.025 80.53 263.23L79.42 263.85C78.9509 264.114 78.5832 264.527 78.3749 265.023C78.1666 265.519 78.1297 266.07 78.27 266.59L78.55 267.59C78.6901 268.101 78.9938 268.552 79.4147 268.873C79.8356 269.195 80.3503 269.369 80.88 269.37H82.04C82.4633 269.367 82.8798 269.477 83.2458 269.69C83.6117 269.903 83.9137 270.21 84.12 270.58C84.4249 271.144 84.7587 271.691 85.12 272.22C85.3608 272.564 85.5046 272.967 85.5363 273.385C85.5679 273.804 85.4863 274.224 85.3 274.6L84.82 275.6C84.5864 276.084 84.5215 276.633 84.6357 277.159C84.7498 277.684 85.0365 278.156 85.45 278.5L86.27 279.18C86.6847 279.533 87.2064 279.736 87.7509 279.756C88.2953 279.776 88.8305 279.612 89.27 279.29L90.11 278.69C90.4553 278.442 90.8604 278.289 91.2839 278.249C91.7073 278.209 92.1339 278.281 92.52 278.46C93.1212 278.758 93.7389 279.022 94.37 279.25C94.7614 279.394 95.1075 279.639 95.3729 279.96C95.6382 280.282 95.8133 280.668 95.88 281.08L96.06 282.08C96.1477 282.609 96.4101 283.093 96.8052 283.456C97.2003 283.818 97.7054 284.038 98.24 284.08L99.33 284.18C99.8603 284.222 100.39 284.088 100.836 283.799C101.283 283.509 101.621 283.081 101.8 282.58L102.13 281.65C102.271 281.25 102.515 280.895 102.839 280.621C103.162 280.347 103.553 280.164 103.97 280.09C104.645 279.986 105.312 279.843 105.97 279.66C106.374 279.557 106.799 279.561 107.201 279.674C107.603 279.786 107.968 280.002 108.26 280.3L108.96 281.01C109.334 281.387 109.823 281.629 110.349 281.699C110.875 281.77 111.41 281.665 111.87 281.4L112.81 280.87C113.277 280.604 113.641 280.191 113.846 279.694C114.051 279.198 114.084 278.647 113.94 278.13L113.69 277.2C113.572 276.795 113.565 276.366 113.67 275.957C113.776 275.549 113.99 275.177 114.29 274.88C114.782 274.391 115.25 273.877 115.69 273.34C115.963 273.017 116.317 272.773 116.716 272.632C117.115 272.491 117.545 272.46 117.96 272.54L118.96 272.71C119.485 272.807 120.026 272.727 120.5 272.482C120.975 272.238 121.354 271.843 121.58 271.36L122.03 270.36C122.257 269.871 122.315 269.32 122.194 268.795C122.072 268.27 121.779 267.8 121.36 267.46L120.64 266.88C120.313 266.623 120.06 266.284 119.905 265.898C119.751 265.512 119.701 265.092 119.76 264.68C119.881 263.972 119.958 263.257 119.99 262.54C120.055 262.16 120.211 261.802 120.444 261.496C120.677 261.189 120.981 260.944 121.33 260.78ZM112.82 261.41C112.82 263.783 112.116 266.104 110.798 268.077C109.479 270.05 107.605 271.588 105.412 272.497C103.219 273.405 100.807 273.642 98.4789 273.179C96.1511 272.716 94.0129 271.574 92.3347 269.895C90.6565 268.217 89.5136 266.079 89.0506 263.751C88.5875 261.423 88.8252 259.011 89.7334 256.818C90.6417 254.625 92.1798 252.751 94.1531 251.432C96.1265 250.114 98.4466 249.41 100.82 249.41C103.994 249.41 107.039 250.667 109.288 252.907C111.537 255.147 112.807 258.186 112.82 261.36V261.41Z" fill="white"/>
<path d="M402.882 312.385C416.363 306.906 422.85 291.534 417.37 278.053C411.89 264.571 396.519 258.085 383.037 263.564C369.556 269.044 363.069 284.415 368.549 297.897C374.029 311.378 389.4 317.865 402.882 312.385Z" fill="#263238"/>
<path d="M415.997 290.036C418.016 277.543 409.525 265.778 397.032 263.759C384.538 261.739 372.773 270.231 370.754 282.724C368.735 295.218 377.226 306.982 389.72 309.002C402.213 311.021 413.978 302.53 415.997 290.036Z" fill="white" stroke="#263238" stroke-width="1.00285" stroke-miterlimit="10"/>
<path d="M378.15 292.15L392.97 287.94V267.21" stroke="#263238" stroke-width="2" stroke-miterlimit="10"/>
<path d="M358.12 310.52V212.16" stroke="#263238" stroke-linecap="round" stroke-linejoin="round"/>
<path d="M153.77 318.92V120.64" stroke="#263238" stroke-linecap="round" stroke-linejoin="round"/>
<path d="M87.37 235.54H403.98" stroke="#263238" stroke-linecap="round" stroke-linejoin="round"/>
<path d="M249.61 113.06L167.6 163.6" stroke="#263238" stroke-width="0.5" stroke-linecap="round" stroke-linejoin="round"/>
<path d="M260.44 116.48L194.73 156.96" stroke="#263238" stroke-width="0.5" stroke-linecap="round" stroke-linejoin="round"/>
<path d="M289.13 98.8L269.28 111.02" stroke="#263238" stroke-width="0.5" stroke-linecap="round" stroke-linejoin="round"/>
<path d="M110.54 374.29H389.74" stroke="#263238" stroke-miterlimit="10"/>
<path d="M245.53 390.81L260.54 425.31L310.09 418.99L281.33 390.81H245.53Z" fill="white" stroke="#263238" stroke-linecap="round" stroke-linejoin="round"/>
<path d="M298.9 387.82L332.73 412.8L279.43 419.99L257.07 388.42L298.9 387.82Z" fill="white" stroke="#263238" stroke-linecap="round" stroke-linejoin="round"/>
<path d="M106.64 403.3L129.32 382.37H219.57L183.97 405.82L106.64 403.3Z" fill="white" stroke="#263238" stroke-linecap="round" stroke-linejoin="round"/>
<path d="M183.05 408.92L101.47 404.4L90.94 373.59L80.98 344.45L165.33 347.88L179.1 395.33L183.05 408.92Z" fill="white" stroke="#263238" stroke-linecap="round" stroke-linejoin="round"/>
<path d="M183.05 408.92L101.47 404.4L90.94 373.59C104.36 375.13 117.88 373.04 141.3 376.84C161.81 380.15 173.02 388.06 179.1 395.33L183.05 408.92Z" fill="#263238" stroke="#263238" stroke-miterlimit="10"/>
<path d="M219.57 383.02V385.9L183.78 408.72L163.14 348.86L166.26 347.46L185.3 404.4L219.57 383.02Z" fill="white" stroke="#263238" stroke-miterlimit="10"/>
<path d="M166.73 347.25L163.14 348.86L81.66 343.99L85.85 341.95L166.64 346.96L166.73 347.25Z" fill="white" stroke="#263238" stroke-miterlimit="10"/>
<path d="M166.73 347.25L166.64 346.96L166.5 346.44L85.88 341.44H85.75L80.39 344.05L80.5 344.42L163.11 349.35H163.23L166.86 347.72L166.73 347.25ZM163.04 348.35L83.59 343.61L86 342.46L165.29 347.37L163.04 348.35Z" fill="#263238"/>
<path d="M185.3 404.4L183.78 408.72" stroke="#263238" stroke-miterlimit="10"/>
<path d="M373.23 365.25H326.63C326.63 365.25 326.63 377.76 333.21 394.13C333.21 397.27 340.74 399.78 350.03 399.78C359.32 399.78 366.84 397.25 366.84 394.13C366.86 393.977 366.86 393.823 366.84 393.67C373.16 377.52 373.23 365.25 373.23 365.25Z" fill="white" stroke="#263238" stroke-linecap="round" stroke-linejoin="round"/>
<path d="M350.09 372.04C363.013 372.04 373.49 369 373.49 365.25C373.49 361.5 363.013 358.46 350.09 358.46C337.167 358.46 326.69 361.5 326.69 365.25C326.69 369 337.167 372.04 350.09 372.04Z" fill="white" stroke="#263238" stroke-linecap="round" stroke-linejoin="round"/>
<path d="M350.09 359.57C361.69 359.57 371.09 362.12 371.09 365.25C371.09 368.38 361.69 370.93 350.09 370.93C338.49 370.93 329.09 368.39 329.09 365.25C329.09 362.11 338.49 359.57 350.09 359.57Z" fill="white" stroke="#263238" stroke-linecap="round" stroke-linejoin="round"/>
<path d="M331.07 367.65C334.43 369.59 341.67 370.91 350.07 370.91C358.47 370.91 365.73 369.59 369.07 367.65C365.72 365.73 358.46 364.39 350.07 364.39C341.68 364.39 334.43 365.73 331.07 367.65Z" fill="#263238" stroke="#263238" stroke-linecap="round" stroke-linejoin="round"/>
<path d="M340.3 368.19C340.3 368.19 334.21 353 336 348.94C337.79 344.88 343.6 345.4 345.64 349.45C347.68 353.5 348.64 368.7 348.64 368.7C348.64 368.7 342.58 370.73 340.3 368.19Z" fill="#9D4EDD" stroke="#263238" stroke-linecap="round" stroke-linejoin="round"/>
<path d="M345.63 369.71C345.63 369.71 340.81 342.88 342.07 337.8C343.33 332.72 349.68 330.95 354.23 334.75C358.78 338.55 357.05 357.81 357.05 360.59C357.05 363.37 356.8 369.21 356.8 369.21C353.189 370.374 349.331 370.546 345.63 369.71Z" fill="#9D4EDD" stroke="#263238" stroke-linecap="round" stroke-linejoin="round"/>
<path d="M355.5 369.21C355.5 369.21 351.74 358.81 353.99 354.76C356.24 350.71 360.82 352.23 360.82 355.52C360.82 358.81 361.08 366.68 360.57 368.44C360.06 370.2 357.28 370.73 355.5 369.21Z" fill="#9D4EDD" stroke="#263238" stroke-linecap="round" stroke-linejoin="round"/>
<path d="M349.93 369C343.59 345 348.93 333 348.93 333C348.93 333 356.52 346.18 352.47 369" stroke="#263238" stroke-linecap="round" stroke-linejoin="round"/>
<path d="M339.54 348.43C339.54 348.43 333.71 348.69 343.34 368.7" stroke="#263238" stroke-linecap="round" stroke-linejoin="round"/>
<path d="M275.89 352.54C281.262 358.993 284.946 366.68 286.61 374.91H206.74C206.74 374.91 208.31 360.81 213.21 352.54C218.11 344.27 275.89 352.54 275.89 352.54Z" fill="#263238"/>
<path d="M314.4 244.47C311.07 241.73 282.26 229.81 282.26 229.81C280.72 220.59 275.66 216.09 275.66 216.09C275.66 216.09 258.21 211.02 252.66 215.32C249.338 217.869 246.526 221.021 244.37 224.61C220.94 223.12 213.04 230.93 213.04 230.93C213.04 230.93 204.74 265.65 199.65 283.73C196.551 294.715 192.412 305.38 187.29 315.58C187.29 315.58 179.75 327.16 185.02 333.43C190.29 339.7 212.89 339.81 212.89 339.81L208.77 362.47C208.77 362.47 214.97 367.47 239.9 373.28C264.83 379.09 285.12 364 285.12 364L276.46 341.71C285.46 339.89 299.07 329.95 299.07 329.95C312.58 309.95 317.24 256.65 317.58 252.69C317.92 248.73 317.72 247.21 314.4 244.47ZM280.4 315.58C280.4 315.58 276.19 313.08 276.07 313.02L275.89 306.02L292.76 287.02L280.4 315.58Z" fill="#9D4EDD"/>
<path opacity="0.1" d="M314.4 244.47C311.07 241.73 282.26 229.81 282.26 229.81C280.72 220.59 275.66 216.09 275.66 216.09C275.66 216.09 258.21 211.02 252.66 215.32C249.338 217.869 246.526 221.021 244.37 224.61C220.94 223.12 213.04 230.93 213.04 230.93C213.04 230.93 204.74 265.65 199.65 283.73C196.551 294.715 192.412 305.38 187.29 315.58C187.29 315.58 179.75 327.16 185.02 333.43C190.29 339.7 212.89 339.81 212.89 339.81L208.77 362.47C208.77 362.47 214.97 367.47 239.9 373.28C264.83 379.09 285.12 364 285.12 364L276.46 341.71C285.46 339.89 299.07 329.95 299.07 329.95C312.58 309.95 317.24 256.65 317.58 252.69C317.92 248.73 317.72 247.21 314.4 244.47ZM280.4 315.58C280.4 315.58 276.19 313.08 276.07 313.02L275.89 306.02L292.76 287.02L280.4 315.58Z" fill="black"/>
<path d="M237.85 323.54C237.85 323.54 232.66 330.86 231.85 336.42C235.52 336.661 239.206 336.53 242.85 336.03C248.51 335.19 251.12 335.82 255.33 326.23L259.23 326.17C259.23 326.17 264.35 333.79 272.08 332.17C272.08 332.17 273.67 333.48 276.4 332.23L267.74 321.23C267.74 321.23 279.22 331.52 283.07 326.54L268.75 316.75C268.75 316.75 275.96 317.99 279.68 319.97C283.4 321.95 284.77 317.36 284.77 317.36L272.89 312C272.89 312 263.8 312.73 261.63 311.94C259.46 311.15 258.09 310.1 256.49 311.66C254.89 313.22 243.28 323.07 243.28 323.07L237.85 323.54Z" fill="white"/>
<path d="M232.18 336.48C232.18 336.48 247.46 336.48 250.1 334.54C252.74 332.6 255.32 326.23 255.32 326.23L259.22 326.17C259.22 326.17 266.75 334.07 272.07 332.17C272.07 332.17 259.31 318.6 257.07 317.82" stroke="#263238" stroke-width="0.985658" stroke-linecap="round" stroke-linejoin="round"/>
<path d="M271.6 331.64C272.242 332.219 273.048 332.583 273.907 332.682C274.766 332.781 275.634 332.609 276.39 332.19C276.39 332.19 263.15 315.85 260.23 315.37" stroke="#263238" stroke-width="0.985658" stroke-linecap="round" stroke-linejoin="round"/>
<path d="M238.77 323.13L243.28 323.06C243.28 323.06 253.09 315.62 254.9 313.2C256.71 310.78 258.83 310.49 260.17 311.53C261.51 312.57 272.89 311.99 272.89 311.99L284.76 317.33C284.76 317.33 283.1 321.09 280.44 320.21C277.78 319.33 271.79 316.71 268.74 316.72" stroke="#263238" stroke-width="0.985658" stroke-linecap="round" stroke-linejoin="round"/>
<path d="M265.78 314.49C265.78 314.49 273.42 320.32 276.78 322.49C280.14 324.66 283.07 326.49 283.07 326.49C283.07 326.49 280.19 328.54 277.39 327.39C274.59 326.24 265.09 319.26 265.09 319.26" stroke="#263238" stroke-width="0.985658" stroke-linecap="round" stroke-linejoin="round"/>
<path d="M232.4 338.25C232.4 338.25 233.3 326.32 241.04 321.62L229.15 319.55C229.15 319.55 221.15 328.48 221.43 337.88L232.4 338.25Z" fill="white"/>
<path d="M248.49 238C248.49 238 246.75 222.15 252.63 215.28C242.363 224.34 235.706 236.799 233.88 250.37C233.88 250.37 243.82 238.87 248.49 238Z" fill="white"/>
<path d="M215.31 317.1L208.87 307.35C208.801 307.246 208.697 307.171 208.576 307.138C208.456 307.104 208.328 307.115 208.215 307.169C208.102 307.222 208.013 307.314 207.962 307.428C207.912 307.542 207.904 307.671 207.94 307.79C208.703 310.256 209.789 312.61 211.17 314.79L203.86 308.68C203.732 308.572 203.572 308.508 203.404 308.498C203.236 308.488 203.07 308.532 202.929 308.624C202.789 308.716 202.682 308.851 202.624 309.009C202.567 309.167 202.562 309.339 202.61 309.5C203.3 311.71 204.71 314.97 207.33 316.91L215.31 317.1Z" fill="white" stroke="#263238" stroke-miterlimit="10"/>
<path d="M275.66 216.08C275.66 216.08 280.43 220.27 281.35 225.08C282.27 229.89 283.8 239.08 283.8 239.08L273.13 260.52C273.13 260.52 266.86 245.14 257.13 241.21C257.16 241.15 273.61 231.25 275.66 216.08Z" fill="white"/>
<path d="M275.66 216.09C276.48 217.24 284.44 215.24 285.51 214.99C291.65 213.53 297.65 210.44 301.08 204.94C305.63 197.65 304.17 190.17 302.22 182.38C300.79 176.67 299.22 171 297.62 165.38C296.22 160.38 295.44 155.08 293.32 150.38C290.26 143.61 285.32 137.66 278.51 134.5C259.89 125.9 233.84 139.65 227.1 145.17C220.36 150.69 219.85 166.71 236.18 175.84C252.51 184.97 275.62 216 275.66 216.09Z" fill="#263238"/>
<path d="M240.65 155.77C240.65 155.77 234.11 161.08 233.9 164.12C233.69 167.16 234.68 170.43 234.3 176.27C233.92 182.11 232.83 192.63 237.95 199.59C237.95 199.59 241.44 207.86 252 212.16L252.63 215.32C252.63 215.32 248.36 224.26 248.15 231.74C248.01 237.02 249.3 241.85 258.08 241.09C270.15 233.94 275.24 217.91 275.24 217.91L271.42 199.44L272.42 190.19C272.42 190.19 278.09 190.63 279.79 185.73C279.79 185.73 283.1 169.64 271.13 181.05C256.2 177.15 246.06 167.8 240.65 155.77Z" fill="white"/>
<path d="M244.91 194.72C246.379 195.461 248.063 195.661 249.665 195.284C251.267 194.907 252.685 193.978 253.67 192.66" stroke="#263238" stroke-width="0.75" stroke-linecap="round" stroke-linejoin="round"/>
<path d="M243.58 176.77C243.58 176.77 241.85 186.88 242.48 189.3C242.48 189.3 244.01 191.13 247.65 190.66" stroke="#263238" stroke-linecap="round" stroke-linejoin="round"/>
<path d="M240.65 155.77C240.65 155.77 235.36 160.77 233.46 165.02C233.932 168.753 234.212 172.508 234.3 176.27C234.3 180.95 232.18 189.27 236.6 197.37C241.02 205.47 250.54 213.28 256 213C261.46 212.72 271.23 207.19 272.95 191.71C272.95 191.71 282.41 190.65 281.95 186.41C281.91 186.44 290.2 172 240.65 155.77Z" stroke="#263238" stroke-linecap="round" stroke-linejoin="round"/>
<path d="M275.24 217.91L271.02 199.8" stroke="#263238" stroke-linecap="round" stroke-linejoin="round"/>
<path d="M248.49 238C249.053 238.673 249.73 239.242 250.49 239.68C252.771 240.99 255.434 241.474 258.03 241.05" stroke="#263238" stroke-linecap="round" stroke-linejoin="round"/>
<path d="M252 212.16C252.19 213.22 252.63 215.32 252.63 215.32L252.29 215.88" stroke="#263238" stroke-linecap="round" stroke-linejoin="round"/>
<path d="M243.4 177.7C243.66 182.78 240.67 187.06 236.72 187.27C232.77 187.48 229.34 183.52 229.08 178.44C228.82 173.36 231.82 169.08 235.77 168.87C239.72 168.66 243.14 172.62 243.4 177.7Z" stroke="#263238" stroke-width="0.75" stroke-linecap="round" stroke-linejoin="round"/>
<path d="M253.702 185.498C257.656 185.295 260.651 181.012 260.39 175.932C260.129 170.852 256.711 166.899 252.757 167.102C248.802 167.305 245.808 171.588 246.069 176.667C246.329 181.747 249.747 185.701 253.702 185.498Z" stroke="#263238" stroke-width="0.75" stroke-linecap="round" stroke-linejoin="round"/>
<path d="M254 312.84L228.17 296.91C228.097 296.847 228.046 296.763 228.025 296.67C228.003 296.576 228.012 296.478 228.05 296.39C228.098 296.284 228.186 296.202 228.295 296.16C228.403 296.119 228.524 296.123 228.63 296.17L254.47 312.12C254.518 312.149 254.559 312.186 254.592 312.232C254.624 312.277 254.647 312.328 254.659 312.382C254.672 312.436 254.673 312.492 254.662 312.547C254.652 312.602 254.631 312.654 254.6 312.7C254.563 312.768 254.508 312.825 254.441 312.864C254.374 312.902 254.297 312.922 254.22 312.92C254.14 312.918 254.063 312.89 254 312.84Z" fill="#263238"/>
<path d="M240.42 307.79L226.42 299.59C226.319 299.531 226.246 299.435 226.216 299.323C226.186 299.211 226.202 299.091 226.26 298.99C226.323 298.895 226.421 298.827 226.532 298.801C226.644 298.775 226.761 298.793 226.86 298.85L240.86 307.05C240.908 307.077 240.95 307.113 240.984 307.157C241.017 307.2 241.042 307.25 241.056 307.303C241.07 307.356 241.073 307.412 241.065 307.466C241.057 307.521 241.038 307.573 241.01 307.62C240.971 307.687 240.916 307.742 240.849 307.781C240.783 307.819 240.707 307.84 240.63 307.84C240.557 307.843 240.484 307.826 240.42 307.79Z" fill="#263238"/>
<path d="M302.72 266.69C302.618 266.638 302.54 266.549 302.502 266.441C302.465 266.332 302.471 266.214 302.52 266.11C306.199 259.187 310.318 252.507 314.85 246.11C314.915 246.016 315.014 245.951 315.126 245.929C315.238 245.906 315.354 245.928 315.45 245.99C315.54 246.056 315.601 246.155 315.619 246.265C315.638 246.375 315.613 246.488 315.55 246.58C311.035 252.931 306.936 259.568 303.28 266.45C303.245 266.527 303.189 266.593 303.118 266.639C303.047 266.685 302.965 266.71 302.88 266.71L302.72 266.69Z" fill="#263238"/>
<path d="M241 321.62C241 321.62 232.56 327.69 232.36 338.25H221.46C221.381 334.749 222.061 331.272 223.452 328.058C224.843 324.844 226.913 321.969 229.52 319.63L241 321.62Z" stroke="#263238" stroke-linecap="round" stroke-linejoin="round"/>
<path d="M280.4 314.78L297.01 277.54" stroke="#263238" stroke-linecap="round" stroke-linejoin="round"/>
<path d="M221.46 338.25C221.46 338.25 202.62 342.72 189.39 336.54C176.16 330.36 186.31 317.1 186.31 317.1C198.66 298.93 213.01 230.94 213.01 230.94C213.01 230.94 216.37 223.59 243.13 224.59" stroke="#263238" stroke-linecap="round" stroke-linejoin="round"/>
<path d="M229.52 319.63C229.52 319.63 206.37 314.55 196.89 318.17" stroke="#263238" stroke-linecap="round" stroke-linejoin="round"/>
<path d="M206.86 316.7C206.86 316.7 203.31 312.39 202.26 309.2C202.207 309.039 202.208 308.866 202.263 308.706C202.319 308.546 202.425 308.409 202.566 308.315C202.707 308.222 202.875 308.178 203.044 308.189C203.213 308.201 203.373 308.268 203.5 308.38L211.17 314.78C209.898 312.507 208.743 310.171 207.71 307.78C207.641 307.629 207.631 307.457 207.682 307.299C207.734 307.141 207.843 307.008 207.989 306.928C208.134 306.847 208.304 306.824 208.466 306.863C208.628 306.903 208.768 307.001 208.86 307.14L216 317.35" stroke="#263238" stroke-linecap="round" stroke-linejoin="round"/>
<path d="M282.26 229.8L312.86 243.57C314.392 244.257 315.675 245.399 316.534 246.841C317.393 248.284 317.786 249.956 317.66 251.63C316.44 267.58 312.42 307.17 298.72 330.56C298.72 330.56 262.91 359.56 221.46 338.25" stroke="#263238" stroke-linecap="round" stroke-linejoin="round"/>
<path d="M293.51 285.37L275.88 306.02L276.07 313.02" stroke="#263238" stroke-linecap="round" stroke-linejoin="round"/>
<path d="M242.69 275.06C242.69 275.06 246.64 261 252.21 252.93" stroke="#263238" stroke-linecap="round" stroke-linejoin="round"/>
<path d="M212.87 339.81L208.75 362.47C208.75 362.47 250.75 387.81 285.13 364L276.63 342.07" stroke="#263238" stroke-linecap="round" stroke-linejoin="round"/>
<path d="M215.42 250.1L213.75 272.19C213.75 272.19 203.31 289.19 215.42 302.27L216.01 317.35" stroke="#263238" stroke-linecap="round" stroke-linejoin="round"/>
<path d="M258.53 241C258.53 241 272.69 231.43 275.66 216.07C275.66 216.07 280.66 220.67 281.66 226.34C282.66 232.01 283.8 239 283.8 239L272.7 261.3C272.7 261.3 266.35 244.87 260.55 243.42" stroke="#263238" stroke-linecap="round" stroke-linejoin="round"/>
<path d="M252.63 215.32C252.63 215.32 246.69 221.8 248.49 238.04C248.49 238.04 237.14 244.87 233.62 251.51C233.62 251.51 240.08 221.94 252.63 215.32Z" stroke="#263238" stroke-linecap="round" stroke-linejoin="round"/>
<path d="M243.25 176.3H246.06" stroke="#263238" stroke-width="0.75" stroke-linecap="round" stroke-linejoin="round"/>
<path d="M233.88 181.58C233.88 181.58 228.46 194.08 230.88 205.11C233.3 216.14 252.67 215.32 252.67 215.32L252.04 212.16C252.04 212.16 231.61 202.41 233.88 181.58Z" fill="#263238"/>
<path d="M245 144.74C245 144.74 254.89 171.25 279 174.07" stroke="#263238" stroke-width="0.75" stroke-linecap="round" stroke-linejoin="round"/>
<path d="M252 140.84C252 140.84 268.56 164.94 290.77 165.79" stroke="#263238" stroke-width="0.75" stroke-linecap="round" stroke-linejoin="round"/>
<path d="M250.41 178.07C250.41 178.07 252.41 175.66 257.16 177.07" stroke="#263238" stroke-linecap="round" stroke-linejoin="round"/>
<path d="M241.43 179.29C240.614 178.597 239.636 178.122 238.587 177.909C237.538 177.696 236.452 177.751 235.43 178.07" stroke="#263238" stroke-linecap="round" stroke-linejoin="round"/>
<path d="M254.94 180.91C255.713 180.91 256.34 179.831 256.34 178.5C256.34 177.169 255.713 176.09 254.94 176.09C254.167 176.09 253.54 177.169 253.54 178.5C253.54 179.831 254.167 180.91 254.94 180.91Z" fill="#263238"/>
<path d="M241.18 180.26C241.18 181.36 240.66 182.26 240.02 182.26C239.38 182.26 238.87 181.38 238.87 180.26C238.87 179.14 239.39 178.26 240.02 178.26C240.65 178.26 241.18 179.17 241.18 180.26Z" fill="#263238"/>
<path d="M247.65 172.16C247.65 172.16 250.58 168.23 256.34 170.16" stroke="#263238" stroke-linecap="round" stroke-linejoin="round"/>
<path d="M240 172.16C240 172.16 236.8 169.24 234.22 171.6" stroke="#263238" stroke-linecap="round" stroke-linejoin="round"/>
</svg>
